RecursiveMonoVar-StrictLightItalic.ufo
<glyph name="exclam" format="1">
  <advance width="600"/>
  <unicode hex="0021"/>
  <outline>
    <contour>
      <point x="320" y="243" type="line"/>
      <point x="346" y="329"/>
      <point x="372" y="416"/>
      <point x="398" y="502" type="curve"/>
      <point x="444" y="689" type="line" smooth="yes"/>
      <point x="446" y="696"/>
      <point x="442" y="700"/>
      <point x="436" y="700" type="curve" smooth="yes"/>
      <point x="413" y="700"/>
      <point x="392" y="700"/>
      <point x="371" y="700" type="curve"/>
      <point x="362" y="662"/>
      <point x="353" y="627"/>
      <point x="344" y="590" type="curve" smooth="yes"/>
      <point x="322" y="502" type="line"/>
      <point x="272" y="256"/>
      <point x="271" y="250"/>
      <point x="274" y="246" type="curve" smooth="yes"/>
      <point x="275" y="244"/>
      <point x="277" y="243"/>
      <point x="281" y="243" type="curve"/>
    </contour>
    <contour>
      <point x="297" y="-5" type="curve"/>
      <point x="325" y="108" type="line" smooth="yes"/>
      <point x="327" y="114"/>
      <point x="323" y="119"/>
      <point x="317" y="119" type="curve" smooth="yes"/>
      <point x="285" y="119"/>
      <point x="232" y="119"/>
      <point x="200" y="119" type="curve"/>
      <point x="171" y="6" type="line" smooth="yes"/>
      <point x="170" y="0"/>
      <point x="174" y="-5"/>
      <point x="180" y="-5" type="curve" smooth="yes"/>
      <point x="212" y="-5"/>
      <point x="265" y="-5"/>
    </contour>
  </outline>
</glyph>
<glyph name="numbersign" format="1">
  <advance width="600"/>
  <unicode hex="0023"/>
  <outline>
    <contour>
      <point x="347" y="720" type="curve"/>
      <point x="236" y="474"/>
      <point x="124" y="226"/>
      <point x="14" y="-20" type="curve"/>
      <point x="28" y="-20"/>
      <point x="42" y="-20"/>
      <point x="56" y="-20" type="curve"/>
      <point x="63" y="-20"/>
      <point x="68" y="-19"/>
      <point x="73" y="-9" type="curve" smooth="yes"/>
      <point x="181" y="230"/>
      <point x="290" y="470"/>
      <point x="396" y="709" type="curve" smooth="yes"/>
      <point x="401" y="718"/>
      <point x="397" y="720"/>
      <point x="390" y="720" type="curve" smooth="yes"/>
      <point x="376" y="720"/>
      <point x="361" y="720"/>
    </contour>
    <contour>
      <point x="567" y="720" type="curve"/>
      <point x="456" y="474"/>
      <point x="344" y="226"/>
      <point x="234" y="-20" type="curve"/>
      <point x="248" y="-20"/>
      <point x="262" y="-20"/>
      <point x="276" y="-20" type="curve"/>
      <point x="283" y="-20"/>
      <point x="289" y="-19"/>
      <point x="293" y="-9" type="curve" smooth="yes"/>
      <point x="401" y="230"/>
      <point x="510" y="470"/>
      <point x="617" y="709" type="curve" smooth="yes"/>
      <point x="621" y="718"/>
      <point x="618" y="720"/>
      <point x="611" y="720" type="curve" smooth="yes"/>
      <point x="596" y="720"/>
      <point x="581" y="720"/>
    </contour>
    <contour>
      <point x="627" y="449" type="line"/>
      <point x="630" y="462"/>
      <point x="634" y="479"/>
      <point x="637" y="492" type="curve" smooth="yes"/>
      <point x="638" y="495"/>
      <point x="638" y="498"/>
      <point x="636" y="500" type="curve" smooth="yes"/>
      <point x="635" y="502"/>
      <point x="632" y="503"/>
      <point x="629" y="503" type="curve"/>
      <point x="120" y="503" type="line"/>
      <point x="117" y="490"/>
      <point x="113" y="473"/>
      <point x="109" y="460" type="curve" smooth="yes"/>
      <point x="108" y="454"/>
      <point x="112" y="449"/>
      <point x="118" y="449" type="curve"/>
    </contour>
    <contour>
      <point x="17" y="250" type="line"/>
      <point x="14" y="237"/>
      <point x="10" y="221"/>
      <point x="6" y="208" type="curve" smooth="yes"/>
      <point x="6" y="205"/>
      <point x="6" y="202"/>
      <point x="7" y="200" type="curve" smooth="yes"/>
      <point x="9" y="198"/>
      <point x="12" y="197"/>
      <point x="15" y="197" type="curve"/>
      <point x="524" y="197" type="line"/>
      <point x="527" y="210"/>
      <point x="531" y="226"/>
      <point x="534" y="239" type="curve" smooth="yes"/>
      <point x="536" y="245"/>
      <point x="532" y="250"/>
      <point x="526" y="250" type="curve"/>
    </contour>
  </outline>
</glyph>
<glyph name="percent" format="1">
  <advance width="600"/>
  <unicode hex="0025"/>
  <outline>
    <contour>
      <point x="275" y="660" type="curve"/>
      <point x="340" y="660"/>
      <point x="359" y="622"/>
      <point x="343" y="558" type="curve" smooth="yes"/>
      <point x="331" y="511" type="line" smooth="yes"/>
      <point x="315" y="446"/>
      <point x="274" y="407"/>
      <point x="214" y="407" type="curve" smooth="yes"/>
      <point x="172" y="407"/>
      <point x="151" y="412"/>
      <point x="131" y="431" type="curve"/>
      <point x="96" y="399"/>
      <point x="140" y="356"/>
      <point x="197" y="356" type="curve" smooth="yes"/>
      <point x="292" y="356"/>
      <point x="361" y="416"/>
      <point x="385" y="510" type="curve" smooth="yes"/>
      <point x="397" y="558" type="line" smooth="yes"/>
      <point x="420" y="649"/>
      <point x="384" y="710"/>
      <point x="292" y="710" type="curve" smooth="yes"/>
      <point x="280" y="710"/>
      <point x="274" y="697"/>
    </contour>
    <contour>
      <point x="214" y="407" type="curve"/>
      <point x="149" y="407"/>
      <point x="130" y="444"/>
      <point x="146" y="508" type="curve" smooth="yes"/>
      <point x="158" y="556" type="line" smooth="yes"/>
      <point x="174" y="620"/>
      <point x="215" y="660"/>
      <point x="275" y="660" type="curve" smooth="yes"/>
      <point x="317" y="660"/>
      <point x="338" y="654"/>
      <point x="358" y="635" type="curve"/>
      <point x="393" y="667"/>
      <point x="349" y="710"/>
      <point x="292" y="710" type="curve" smooth="yes"/>
      <point x="197" y="710"/>
      <point x="128" y="650"/>
      <point x="104" y="556" type="curve" smooth="yes"/>
      <point x="92" y="508" type="line" smooth="yes"/>
      <point x="69" y="417"/>
      <point x="105" y="356"/>
      <point x="197" y="356" type="curve" smooth="yes"/>
      <point x="209" y="356"/>
      <point x="215" y="369"/>
    </contour>
    <contour>
      <point x="429" y="293" type="curve"/>
      <point x="494" y="293"/>
      <point x="514" y="256"/>
      <point x="497" y="192" type="curve" smooth="yes"/>
      <point x="486" y="144" type="line" smooth="yes"/>
      <point x="469" y="80"/>
      <point x="428" y="40"/>
      <point x="369" y="40" type="curve" smooth="yes"/>
      <point x="326" y="40"/>
      <point x="305" y="46"/>
      <point x="285" y="65" type="curve"/>
      <point x="250" y="33"/>
      <point x="294" y="-10"/>
      <point x="351" y="-10" type="curve" smooth="yes"/>
      <point x="446" y="-10"/>
      <point x="516" y="50"/>
      <point x="539" y="144" type="curve" smooth="yes"/>
      <point x="551" y="192" type="line" smooth="yes"/>
      <point x="574" y="283"/>
      <point x="538" y="344"/>
      <point x="446" y="344" type="curve" smooth="yes"/>
      <point x="434" y="344"/>
      <point x="429" y="331"/>
    </contour>
    <contour>
      <point x="369" y="40" type="curve"/>
      <point x="303" y="40"/>
      <point x="284" y="78"/>
      <point x="300" y="142" type="curve" smooth="yes"/>
      <point x="312" y="189" type="line" smooth="yes"/>
      <point x="328" y="254"/>
      <point x="369" y="293"/>
      <point x="429" y="293" type="curve" smooth="yes"/>
      <point x="471" y="293"/>
      <point x="492" y="288"/>
      <point x="513" y="269" type="curve"/>
      <point x="547" y="301"/>
      <point x="504" y="344"/>
      <point x="446" y="344" type="curve" smooth="yes"/>
      <point x="351" y="344"/>
      <point x="282" y="284"/>
      <point x="258" y="190" type="curve" smooth="yes"/>
      <point x="246" y="142" type="line" smooth="yes"/>
      <point x="224" y="51"/>
      <point x="259" y="-10"/>
      <point x="351" y="-10" type="curve" smooth="yes"/>
      <point x="364" y="-10"/>
      <point x="369" y="3"/>
    </contour>
    <contour>
      <point x="406" y="405" type="curve"/>
      <point x="422" y="405"/>
      <point x="438" y="405"/>
      <point x="456" y="405" type="curve" smooth="yes"/>
      <point x="461" y="405"/>
      <point x="463" y="406"/>
      <point x="467" y="412" type="curve" smooth="yes"/>
      <point x="538" y="507"/>
      <point x="610" y="602"/>
      <point x="680" y="697" type="curve" smooth="yes"/>
      <point x="686" y="705"/>
      <point x="683" y="710"/>
      <point x="675" y="710" type="curve" smooth="yes"/>
      <point x="654" y="710"/>
      <point x="632" y="710"/>
      <point x="610" y="710" type="curve"/>
      <point x="542" y="608"/>
      <point x="474" y="507"/>
    </contour>
    <contour>
      <point x="238" y="296" type="curve"/>
      <point x="222" y="296"/>
      <point x="205" y="296"/>
      <point x="188" y="296" type="curve" smooth="yes"/>
      <point x="183" y="296"/>
      <point x="181" y="295"/>
      <point x="176" y="289" type="curve" smooth="yes"/>
      <point x="106" y="194"/>
      <point x="34" y="99"/>
      <point x="-37" y="4" type="curve" smooth="yes"/>
      <point x="-43" y="-4"/>
      <point x="-40" y="-9"/>
      <point x="-32" y="-9" type="curve" smooth="yes"/>
      <point x="-10" y="-9"/>
      <point x="11" y="-9"/>
      <point x="33" y="-9" type="curve"/>
      <point x="102" y="93"/>
      <point x="169" y="194"/>
    </contour>
  </outline>
</glyph>
<glyph name="ampersand" format="1">
  <advance width="600"/>
  <unicode hex="0026"/>
  <outline>
    <contour>
      <point x="411" y="709" type="curve" smooth="yes"/>
      <point x="287" y="709"/>
      <point x="196" y="633"/>
      <point x="176" y="554" type="curve" smooth="yes"/>
      <point x="162" y="497"/>
      <point x="197" y="494"/>
      <point x="217" y="494" type="curve"/>
      <point x="223" y="516"/>
      <point x="226" y="529"/>
      <point x="232" y="553" type="curve" smooth="yes"/>
      <point x="245" y="603"/>
      <point x="315" y="654"/>
      <point x="397" y="654" type="curve" smooth="yes"/>
      <point x="462" y="654"/>
      <point x="501" y="644"/>
      <point x="532" y="626" type="curve"/>
      <point x="544" y="626" type="line"/>
      <point x="548" y="641"/>
      <point x="552" y="657"/>
      <point x="556" y="671" type="curve"/>
      <point x="556" y="674"/>
      <point x="557" y="676"/>
      <point x="555" y="679" type="curve" smooth="yes"/>
      <point x="544" y="693"/>
      <point x="490" y="709"/>
    </contour>
    <contour>
      <point x="255" y="439" type="curve" smooth="yes"/>
      <point x="225" y="507"/>
      <point x="225" y="524"/>
      <point x="232" y="553" type="curve" smooth="yes"/>
      <point x="236" y="569"/>
      <point x="244" y="601"/>
      <point x="251" y="623" type="curve"/>
      <point x="223" y="623"/>
      <point x="185" y="588"/>
      <point x="176" y="554" type="curve" smooth="yes"/>
      <point x="175" y="549" type="line" smooth="yes"/>
      <point x="162" y="498"/>
      <point x="170" y="473"/>
      <point x="207" y="388" type="curve" smooth="yes"/>
      <point x="253" y="286"/>
      <point x="338" y="94"/>
      <point x="354" y="59" type="curve" smooth="yes"/>
      <point x="374" y="15"/>
      <point x="401" y="-10"/>
      <point x="451" y="-10" type="curve" smooth="yes"/>
      <point x="495" y="-10" type="line" smooth="yes"/>
      <point x="503" y="-10"/>
      <point x="507" y="-6"/>
      <point x="509" y="1" type="curve" smooth="yes"/>
      <point x="511" y="12"/>
      <point x="514" y="22"/>
      <point x="520" y="45" type="curve"/>
      <point x="515" y="45" type="line"/>
      <point x="506" y="45"/>
      <point x="478" y="45"/>
      <point x="469" y="45" type="curve" smooth="yes"/>
      <point x="442" y="45"/>
      <point x="426" y="55"/>
      <point x="414" y="80" type="curve" smooth="yes"/>
      <point x="407" y="94"/>
      <point x="320" y="291"/>
    </contour>
    <contour>
      <point x="156" y="-9" type="curve" smooth="yes"/>
      <point x="228" y="-9"/>
      <point x="291" y="16"/>
      <point x="358" y="69" type="curve" smooth="yes"/>
      <point x="368" y="77"/>
      <point x="369" y="83"/>
      <point x="343" y="115" type="curve"/>
      <point x="280" y="63"/>
      <point x="224" y="43"/>
      <point x="172" y="43" type="curve" smooth="yes"/>
      <point x="83" y="43"/>
      <point x="56" y="90"/>
      <point x="73" y="161" type="curve" smooth="yes"/>
      <point x="90" y="228" type="line" smooth="yes"/>
      <point x="109" y="303"/>
      <point x="183" y="356"/>
      <point x="264" y="356" type="curve"/>
      <point x="260" y="390"/>
      <point x="258" y="399"/>
      <point x="229" y="396" type="curve" smooth="yes"/>
      <point x="135" y="386"/>
      <point x="57" y="319"/>
      <point x="34" y="226" type="curve" smooth="yes"/>
      <point x="18" y="160" type="line" smooth="yes"/>
      <point x="-10" y="49"/>
      <point x="38" y="-9"/>
    </contour>
    <contour>
      <point x="560" y="430" type="curve" smooth="yes"/>
      <point x="545" y="430"/>
      <point x="531" y="430"/>
      <point x="516" y="430" type="curve"/>
      <point x="507" y="393"/>
      <point x="500" y="369"/>
      <point x="489" y="324" type="curve" smooth="yes"/>
      <point x="469" y="243"/>
      <point x="429" y="190"/>
      <point x="374" y="139" type="curve" smooth="yes"/>
      <point x="367" y="133"/>
      <point x="362" y="126"/>
      <point x="387" y="94" type="curve"/>
      <point x="463" y="156"/>
      <point x="520" y="228"/>
      <point x="545" y="328" type="curve" smooth="yes"/>
      <point x="568" y="419" type="line" smooth="yes"/>
      <point x="569" y="425"/>
      <point x="567" y="430"/>
    </contour>
  </outline>
</glyph>
<glyph name="quotesingle" format="1">
  <advance width="600"/>
  <unicode hex="0027"/>
  <outline>
    <contour>
      <point x="380" y="450" type="curve"/>
      <point x="474" y="737" type="line" smooth="yes"/>
      <point x="478" y="746"/>
      <point x="474" y="750"/>
      <point x="468" y="750" type="curve" smooth="yes"/>
      <point x="437" y="750"/>
      <point x="403" y="750"/>
      <point x="365" y="750" type="curve"/>
      <point x="359" y="714"/>
      <point x="353" y="683"/>
      <point x="347" y="648" type="curve" smooth="yes"/>
      <point x="315" y="461" type="line" smooth="yes"/>
      <point x="315" y="454"/>
      <point x="319" y="450"/>
      <point x="325" y="450" type="curve" smooth="yes"/>
      <point x="343" y="450"/>
      <point x="362" y="450"/>
    </contour>
  </outline>
</glyph>
<glyph name="parenleft" format="1">
  <advance width="600"/>
  <unicode hex="0028"/>
  <outline>
    <contour>
      <point x="535" y="751" type="curve" smooth="yes"/>
      <point x="385" y="632"/>
      <point x="288" y="473"/>
      <point x="246" y="304" type="curve" smooth="yes"/>
      <point x="244" y="297" type="line" smooth="yes"/>
      <point x="202" y="127"/>
      <point x="219" y="-31"/>
      <point x="309" y="-150" type="curve" smooth="yes"/>
      <point x="312" y="-156"/>
      <point x="319" y="-158"/>
      <point x="327" y="-158" type="curve" smooth="yes"/>
      <point x="344" y="-158"/>
      <point x="358" y="-158"/>
      <point x="375" y="-158" type="curve"/>
      <point x="378" y="-146" type="line"/>
      <point x="282" y="-28"/>
      <point x="258" y="128"/>
      <point x="300" y="297" type="curve" smooth="yes"/>
      <point x="302" y="304" type="line" smooth="yes"/>
      <point x="344" y="473"/>
      <point x="446" y="629"/>
      <point x="601" y="747" type="curve"/>
      <point x="604" y="759" type="line"/>
      <point x="588" y="759"/>
      <point x="573" y="759"/>
      <point x="557" y="759" type="curve" smooth="yes"/>
      <point x="549" y="759"/>
      <point x="540" y="757"/>
    </contour>
  </outline>
</glyph>
<glyph name="parenright" format="1">
  <advance width="600"/>
  <unicode hex="0029"/>
  <outline>
    <contour>
      <point x="84" y="-150" type="curve" smooth="yes"/>
      <point x="234" y="-31"/>
      <point x="330" y="128"/>
      <point x="373" y="297" type="curve" smooth="yes"/>
      <point x="374" y="304" type="line" smooth="yes"/>
      <point x="417" y="474"/>
      <point x="399" y="632"/>
      <point x="309" y="751" type="curve" smooth="yes"/>
      <point x="306" y="757"/>
      <point x="299" y="759"/>
      <point x="291" y="759" type="curve" smooth="yes"/>
      <point x="275" y="759"/>
      <point x="260" y="759"/>
      <point x="243" y="759" type="curve"/>
      <point x="240" y="747" type="line"/>
      <point x="336" y="629"/>
      <point x="361" y="473"/>
      <point x="318" y="304" type="curve" smooth="yes"/>
      <point x="317" y="297" type="line" smooth="yes"/>
      <point x="274" y="128"/>
      <point x="172" y="-28"/>
      <point x="17" y="-146" type="curve"/>
      <point x="14" y="-158" type="line"/>
      <point x="31" y="-158"/>
      <point x="45" y="-158"/>
      <point x="62" y="-158" type="curve" smooth="yes"/>
      <point x="70" y="-158"/>
      <point x="78" y="-156"/>
    </contour>
  </outline>
</glyph>
<glyph name="asterisk" format="1">
  <advance width="600"/>
  <unicode hex="002A"/>
  <outline>
    <contour>
      <point x="337" y="568" type="curve"/>
      <point x="333" y="541"/>
      <point x="329" y="516"/>
      <point x="325" y="489" type="curve" smooth="yes"/>
      <point x="294" y="309" type="line"/>
      <point x="211" y="60" type="line" smooth="yes"/>
      <point x="210" y="54"/>
      <point x="212" y="50"/>
      <point x="219" y="50" type="curve"/>
      <point x="241" y="50"/>
      <point x="262" y="50"/>
      <point x="284" y="50" type="curve"/>
      <point x="289" y="77"/>
      <point x="293" y="102"/>
      <point x="297" y="129" type="curve" smooth="yes"/>
      <point x="327" y="309" type="line"/>
      <point x="410" y="558" type="line" smooth="yes"/>
      <point x="412" y="564"/>
      <point x="410" y="568"/>
      <point x="403" y="568" type="curve" smooth="yes"/>
      <point x="381" y="568"/>
      <point x="360" y="568"/>
    </contour>
    <contour>
      <point x="556" y="471" type="curve"/>
      <point x="306" y="322" type="line"/>
      <point x="53" y="217" type="line" smooth="yes"/>
      <point x="48" y="214"/>
      <point x="43" y="209"/>
      <point x="46" y="202" type="curve"/>
      <point x="52" y="183"/>
      <point x="59" y="165"/>
      <point x="65" y="146" type="curve"/>
      <point x="316" y="294" type="line"/>
      <point x="568" y="400" type="line" smooth="yes"/>
      <point x="574" y="403"/>
      <point x="577" y="408"/>
      <point x="574" y="414" type="curve" smooth="yes"/>
      <point x="569" y="433"/>
      <point x="562" y="452"/>
    </contour>
    <contour>
      <point x="530" y="213" type="curve"/>
      <point x="323" y="323" type="line"/>
      <point x="154" y="466" type="line" smooth="yes"/>
      <point x="149" y="469"/>
      <point x="144" y="468"/>
      <point x="138" y="462" type="curve"/>
      <point x="123" y="443"/>
      <point x="107" y="424"/>
      <point x="91" y="405" type="curve"/>
      <point x="300" y="294" type="line"/>
      <point x="469" y="152" type="line" smooth="yes"/>
      <point x="473" y="148"/>
      <point x="479" y="149"/>
      <point x="483" y="156" type="curve"/>
      <point x="499" y="175"/>
      <point x="515" y="194"/>
    </contour>
  </outline>
</glyph>
<glyph name="plus" format="1">
  <advance width="600"/>
  <unicode hex="002B"/>
  <outline>
    <contour>
      <point x="91" y="328" type="line"/>
      <point x="87" y="313"/>
      <point x="84" y="298"/>
      <point x="80" y="283" type="curve" smooth="yes"/>
      <point x="79" y="280"/>
      <point x="80" y="277"/>
      <point x="81" y="275" type="curve" smooth="yes"/>
      <point x="83" y="273"/>
      <point x="85" y="272"/>
      <point x="88" y="272" type="curve"/>
      <point x="527" y="272" type="line"/>
      <point x="531" y="287"/>
      <point x="535" y="302"/>
      <point x="538" y="317" type="curve" smooth="yes"/>
      <point x="540" y="323"/>
      <point x="536" y="328"/>
      <point x="530" y="328" type="curve"/>
    </contour>
    <contour>
      <point x="280" y="74" type="curve"/>
      <point x="391" y="516" type="line" smooth="yes"/>
      <point x="392" y="519"/>
      <point x="391" y="522"/>
      <point x="390" y="524" type="curve" smooth="yes"/>
      <point x="388" y="526"/>
      <point x="386" y="527"/>
      <point x="383" y="527" type="curve" smooth="yes"/>
      <point x="368" y="527"/>
      <point x="353" y="527"/>
      <point x="338" y="527" type="curve"/>
      <point x="334" y="510"/>
      <point x="325" y="474"/>
      <point x="313" y="427" type="curve" smooth="yes"/>
      <point x="228" y="85" type="line" smooth="yes"/>
      <point x="226" y="79"/>
      <point x="230" y="74"/>
      <point x="236" y="74" type="curve" smooth="yes"/>
      <point x="251" y="74"/>
      <point x="265" y="74"/>
    </contour>
  </outline>
</glyph>
<glyph name="hyphen" format="1">
  <advance width="600"/>
  <unicode hex="002D"/>
  <outline>
    <contour>
      <point x="141" y="328" type="line"/>
      <point x="137" y="313"/>
      <point x="134" y="298"/>
      <point x="130" y="283" type="curve" smooth="yes"/>
      <point x="129" y="280"/>
      <point x="130" y="277"/>
      <point x="131" y="275" type="curve" smooth="yes"/>
      <point x="133" y="273"/>
      <point x="135" y="272"/>
      <point x="138" y="272" type="curve"/>
      <point x="477" y="272" type="line"/>
      <point x="481" y="287"/>
      <point x="484" y="302"/>
      <point x="488" y="317" type="curve" smooth="yes"/>
      <point x="490" y="323"/>
      <point x="486" y="328"/>
      <point x="480" y="328" type="curve"/>
    </contour>
  </outline>
</glyph>
<glyph name="period" format="1">
  <advance width="600"/>
  <unicode hex="002E"/>
  <outline>
    <contour>
      <point x="297" y="-5" type="curve"/>
      <point x="325" y="108" type="line" smooth="yes"/>
      <point x="327" y="114"/>
      <point x="323" y="119"/>
      <point x="317" y="119" type="curve" smooth="yes"/>
      <point x="285" y="119"/>
      <point x="232" y="119"/>
      <point x="200" y="119" type="curve"/>
      <point x="171" y="6" type="line" smooth="yes"/>
      <point x="170" y="0"/>
      <point x="174" y="-5"/>
      <point x="180" y="-5" type="curve" smooth="yes"/>
      <point x="212" y="-5"/>
      <point x="265" y="-5"/>
    </contour>
  </outline>
</glyph>
<glyph name="zero" format="1">
  <advance width="600"/>
  <unicode hex="0030"/>
  <outline>
    <contour>
      <point x="389" y="720" type="curve" smooth="yes"/>
      <point x="252" y="720"/>
      <point x="170" y="649"/>
      <point x="125" y="466" type="curve" smooth="yes"/>
      <point x="75" y="265" type="line" smooth="yes"/>
      <point x="31" y="90"/>
      <point x="107" y="-20"/>
      <point x="254" y="-20" type="curve"/>
      <point x="263" y="-20"/>
      <point x="263" y="-14"/>
      <point x="260" y="30" type="curve"/>
      <point x="145" y="30"/>
      <point x="93" y="107"/>
      <point x="130" y="262" type="curve" smooth="yes"/>
      <point x="177" y="457" type="line" smooth="yes"/>
      <point x="214" y="614"/>
      <point x="281" y="670"/>
      <point x="384" y="670" type="curve" smooth="yes"/>
      <point x="420" y="670"/>
      <point x="460" y="670"/>
      <point x="490" y="670" type="curve"/>
      <point x="495" y="691"/>
      <point x="450" y="720"/>
    </contour>
    <contour>
      <point x="254" y="-20" type="curve" smooth="yes"/>
      <point x="391" y="-20"/>
      <point x="473" y="51"/>
      <point x="519" y="234" type="curve" smooth="yes"/>
      <point x="569" y="435" type="line" smooth="yes"/>
      <point x="612" y="610"/>
      <point x="537" y="720"/>
      <point x="389" y="720" type="curve"/>
      <point x="381" y="720"/>
      <point x="381" y="714"/>
      <point x="384" y="670" type="curve"/>
      <point x="498" y="670"/>
      <point x="551" y="593"/>
      <point x="514" y="438" type="curve" smooth="yes"/>
      <point x="467" y="243" type="line" smooth="yes"/>
      <point x="429" y="86"/>
      <point x="362" y="30"/>
      <point x="259" y="30" type="curve" smooth="yes"/>
      <point x="222" y="30"/>
      <point x="183" y="30"/>
      <point x="153" y="30" type="curve"/>
      <point x="148" y="9"/>
      <point x="194" y="-20"/>
    </contour>
    <contour>
      <point x="105" y="120" type="curve"/>
      <point x="249" y="253"/>
      <point x="394" y="385"/>
      <point x="538" y="518" type="curve"/>
      <point x="556" y="534"/>
      <point x="557" y="572"/>
      <point x="543" y="589" type="curve"/>
      <point x="398" y="456"/>
      <point x="251" y="322"/>
      <point x="107" y="189" type="curve" smooth="yes"/>
      <point x="92" y="176"/>
      <point x="92" y="135"/>
    </contour>
  </outline>
</glyph>
<glyph name="one" format="1">
  <advance width="600"/>
  <unicode hex="0031"/>
  <outline>
    <contour>
      <point x="300" y="12" type="curve"/>
      <point x="358" y="242"/>
      <point x="415" y="471"/>
      <point x="472" y="699" type="curve" smooth="yes"/>
      <point x="474" y="706"/>
      <point x="471" y="710"/>
      <point x="464" y="710" type="curve" smooth="yes"/>
      <point x="419" y="710" type="line"/>
      <point x="363" y="487"/>
      <point x="306" y="258"/>
      <point x="250" y="35" type="curve" smooth="yes"/>
      <point x="246" y="15"/>
      <point x="265" y="12"/>
    </contour>
    <contour>
      <point x="36" y="50" type="line"/>
      <point x="32" y="36"/>
      <point x="30" y="25"/>
      <point x="26" y="11" type="curve" smooth="yes"/>
      <point x="25" y="8"/>
      <point x="25" y="5"/>
      <point x="27" y="3" type="curve" smooth="yes"/>
      <point x="28" y="1"/>
      <point x="31" y="0"/>
      <point x="34" y="0" type="curve" smooth="yes"/>
      <point x="474" y="0" type="line"/>
      <point x="478" y="13"/>
      <point x="481" y="25"/>
      <point x="485" y="39" type="curve" smooth="yes"/>
      <point x="486" y="45"/>
      <point x="482" y="50"/>
      <point x="476" y="50" type="curve" smooth="yes"/>
    </contour>
    <contour>
      <point x="154" y="464" type="curve" smooth="yes"/>
      <point x="166" y="464"/>
      <point x="173" y="466"/>
      <point x="416" y="651" type="curve" smooth="yes"/>
      <point x="428" y="660"/>
      <point x="436" y="668"/>
      <point x="438" y="676" type="curve" smooth="yes"/>
      <point x="442" y="690"/>
      <point x="442" y="710"/>
      <point x="423" y="710" type="curve"/>
      <point x="406" y="710" type="line"/>
      <point x="366" y="680"/>
      <point x="327" y="649"/>
      <point x="287" y="619" type="curve"/>
      <point x="246" y="588"/>
      <point x="205" y="558"/>
      <point x="164" y="527" type="curve"/>
      <point x="150" y="474" type="line" smooth="yes"/>
      <point x="148" y="466"/>
      <point x="150" y="464"/>
    </contour>
  </outline>
</glyph>
<glyph name="three" format="1">
  <advance width="600"/>
  <unicode hex="0033"/>
  <outline>
    <contour>
      <point x="391" y="670" type="curve" smooth="yes"/>
      <point x="502" y="670"/>
      <point x="545" y="613"/>
      <point x="527" y="540" type="curve" smooth="yes"/>
      <point x="521" y="517"/>
      <point x="515" y="492"/>
      <point x="510" y="470" type="curve"/>
      <point x="540" y="470"/>
      <point x="570" y="482"/>
      <point x="579" y="516" type="curve" smooth="yes"/>
      <point x="585" y="539" type="line" smooth="yes"/>
      <point x="607" y="621"/>
      <point x="551" y="720"/>
      <point x="396" y="720" type="curve" smooth="yes"/>
      <point x="303" y="720"/>
      <point x="231" y="691"/>
      <point x="188" y="657" type="curve" smooth="yes"/>
      <point x="186" y="655"/>
      <point x="184" y="653"/>
      <point x="183" y="649" type="curve" smooth="yes"/>
      <point x="177" y="626"/>
      <point x="174" y="611"/>
      <point x="171" y="602" type="curve"/>
      <point x="183" y="602" type="line"/>
      <point x="253" y="650"/>
      <point x="308" y="670"/>
    </contour>
    <contour>
      <point x="203" y="341" type="curve" smooth="yes"/>
      <point x="414" y="341"/>
      <point x="551" y="400"/>
      <point x="579" y="516" type="curve" smooth="yes"/>
      <point x="587" y="548"/>
      <point x="573" y="593"/>
      <point x="540" y="593" type="curve"/>
      <point x="534" y="568"/>
      <point x="529" y="547"/>
      <point x="524" y="528" type="curve" smooth="yes"/>
      <point x="503" y="444"/>
      <point x="398" y="381"/>
      <point x="201" y="381" type="curve"/>
      <point x="199" y="371"/>
      <point x="197" y="361"/>
      <point x="195" y="352" type="curve" smooth="yes"/>
      <point x="193" y="346"/>
      <point x="196" y="341"/>
    </contour>
    <contour>
      <point x="200" y="331" type="curve" smooth="yes"/>
      <point x="373" y="331"/>
      <point x="472" y="285"/>
      <point x="445" y="179" type="curve" smooth="yes"/>
      <point x="439" y="156"/>
      <point x="435" y="136"/>
      <point x="428" y="110" type="curve"/>
      <point x="456" y="110"/>
      <point x="495" y="139"/>
      <point x="505" y="176" type="curve" smooth="yes"/>
      <point x="531" y="282"/>
      <point x="460" y="371"/>
      <point x="199" y="371" type="curve"/>
      <point x="197" y="362"/>
      <point x="194" y="353"/>
      <point x="192" y="342" type="curve" smooth="yes"/>
      <point x="190" y="335"/>
      <point x="193" y="331"/>
    </contour>
    <contour>
      <point x="232" y="30" type="curve" smooth="yes"/>
      <point x="146" y="30"/>
      <point x="97" y="50"/>
      <point x="48" y="101" type="curve"/>
      <point x="36" y="101" type="line"/>
      <point x="33" y="90"/>
      <point x="30" y="81"/>
      <point x="24" y="56" type="curve" smooth="yes"/>
      <point x="23" y="52"/>
      <point x="23" y="50"/>
      <point x="25" y="47" type="curve" smooth="yes"/>
      <point x="51" y="14"/>
      <point x="121" y="-20"/>
      <point x="222" y="-20" type="curve" smooth="yes"/>
      <point x="387" y="-20"/>
      <point x="476" y="59"/>
      <point x="497" y="147" type="curve" smooth="yes"/>
      <point x="505" y="176" type="line" smooth="yes"/>
      <point x="511" y="201"/>
      <point x="487" y="237"/>
      <point x="460" y="237" type="curve"/>
      <point x="454" y="209"/>
      <point x="448" y="187"/>
      <point x="443" y="167" type="curve" smooth="yes"/>
      <point x="424" y="91"/>
      <point x="348" y="30"/>
    </contour>
  </outline>
</glyph>
<glyph name="five" format="1">
  <advance width="600"/>
  <unicode hex="0035"/>
  <outline>
    <contour>
      <point x="271" y="700" type="line"/>
      <point x="268" y="687"/>
      <point x="265" y="675"/>
      <point x="261" y="662" type="curve" smooth="yes"/>
      <point x="261" y="659"/>
      <point x="261" y="656"/>
      <point x="262" y="654" type="curve" smooth="yes"/>
      <point x="264" y="652"/>
      <point x="267" y="651"/>
      <point x="270" y="651" type="curve" smooth="yes"/>
      <point x="599" y="651" type="line"/>
      <point x="601" y="663"/>
      <point x="604" y="676"/>
      <point x="608" y="689" type="curve" smooth="yes"/>
      <point x="609" y="695"/>
      <point x="606" y="700"/>
      <point x="600" y="700" type="curve" smooth="yes"/>
    </contour>
    <contour>
      <point x="157" y="339" type="line"/>
      <point x="300" y="677" type="line" smooth="yes"/>
      <point x="307" y="692"/>
      <point x="301" y="700"/>
      <point x="285" y="700" type="curve" smooth="yes"/>
      <point x="254" y="700" type="line"/>
      <point x="108" y="354" type="line" smooth="yes"/>
      <point x="103" y="344"/>
      <point x="108" y="339"/>
      <point x="114" y="339" type="curve" smooth="yes"/>
    </contour>
    <contour>
      <point x="140" y="378" type="curve"/>
      <point x="133" y="357"/>
      <point x="139" y="339"/>
      <point x="157" y="339" type="curve"/>
      <point x="206" y="359"/>
      <point x="257" y="370"/>
      <point x="314" y="370" type="curve" smooth="yes"/>
      <point x="451" y="370"/>
      <point x="480" y="306"/>
      <point x="456" y="211" type="curve" smooth="yes"/>
      <point x="453" y="196"/>
      <point x="447" y="173"/>
      <point x="443" y="159" type="curve"/>
      <point x="467" y="159"/>
      <point x="508" y="195"/>
      <point x="514" y="223" type="curve" smooth="yes"/>
      <point x="544" y="337"/>
      <point x="473" y="419"/>
      <point x="329" y="419" type="curve" smooth="yes"/>
      <point x="263" y="419"/>
      <point x="217" y="408"/>
    </contour>
    <contour>
      <point x="232" y="-20" type="curve" smooth="yes"/>
      <point x="379" y="-20"/>
      <point x="472" y="45"/>
      <point x="501" y="163" type="curve" smooth="yes"/>
      <point x="514" y="223" type="line" smooth="yes"/>
      <point x="522" y="252"/>
      <point x="507" y="295"/>
      <point x="477" y="294" type="curve"/>
      <point x="471" y="271"/>
      <point x="465" y="247"/>
      <point x="457" y="213" type="curve" smooth="yes"/>
      <point x="448" y="177" type="line" smooth="yes"/>
      <point x="424" y="77"/>
      <point x="347" y="30"/>
      <point x="241" y="30" type="curve" smooth="yes"/>
      <point x="143" y="30"/>
      <point x="97" y="48"/>
      <point x="49" y="99" type="curve"/>
      <point x="37" y="99" type="line"/>
      <point x="34" y="89"/>
      <point x="32" y="80"/>
      <point x="25" y="56" type="curve" smooth="yes"/>
      <point x="24" y="52"/>
      <point x="25" y="50"/>
      <point x="26" y="48" type="curve" smooth="yes"/>
      <point x="55" y="10"/>
      <point x="128" y="-20"/>
    </contour>
  </outline>
</glyph>
<glyph name="seven" format="1">
  <advance width="600"/>
  <unicode hex="0037"/>
  <outline>
    <contour>
      <point x="583" y="650" type="line" smooth="yes"/>
      <point x="600" y="650"/>
      <point x="620" y="650"/>
      <point x="638" y="651" type="curve"/>
      <point x="647" y="689" type="line"/>
      <point x="649" y="695"/>
      <point x="645" y="700"/>
      <point x="639" y="700" type="curve"/>
      <point x="187" y="700" type="line"/>
      <point x="180" y="671" type="line" smooth="yes"/>
      <point x="176" y="656"/>
      <point x="185" y="650"/>
      <point x="197" y="650" type="curve" smooth="yes"/>
    </contour>
    <contour>
      <point x="215" y="0" type="line"/>
      <point x="478" y="401"/>
      <point x="635" y="641"/>
      <point x="638" y="651" type="curve" smooth="yes"/>
      <point x="642" y="670"/>
      <point x="623" y="672"/>
      <point x="588" y="672" type="curve"/>
      <point x="348" y="306"/>
      <point x="161" y="16"/>
      <point x="160" y="11" type="curve" smooth="yes"/>
      <point x="158" y="4"/>
      <point x="161" y="0"/>
      <point x="168" y="0" type="curve" smooth="yes"/>
    </contour>
    <contour>
      <point x="193" y="499" type="curve"/>
      <point x="207" y="557"/>
      <point x="223" y="619"/>
      <point x="237" y="678" type="curve"/>
      <point x="242" y="694"/>
      <point x="229" y="700"/>
      <point x="197" y="700" type="curve" smooth="yes"/>
      <point x="187" y="700" type="line"/>
      <point x="171" y="638"/>
      <point x="155" y="573"/>
      <point x="140" y="510" type="curve"/>
      <point x="138" y="504"/>
      <point x="142" y="499"/>
      <point x="148" y="499" type="curve" smooth="yes"/>
      <point x="163" y="499"/>
      <point x="178" y="499"/>
    </contour>
  </outline>
</glyph>
<glyph name="eight" format="1">
  <advance width="600"/>
  <unicode hex="0038"/>
  <outline>
    <contour>
      <point x="376" y="349" type="curve" smooth="yes"/>
      <point x="297" y="380" type="line" smooth="yes"/>
      <point x="208" y="416"/>
      <point x="184" y="477"/>
      <point x="201" y="541" type="curve" smooth="yes"/>
      <point x="205" y="561"/>
      <point x="209" y="574"/>
      <point x="214" y="598" type="curve"/>
      <point x="187" y="598"/>
      <point x="152" y="568"/>
      <point x="144" y="537" type="curve" smooth="yes"/>
      <point x="124" y="458"/>
      <point x="161" y="386"/>
      <point x="273" y="340" type="curve" smooth="yes"/>
      <point x="353" y="308" type="line" smooth="yes"/>
      <point x="440" y="272"/>
      <point x="467" y="215"/>
      <point x="454" y="160" type="curve" smooth="yes"/>
      <point x="445" y="123"/>
      <point x="440" y="107"/>
      <point x="438" y="99" type="curve"/>
      <point x="462" y="106"/>
      <point x="505" y="144"/>
      <point x="510" y="167" type="curve"/>
      <point x="527" y="236"/>
      <point x="484" y="306"/>
    </contour>
    <contour>
      <point x="245" y="-20" type="curve" smooth="yes"/>
      <point x="391" y="-20"/>
      <point x="479" y="43"/>
      <point x="504" y="143" type="curve" smooth="yes"/>
      <point x="510" y="167" type="line" smooth="yes"/>
      <point x="514" y="189"/>
      <point x="497" y="206"/>
      <point x="467" y="209" type="curve"/>
      <point x="464" y="200"/>
      <point x="460" y="183"/>
      <point x="451" y="148" type="curve" smooth="yes"/>
      <point x="432" y="71"/>
      <point x="367" y="29"/>
      <point x="252" y="29" type="curve" smooth="yes"/>
      <point x="211" y="29"/>
      <point x="171" y="29"/>
      <point x="153" y="29" type="curve"/>
      <point x="146" y="4"/>
      <point x="202" y="-20"/>
    </contour>
    <contour>
      <point x="404" y="720" type="curve" smooth="yes"/>
      <point x="273" y="720"/>
      <point x="175" y="666"/>
      <point x="150" y="562" type="curve" smooth="yes"/>
      <point x="144" y="537" type="line" smooth="yes"/>
      <point x="136" y="502"/>
      <point x="150" y="481"/>
      <point x="186" y="481" type="curve"/>
      <point x="192" y="507"/>
      <point x="197" y="526"/>
      <point x="204" y="554" type="curve" smooth="yes"/>
      <point x="222" y="630"/>
      <point x="293" y="671"/>
      <point x="387" y="671" type="curve" smooth="yes"/>
      <point x="424" y="671"/>
      <point x="468" y="671"/>
      <point x="489" y="671" type="curve"/>
      <point x="496" y="699"/>
      <point x="454" y="720"/>
    </contour>
    <contour>
      <point x="349" y="343" type="curve" smooth="yes"/>
      <point x="439" y="343"/>
      <point x="556" y="416"/>
      <point x="580" y="502" type="curve" smooth="yes"/>
      <point x="586" y="528" type="line" smooth="yes"/>
      <point x="616" y="632"/>
      <point x="538" y="720"/>
      <point x="404" y="720" type="curve" smooth="yes"/>
      <point x="387" y="720"/>
      <point x="384" y="710"/>
      <point x="387" y="671" type="curve"/>
      <point x="503" y="671"/>
      <point x="554" y="613"/>
      <point x="529" y="522" type="curve" smooth="yes"/>
      <point x="526" y="510" type="line" smooth="yes"/>
      <point x="507" y="439"/>
      <point x="435" y="400"/>
      <point x="310" y="361" type="curve"/>
      <point x="312" y="350"/>
      <point x="327" y="343"/>
    </contour>
    <contour>
      <point x="252" y="29" type="curve"/>
      <point x="118" y="29"/>
      <point x="79" y="100"/>
      <point x="96" y="177" type="curve" smooth="yes"/>
      <point x="99" y="190" type="line" smooth="yes"/>
      <point x="117" y="266"/>
      <point x="198" y="312"/>
      <point x="313" y="331" type="curve"/>
      <point x="311" y="344"/>
      <point x="298" y="357"/>
      <point x="284" y="357" type="curve" smooth="yes"/>
      <point x="178" y="357"/>
      <point x="75" y="293"/>
      <point x="49" y="199" type="curve" smooth="yes"/>
      <point x="42" y="173" type="line" smooth="yes"/>
      <point x="15" y="75"/>
      <point x="83" y="-20"/>
      <point x="245" y="-20" type="curve" smooth="yes"/>
      <point x="246" y="-20"/>
      <point x="262" y="3"/>
    </contour>
  </outline>
</glyph>
<glyph name="nine" format="1">
  <advance width="600"/>
  <unicode hex="0039"/>
  <outline>
    <contour>
      <point x="479" y="671" type="curve"/>
      <point x="486" y="699"/>
      <point x="450" y="720"/>
      <point x="382" y="720" type="curve"/>
      <point x="238" y="720"/>
      <point x="170" y="643"/>
      <point x="140" y="526" type="curve" smooth="yes"/>
      <point x="124" y="464" type="line" smooth="yes"/>
      <point x="114" y="427"/>
      <point x="133" y="400"/>
      <point x="164" y="400" type="curve"/>
      <point x="168" y="419"/>
      <point x="173" y="436"/>
      <point x="180" y="463" type="curve" smooth="yes"/>
      <point x="194" y="522" type="line" smooth="yes"/>
      <point x="219" y="620"/>
      <point x="274" y="671"/>
      <point x="382" y="671" type="curve" smooth="yes"/>
      <point x="425" y="671"/>
      <point x="456" y="671"/>
    </contour>
    <contour>
      <point x="305" y="30" type="curve"/>
      <point x="281" y="30"/>
      <point x="262" y="30"/>
      <point x="225" y="30" type="curve" smooth="yes"/>
      <point x="156" y="30"/>
      <point x="110" y="42"/>
      <point x="67" y="82" type="curve"/>
      <point x="56" y="82" type="line"/>
      <point x="53" y="72"/>
      <point x="51" y="62"/>
      <point x="45" y="39" type="curve" smooth="yes"/>
      <point x="44" y="35"/>
      <point x="44" y="33"/>
      <point x="46" y="30" type="curve" smooth="yes"/>
      <point x="69" y="2"/>
      <point x="138" y="-20"/>
      <point x="219" y="-20" type="curve" smooth="yes"/>
      <point x="280" y="-20"/>
      <point x="298" y="1"/>
    </contour>
    <contour>
      <point x="526" y="254" type="curve" smooth="yes"/>
      <point x="564" y="405" type="line" smooth="yes"/>
      <point x="616" y="612"/>
      <point x="547" y="720"/>
      <point x="382" y="720" type="curve" smooth="yes"/>
      <point x="373" y="720"/>
      <point x="373" y="701"/>
      <point x="382" y="671" type="curve"/>
      <point x="502" y="671"/>
      <point x="557" y="596"/>
      <point x="510" y="413" type="curve" smooth="yes"/>
      <point x="472" y="261" type="line" smooth="yes"/>
      <point x="430" y="97"/>
      <point x="359" y="30"/>
      <point x="225" y="30" type="curve"/>
      <point x="205" y="-3"/>
      <point x="218" y="-20"/>
      <point x="219" y="-20" type="curve" smooth="yes"/>
      <point x="392" y="-20"/>
      <point x="479" y="66"/>
    </contour>
    <contour>
      <point x="296" y="272" type="curve" smooth="yes"/>
      <point x="374" y="272"/>
      <point x="449" y="300"/>
      <point x="491" y="334" type="curve" smooth="yes"/>
      <point x="499" y="341"/>
      <point x="509" y="361"/>
      <point x="517" y="394" type="curve"/>
      <point x="445" y="343"/>
      <point x="382" y="321"/>
      <point x="310" y="321" type="curve" smooth="yes"/>
      <point x="198" y="321"/>
      <point x="158" y="379"/>
      <point x="180" y="463" type="curve" smooth="yes"/>
      <point x="181" y="471"/>
      <point x="185" y="486"/>
      <point x="186" y="493" type="curve"/>
      <point x="144" y="488"/>
      <point x="128" y="481"/>
      <point x="124" y="464" type="curve" smooth="yes"/>
      <point x="97" y="352"/>
      <point x="161" y="272"/>
    </contour>
  </outline>
</glyph>
<glyph name="colon" format="1">
  <advance width="600"/>
  <unicode hex="003A"/>
  <outline>
    <contour>
      <point x="400" y="408" type="curve"/>
      <point x="429" y="521" type="line" smooth="yes"/>
      <point x="430" y="527"/>
      <point x="426" y="532"/>
      <point x="420" y="532" type="curve" smooth="yes"/>
      <point x="388" y="532"/>
      <point x="335" y="532"/>
      <point x="303" y="532" type="curve"/>
      <point x="275" y="419" type="line" smooth="yes"/>
      <point x="273" y="413"/>
      <point x="277" y="408"/>
      <point x="283" y="408" type="curve" smooth="yes"/>
      <point x="315" y="408"/>
      <point x="368" y="408"/>
    </contour>
    <contour>
      <point x="297" y="-5" type="curve"/>
      <point x="325" y="108" type="line" smooth="yes"/>
      <point x="327" y="114"/>
      <point x="323" y="119"/>
      <point x="317" y="119" type="curve" smooth="yes"/>
      <point x="285" y="119"/>
      <point x="232" y="119"/>
      <point x="200" y="119" type="curve"/>
      <point x="171" y="6" type="line" smooth="yes"/>
      <point x="170" y="0"/>
      <point x="174" y="-5"/>
      <point x="180" y="-5" type="curve" smooth="yes"/>
      <point x="212" y="-5"/>
      <point x="265" y="-5"/>
    </contour>
  </outline>
</glyph>
<glyph name="semicolon" format="1">
  <advance width="600"/>
  <unicode hex="003B"/>
  <outline>
    <contour>
      <point x="400" y="408" type="curve"/>
      <point x="429" y="521" type="line" smooth="yes"/>
      <point x="430" y="527"/>
      <point x="426" y="532"/>
      <point x="420" y="532" type="curve" smooth="yes"/>
      <point x="388" y="532"/>
      <point x="335" y="532"/>
      <point x="303" y="532" type="curve"/>
      <point x="275" y="419" type="line" smooth="yes"/>
      <point x="273" y="413"/>
      <point x="277" y="408"/>
      <point x="283" y="408" type="curve" smooth="yes"/>
      <point x="315" y="408"/>
      <point x="368" y="408"/>
    </contour>
    <contour>
      <point x="147" y="-193" type="curve" smooth="yes"/>
      <point x="152" y="-193"/>
      <point x="155" y="-192"/>
      <point x="158" y="-186" type="curve"/>
      <point x="223" y="-92"/>
      <point x="287" y="4"/>
      <point x="351" y="97" type="curve"/>
      <point x="356" y="105"/>
      <point x="354" y="110"/>
      <point x="346" y="110" type="curve" smooth="yes"/>
      <point x="309" y="110"/>
      <point x="288" y="110"/>
      <point x="245" y="110" type="curve"/>
      <point x="196" y="9"/>
      <point x="146" y="-92"/>
      <point x="97" y="-193" type="curve"/>
      <point x="111" y="-193"/>
      <point x="125" y="-193"/>
    </contour>
  </outline>
</glyph>
<glyph name="equal" format="1">
  <advance width="600"/>
  <unicode hex="003D"/>
  <outline>
    <contour>
      <point x="122" y="453" type="line"/>
      <point x="119" y="438"/>
      <point x="115" y="424"/>
      <point x="111" y="409" type="curve" smooth="yes"/>
      <point x="111" y="406"/>
      <point x="111" y="403"/>
      <point x="112" y="401" type="curve" smooth="yes"/>
      <point x="114" y="399"/>
      <point x="117" y="398"/>
      <point x="120" y="398" type="curve"/>
      <point x="558" y="398" type="line"/>
      <point x="562" y="413"/>
      <point x="566" y="427"/>
      <point x="569" y="442" type="curve" smooth="yes"/>
      <point x="571" y="448"/>
      <point x="567" y="453"/>
      <point x="561" y="453" type="curve"/>
    </contour>
    <contour>
      <point x="496" y="147" type="line"/>
      <point x="500" y="162"/>
      <point x="503" y="176"/>
      <point x="507" y="191" type="curve" smooth="yes"/>
      <point x="508" y="194"/>
      <point x="507" y="197"/>
      <point x="506" y="199" type="curve" smooth="yes"/>
      <point x="504" y="201"/>
      <point x="502" y="202"/>
      <point x="499" y="202" type="curve"/>
      <point x="60" y="202" type="line"/>
      <point x="56" y="187"/>
      <point x="53" y="173"/>
      <point x="49" y="158" type="curve" smooth="yes"/>
      <point x="47" y="152"/>
      <point x="51" y="147"/>
      <point x="57" y="147" type="curve"/>
    </contour>
  </outline>
</glyph>
<glyph name="greater" format="1">
  <advance width="600"/>
  <unicode hex="003E"/>
  <outline>
    <contour>
      <point x="36" y="87" type="curve"/>
      <point x="24" y="38" type="line"/>
      <point x="23" y="34"/>
      <point x="24" y="31"/>
      <point x="28" y="31" type="curve" smooth="yes"/>
      <point x="32" y="31"/>
      <point x="35" y="32"/>
      <point x="50" y="39" type="curve" smooth="yes"/>
      <point x="97" y="61"/>
      <point x="362" y="185"/>
      <point x="519" y="258" type="curve"/>
      <point x="536" y="329" type="line"/>
      <point x="527" y="319"/>
      <point x="520" y="314"/>
      <point x="500" y="305" type="curve"/>
      <point x="346" y="232"/>
      <point x="191" y="160"/>
    </contour>
    <contour>
      <point x="159" y="579" type="curve"/>
      <point x="155" y="561"/>
      <point x="150" y="545"/>
      <point x="146" y="527" type="curve" smooth="yes"/>
      <point x="144" y="519"/>
      <point x="144" y="516"/>
      <point x="150" y="512" type="curve" smooth="yes"/>
      <point x="257" y="446"/>
      <point x="362" y="382"/>
      <point x="472" y="314" type="curve" smooth="yes"/>
      <point x="477" y="311"/>
      <point x="476" y="309"/>
      <point x="475" y="304" type="curve" smooth="yes"/>
      <point x="471" y="289"/>
      <point x="467" y="271"/>
      <point x="462" y="253" type="curve"/>
      <point x="504" y="257"/>
      <point x="529" y="299"/>
      <point x="535" y="324" type="curve" smooth="yes"/>
      <point x="538" y="334" type="line" smooth="yes"/>
      <point x="540" y="343"/>
      <point x="539" y="347"/>
      <point x="531" y="352" type="curve" smooth="yes"/>
      <point x="408" y="427"/>
      <point x="283" y="503"/>
    </contour>
  </outline>
</glyph>
<glyph name="at" format="1">
  <advance width="600"/>
  <unicode hex="0040"/>
  <outline>
    <contour>
      <point x="538" y="512" type="curve" smooth="yes"/>
      <point x="528" y="526"/>
      <point x="494" y="536"/>
      <point x="453" y="536" type="curve" smooth="yes"/>
      <point x="413" y="536"/>
      <point x="381" y="526"/>
      <point x="352" y="504" type="curve" smooth="yes"/>
      <point x="336" y="490"/>
      <point x="330" y="475"/>
      <point x="346" y="405" type="curve"/>
      <point x="361" y="467"/>
      <point x="397" y="485"/>
      <point x="450" y="485" type="curve" smooth="yes"/>
      <point x="476" y="485"/>
      <point x="499" y="482"/>
      <point x="528" y="473" type="curve"/>
      <point x="544" y="490"/>
      <point x="546" y="501"/>
    </contour>
    <contour>
      <point x="461" y="166" type="curve"/>
      <point x="409" y="112"/>
      <point x="359" y="83"/>
      <point x="319" y="83" type="curve" smooth="yes"/>
      <point x="287" y="83"/>
      <point x="271" y="107"/>
      <point x="280" y="141" type="curve" smooth="yes"/>
      <point x="346" y="405" type="line" smooth="yes"/>
      <point x="357" y="448"/>
      <point x="372" y="472"/>
      <point x="410" y="509" type="curve"/>
      <point x="384" y="520"/>
      <point x="371" y="519"/>
      <point x="352" y="504" type="curve" smooth="yes"/>
      <point x="321" y="479"/>
      <point x="302" y="445"/>
      <point x="290" y="398" type="curve" smooth="yes"/>
      <point x="225" y="140" type="line" smooth="yes"/>
      <point x="208" y="72"/>
      <point x="235" y="29"/>
      <point x="293" y="29" type="curve" smooth="yes"/>
      <point x="339" y="29"/>
      <point x="375" y="46"/>
      <point x="438" y="97" type="curve" smooth="yes"/>
      <point x="445" y="103"/>
      <point x="447" y="111"/>
    </contour>
    <contour>
      <point x="463" y="39" type="line"/>
      <point x="472" y="74"/>
      <point x="481" y="108"/>
      <point x="489" y="143" type="curve"/>
      <point x="590" y="546" type="line" smooth="yes"/>
      <point x="615" y="646"/>
      <point x="602" y="760"/>
      <point x="432" y="760" type="curve" smooth="yes"/>
      <point x="422" y="760"/>
      <point x="418" y="753"/>
      <point x="423" y="708" type="curve"/>
      <point x="501" y="708"/>
      <point x="569" y="677"/>
      <point x="533" y="532" type="curve" smooth="yes"/>
      <point x="427" y="110" type="line" smooth="yes"/>
      <point x="426" y="104"/>
      <point x="427" y="39"/>
      <point x="432" y="39" type="curve" smooth="yes"/>
    </contour>
    <contour>
      <point x="136" y="487" type="curve" smooth="yes"/>
      <point x="37" y="89" type="line" smooth="yes"/>
      <point x="11" y="-13"/>
      <point x="11" y="-72"/>
      <point x="52" y="-127" type="curve" smooth="yes"/>
      <point x="71" y="-152"/>
      <point x="150" y="-169"/>
      <point x="218" y="-138" type="curve"/>
      <point x="65" y="-138"/>
      <point x="65" y="-8"/>
      <point x="88" y="82" type="curve" smooth="yes"/>
      <point x="186" y="473" type="line" smooth="yes"/>
      <point x="224" y="628"/>
      <point x="304" y="708"/>
      <point x="423" y="708" type="curve" smooth="yes"/>
      <point x="491" y="708"/>
      <point x="537" y="682"/>
      <point x="555" y="648" type="curve"/>
      <point x="564" y="651"/>
      <point x="568" y="660"/>
      <point x="570" y="669" type="curve" smooth="yes"/>
      <point x="581" y="712"/>
      <point x="507" y="760"/>
      <point x="432" y="760" type="curve" smooth="yes"/>
      <point x="290" y="760"/>
      <point x="179" y="656"/>
    </contour>
    <contour>
      <point x="204" y="-190" type="curve" smooth="yes"/>
      <point x="269" y="-190"/>
      <point x="330" y="-174"/>
      <point x="351" y="-157" type="curve" smooth="yes"/>
      <point x="353" y="-155"/>
      <point x="355" y="-152"/>
      <point x="356" y="-149" type="curve" smooth="yes"/>
      <point x="366" y="-110" type="line"/>
      <point x="350" y="-110" type="line"/>
      <point x="306" y="-130"/>
      <point x="268" y="-138"/>
      <point x="218" y="-138" type="curve" smooth="yes"/>
      <point x="145" y="-138"/>
      <point x="101" y="-110"/>
      <point x="69" y="-53" type="curve"/>
      <point x="47" y="-73"/>
      <point x="35" y="-104"/>
      <point x="52" y="-127" type="curve"/>
      <point x="79" y="-162"/>
      <point x="135" y="-190"/>
    </contour>
  </outline>
</glyph>
<glyph name="B" format="1">
  <advance width="600"/>
  <unicode hex="0042"/>
  <outline>
    <contour>
      <point x="90" y="6" type="curve"/>
      <point x="257" y="675" type="line" smooth="yes"/>
      <point x="260" y="685"/>
      <point x="250" y="688"/>
      <point x="205" y="688" type="curve"/>
      <point x="36" y="11" type="line"/>
      <point x="35" y="9"/>
      <point x="57" y="6"/>
    </contour>
    <contour>
      <point x="139" y="700" type="curve"/>
      <point x="136" y="687"/>
      <point x="133" y="675"/>
      <point x="130" y="661" type="curve" smooth="yes"/>
      <point x="129" y="657"/>
      <point x="129" y="654"/>
      <point x="131" y="652" type="curve" smooth="yes"/>
      <point x="133" y="650"/>
      <point x="135" y="650"/>
      <point x="138" y="650" type="curve" smooth="yes"/>
      <point x="155" y="650"/>
      <point x="176" y="650"/>
      <point x="201" y="650" type="curve" smooth="yes"/>
      <point x="257" y="650"/>
      <point x="350" y="650"/>
      <point x="407" y="650" type="curve" smooth="yes"/>
      <point x="457" y="650"/>
      <point x="469" y="650"/>
      <point x="503" y="650" type="curve"/>
      <point x="509" y="673"/>
      <point x="495" y="700"/>
      <point x="418" y="700" type="curve" smooth="yes"/>
      <point x="326" y="700"/>
      <point x="231" y="700"/>
    </contour>
    <contour>
      <point x="572" y="508" type="curve" smooth="yes"/>
      <point x="578" y="533" type="line" smooth="yes"/>
      <point x="602" y="631"/>
      <point x="558" y="700"/>
      <point x="418" y="700" type="curve" smooth="yes"/>
      <point x="409" y="700"/>
      <point x="402" y="692"/>
      <point x="407" y="650" type="curve"/>
      <point x="513" y="650"/>
      <point x="540" y="605"/>
      <point x="522" y="534" type="curve" smooth="yes"/>
      <point x="515" y="506" type="line" smooth="yes"/>
      <point x="496" y="430"/>
      <point x="453" y="379"/>
      <point x="306" y="379" type="curve" smooth="yes"/>
      <point x="259" y="379"/>
      <point x="211" y="379"/>
      <point x="164" y="379" type="curve"/>
      <point x="161" y="371"/>
      <point x="159" y="361"/>
      <point x="158" y="354" type="curve" smooth="yes"/>
      <point x="156" y="347"/>
      <point x="159" y="343"/>
      <point x="166" y="343" type="curve" smooth="yes"/>
      <point x="307" y="343" type="line" smooth="yes"/>
      <point x="466" y="343"/>
      <point x="543" y="391"/>
    </contour>
    <contour>
      <point x="500" y="166" type="curve" smooth="yes"/>
      <point x="507" y="195" type="line" smooth="yes"/>
      <point x="534" y="300"/>
      <point x="470" y="370"/>
      <point x="301" y="370" type="curve" smooth="yes"/>
      <point x="173" y="370" type="line" smooth="yes"/>
      <point x="166" y="370"/>
      <point x="160" y="365"/>
      <point x="159" y="359" type="curve"/>
      <point x="152" y="333" type="line"/>
      <point x="294" y="333" type="line"/>
      <point x="447" y="333"/>
      <point x="469" y="265"/>
      <point x="453" y="199" type="curve" smooth="yes"/>
      <point x="445" y="167" type="line" smooth="yes"/>
      <point x="423" y="84"/>
      <point x="367" y="50"/>
      <point x="259" y="50" type="curve" smooth="yes"/>
      <point x="200" y="50"/>
      <point x="139" y="50"/>
      <point x="78" y="50" type="curve"/>
      <point x="40" y="20"/>
      <point x="37" y="20"/>
      <point x="36" y="11" type="curve" smooth="yes"/>
      <point x="34" y="4"/>
      <point x="37" y="0"/>
      <point x="44" y="0" type="curve" smooth="yes"/>
      <point x="267" y="0" type="line" smooth="yes"/>
      <point x="382" y="0"/>
      <point x="469" y="45"/>
    </contour>
  </outline>
</glyph>
<glyph name="C" format="1">
  <advance width="600"/>
  <unicode hex="0043"/>
  <outline>
    <contour>
      <point x="432" y="670" type="curve" smooth="yes"/>
      <point x="517" y="670"/>
      <point x="559" y="647"/>
      <point x="586" y="610" type="curve"/>
      <point x="613" y="629"/>
      <point x="618" y="633"/>
      <point x="619" y="640" type="curve" smooth="yes"/>
      <point x="622" y="652"/>
      <point x="622" y="654"/>
      <point x="618" y="659" type="curve" smooth="yes"/>
      <point x="591" y="693"/>
      <point x="527" y="720"/>
      <point x="434" y="720" type="curve" smooth="yes"/>
      <point x="272" y="720"/>
      <point x="167" y="638"/>
      <point x="119" y="446" type="curve" smooth="yes"/>
      <point x="70" y="250" type="line" smooth="yes"/>
      <point x="55" y="191"/>
      <point x="63" y="126"/>
      <point x="97" y="126" type="curve"/>
      <point x="109" y="170"/>
      <point x="116" y="201"/>
      <point x="129" y="249" type="curve" smooth="yes"/>
      <point x="177" y="440" type="line" smooth="yes"/>
      <point x="217" y="602"/>
      <point x="293" y="670"/>
    </contour>
    <contour>
      <point x="275" y="-20" type="curve" smooth="yes"/>
      <point x="356" y="-20"/>
      <point x="420" y="2"/>
      <point x="468" y="40" type="curve" smooth="yes"/>
      <point x="471" y="43"/>
      <point x="473" y="47"/>
      <point x="474" y="51" type="curve" smooth="yes"/>
      <point x="477" y="65"/>
      <point x="483" y="85"/>
      <point x="486" y="99" type="curve"/>
      <point x="474" y="99" type="line"/>
      <point x="407" y="54"/>
      <point x="357" y="30"/>
      <point x="281" y="30" type="curve" smooth="yes"/>
      <point x="151" y="30"/>
      <point x="94" y="114"/>
      <point x="129" y="249" type="curve"/>
      <point x="80" y="259"/>
      <point x="71" y="258"/>
      <point x="70" y="250" type="curve" smooth="yes"/>
      <point x="29" y="85"/>
      <point x="112" y="-20"/>
    </contour>
    <contour>
      <point x="583" y="498" type="curve"/>
      <point x="619" y="640" type="line" smooth="yes"/>
      <point x="622" y="653"/>
      <point x="613" y="658"/>
      <point x="569" y="658" type="curve"/>
      <point x="566" y="646"/>
      <point x="564" y="638"/>
      <point x="562" y="629" type="curve" smooth="yes"/>
      <point x="531" y="509" type="line"/>
      <point x="530" y="505"/>
      <point x="530" y="502"/>
      <point x="532" y="500" type="curve" smooth="yes"/>
      <point x="534" y="498"/>
      <point x="536" y="498"/>
      <point x="539" y="498" type="curve"/>
      <point x="554" y="498"/>
      <point x="569" y="498"/>
    </contour>
    <contour>
      <point x="445" y="711" type="move" name="top"/>
    </contour>
    <contour>
      <point x="268" y="-1" type="move" name="bottom"/>
    </contour>
  </outline>
</glyph>
<glyph name="D" format="1">
  <advance width="600"/>
  <unicode hex="0044"/>
  <outline>
    <contour>
      <point x="91" y="4" type="curve"/>
      <point x="257" y="667" type="line" smooth="yes"/>
      <point x="259" y="675"/>
      <point x="255" y="678"/>
      <point x="202" y="678" type="curve"/>
      <point x="36" y="11" type="line" smooth="yes"/>
      <point x="34" y="3"/>
      <point x="39" y="4"/>
    </contour>
    <contour>
      <point x="139" y="700" type="curve"/>
      <point x="136" y="686"/>
      <point x="134" y="675"/>
      <point x="130" y="661" type="curve"/>
      <point x="129" y="657"/>
      <point x="129" y="654"/>
      <point x="131" y="652" type="curve" smooth="yes"/>
      <point x="133" y="650"/>
      <point x="135" y="650"/>
      <point x="138" y="650" type="curve" smooth="yes"/>
      <point x="155" y="650"/>
      <point x="176" y="650"/>
      <point x="202" y="650" type="curve" smooth="yes"/>
      <point x="242" y="650"/>
      <point x="326" y="650"/>
      <point x="366" y="650" type="curve" smooth="yes"/>
      <point x="420" y="650"/>
      <point x="428" y="650"/>
      <point x="490" y="650" type="curve"/>
      <point x="476" y="678"/>
      <point x="447" y="700"/>
      <point x="380" y="700" type="curve" smooth="yes"/>
      <point x="316" y="700"/>
      <point x="223" y="700"/>
    </contour>
    <contour>
      <point x="525" y="226" type="curve" smooth="yes"/>
      <point x="577" y="434" type="line" smooth="yes"/>
      <point x="630" y="644"/>
      <point x="513" y="700"/>
      <point x="380" y="700" type="curve"/>
      <point x="380" y="700"/>
      <point x="359" y="687"/>
      <point x="366" y="650" type="curve"/>
      <point x="511" y="650"/>
      <point x="559" y="584"/>
      <point x="523" y="446" type="curve" smooth="yes"/>
      <point x="470" y="233" type="line" smooth="yes"/>
      <point x="437" y="104"/>
      <point x="355" y="50"/>
      <point x="218" y="50" type="curve" smooth="yes"/>
      <point x="158" y="50"/>
      <point x="107" y="50"/>
      <point x="52" y="50" type="curve"/>
      <point x="45" y="39"/>
      <point x="41" y="33"/>
      <point x="36" y="11" type="curve" smooth="yes"/>
      <point x="34" y="3"/>
      <point x="38" y="0"/>
      <point x="44" y="0" type="curve" smooth="yes"/>
      <point x="210" y="0" type="line" smooth="yes"/>
      <point x="391" y="0"/>
      <point x="487" y="75"/>
    </contour>
    <contour>
      <point x="394" y="711" type="move" name="top"/>
    </contour>
  </outline>
</glyph>
<glyph name="E" format="1">
  <advance width="600"/>
  <unicode hex="0045"/>
  <outline>
    <contour>
      <point x="139" y="700" type="line"/>
      <point x="135" y="686"/>
      <point x="133" y="675"/>
      <point x="130" y="661" type="curve" smooth="yes"/>
      <point x="129" y="657"/>
      <point x="129" y="654"/>
      <point x="131" y="652" type="curve" smooth="yes"/>
      <point x="133" y="650"/>
      <point x="136" y="650"/>
      <point x="139" y="650" type="curve" smooth="yes"/>
      <point x="627" y="650" type="line"/>
      <point x="631" y="664"/>
      <point x="633" y="675"/>
      <point x="636" y="689" type="curve" smooth="yes"/>
      <point x="637" y="693"/>
      <point x="637" y="696"/>
      <point x="635" y="698" type="curve" smooth="yes"/>
      <point x="633" y="700"/>
      <point x="631" y="700"/>
      <point x="628" y="700" type="curve" smooth="yes"/>
    </contour>
    <contour>
      <point x="96" y="29" type="curve"/>
      <point x="258" y="677" type="line" smooth="yes"/>
      <point x="259" y="683"/>
      <point x="256" y="688"/>
      <point x="205" y="688" type="curve"/>
      <point x="45" y="50" type="line"/>
      <point x="44" y="43"/>
      <point x="46" y="29"/>
    </contour>
    <contour>
      <point x="45" y="50" type="line"/>
      <point x="36" y="11" type="line" smooth="yes"/>
      <point x="34" y="5"/>
      <point x="38" y="0"/>
      <point x="44" y="0" type="curve" smooth="yes"/>
      <point x="464" y="0" type="line"/>
      <point x="468" y="14"/>
      <point x="470" y="23"/>
      <point x="475" y="39" type="curve" smooth="yes"/>
      <point x="477" y="46"/>
      <point x="472" y="50"/>
      <point x="466" y="50" type="curve" smooth="yes"/>
    </contour>
    <contour>
      <point x="151" y="381" type="line"/>
      <point x="139" y="335"/>
      <point x="144" y="331"/>
      <point x="150" y="331" type="curve" smooth="yes"/>
      <point x="497" y="331" type="line"/>
      <point x="501" y="345"/>
      <point x="503" y="356"/>
      <point x="506" y="370" type="curve" smooth="yes"/>
      <point x="507" y="373"/>
      <point x="507" y="376"/>
      <point x="505" y="378" type="curve" smooth="yes"/>
      <point x="504" y="380"/>
      <point x="501" y="381"/>
      <point x="498" y="381" type="curve" smooth="yes"/>
    </contour>
    <contour>
      <point x="412" y="711" type="move" name="top"/>
    </contour>
    <contour>
      <point x="464" y="-1" type="move" name="ogonek"/>
    </contour>
    <contour>
      <point x="254" y="-1" type="move" name="bottom"/>
    </contour>
  </outline>
</glyph>
<glyph name="F" format="1">
  <advance width="600"/>
  <unicode hex="0046"/>
  <outline>
    <contour>
      <point x="113" y="0" type="curve"/>
      <point x="122" y="36"/>
      <point x="130" y="68"/>
      <point x="138" y="98" type="curve" smooth="yes"/>
      <point x="282" y="675" type="line"/>
      <point x="284" y="680"/>
      <point x="277" y="685"/>
      <point x="229" y="685" type="curve"/>
      <point x="60" y="11" type="line" smooth="yes"/>
      <point x="58" y="5"/>
      <point x="62" y="0"/>
      <point x="68" y="0" type="curve" smooth="yes"/>
      <point x="83" y="0"/>
      <point x="98" y="0"/>
    </contour>
    <contour>
      <point x="164" y="700" type="line"/>
      <point x="160" y="686"/>
      <point x="158" y="675"/>
      <point x="154" y="661" type="curve" smooth="yes"/>
      <point x="153" y="657"/>
      <point x="153" y="655"/>
      <point x="155" y="653" type="curve" smooth="yes"/>
      <point x="157" y="651"/>
      <point x="159" y="650"/>
      <point x="162" y="650" type="curve"/>
      <point x="627" y="650" type="line"/>
      <point x="631" y="664"/>
      <point x="633" y="675"/>
      <point x="636" y="689" type="curve" smooth="yes"/>
      <point x="637" y="692"/>
      <point x="637" y="695"/>
      <point x="635" y="697" type="curve" smooth="yes"/>
      <point x="634" y="699"/>
      <point x="631" y="700"/>
      <point x="628" y="700" type="curve"/>
    </contour>
    <contour>
      <point x="170" y="360" type="line"/>
      <point x="158" y="314"/>
      <point x="162" y="310"/>
      <point x="168" y="310" type="curve"/>
      <point x="492" y="310" type="line"/>
      <point x="496" y="324"/>
      <point x="499" y="335"/>
      <point x="502" y="348" type="curve"/>
      <point x="503" y="352"/>
      <point x="503" y="356"/>
      <point x="501" y="358" type="curve" smooth="yes"/>
      <point x="499" y="360"/>
      <point x="497" y="360"/>
      <point x="494" y="360" type="curve"/>
    </contour>
  </outline>
</glyph>
<glyph name="G" format="1">
  <advance width="599"/>
  <unicode hex="0047"/>
  <outline>
    <contour>
      <point x="412" y="670" type="curve" smooth="yes"/>
      <point x="497" y="670"/>
      <point x="549" y="652"/>
      <point x="588" y="603" type="curve"/>
      <point x="607" y="622"/>
      <point x="612" y="629"/>
      <point x="614" y="637" type="curve" smooth="yes"/>
      <point x="617" y="648"/>
      <point x="617" y="651"/>
      <point x="613" y="656" type="curve" smooth="yes"/>
      <point x="585" y="693"/>
      <point x="506" y="720"/>
      <point x="424" y="720" type="curve" smooth="yes"/>
      <point x="256" y="720"/>
      <point x="169" y="647"/>
      <point x="124" y="463" type="curve" smooth="yes"/>
      <point x="65" y="229" type="line" smooth="yes"/>
      <point x="54" y="186"/>
      <point x="71" y="114"/>
      <point x="93" y="113" type="curve"/>
      <point x="103" y="151"/>
      <point x="113" y="190"/>
      <point x="123" y="232" type="curve" smooth="yes"/>
      <point x="181" y="464" type="line" smooth="yes"/>
      <point x="219" y="614"/>
      <point x="281" y="670"/>
    </contour>
    <contour>
      <point x="265" y="30" type="curve" smooth="yes"/>
      <point x="145" y="30"/>
      <point x="93" y="110"/>
      <point x="123" y="232" type="curve"/>
      <point x="89" y="235"/>
      <point x="66" y="234"/>
      <point x="65" y="229" type="curve" smooth="yes"/>
      <point x="33" y="95"/>
      <point x="97" y="-20"/>
      <point x="255" y="-20" type="curve" smooth="yes"/>
      <point x="392" y="-20"/>
      <point x="467" y="54"/>
      <point x="473" y="76" type="curve" smooth="yes"/>
      <point x="531" y="305" type="line" smooth="yes"/>
      <point x="533" y="313"/>
      <point x="509" y="317"/>
      <point x="477" y="317" type="curve"/>
      <point x="457" y="237"/>
      <point x="441" y="172"/>
      <point x="420" y="91" type="curve" smooth="yes"/>
      <point x="420" y="88"/>
      <point x="358" y="30"/>
    </contour>
    <contour>
      <point x="345" y="343" type="line"/>
      <point x="341" y="329"/>
      <point x="339" y="318"/>
      <point x="336" y="304" type="curve" smooth="yes"/>
      <point x="335" y="301"/>
      <point x="335" y="298"/>
      <point x="337" y="296" type="curve" smooth="yes"/>
      <point x="338" y="294"/>
      <point x="341" y="293"/>
      <point x="344" y="293" type="curve"/>
      <point x="574" y="293" type="line"/>
      <point x="583" y="332" type="line" smooth="yes"/>
      <point x="585" y="338"/>
      <point x="581" y="343"/>
      <point x="575" y="343" type="curve" smooth="yes"/>
    </contour>
    <contour>
      <point x="580" y="498" type="curve"/>
      <point x="614" y="637" type="line" smooth="yes"/>
      <point x="617" y="647"/>
      <point x="608" y="653"/>
      <point x="563" y="653" type="curve"/>
      <point x="562" y="647"/>
      <point x="561" y="643"/>
      <point x="559" y="639" type="curve" smooth="yes"/>
      <point x="527" y="509" type="line" smooth="yes"/>
      <point x="526" y="502"/>
      <point x="529" y="498"/>
      <point x="536" y="498" type="curve" smooth="yes"/>
      <point x="551" y="498"/>
      <point x="565" y="498"/>
    </contour>
    <contour>
      <point x="433" y="711" type="move" name="top"/>
    </contour>
    <contour>
      <point x="255" y="-1" type="move" name="bottom"/>
    </contour>
  </outline>
</glyph>
<glyph name="H" format="1">
  <advance width="600"/>
  <unicode hex="0048"/>
  <outline>
    <contour>
      <point x="190" y="700" type="curve"/>
      <point x="182" y="667"/>
      <point x="174" y="634"/>
      <point x="165" y="601" type="curve" smooth="yes"/>
      <point x="18" y="11" type="line" smooth="yes"/>
      <point x="16" y="5"/>
      <point x="20" y="0"/>
      <point x="26" y="0" type="curve" smooth="yes"/>
      <point x="41" y="0"/>
      <point x="56" y="0"/>
      <point x="71" y="0" type="curve"/>
      <point x="243" y="689" type="line" smooth="yes"/>
      <point x="244" y="692"/>
      <point x="244" y="695"/>
      <point x="242" y="697" type="curve" smooth="yes"/>
      <point x="241" y="699"/>
      <point x="238" y="700"/>
      <point x="235" y="700" type="curve" smooth="yes"/>
      <point x="220" y="700"/>
      <point x="205" y="700"/>
    </contour>
    <contour>
      <point x="453" y="0" type="curve"/>
      <point x="461" y="33"/>
      <point x="470" y="67"/>
      <point x="478" y="101" type="curve" smooth="yes"/>
      <point x="625" y="689" type="line" smooth="yes"/>
      <point x="627" y="695"/>
      <point x="623" y="700"/>
      <point x="617" y="700" type="curve" smooth="yes"/>
      <point x="602" y="700"/>
      <point x="587" y="700"/>
      <point x="572" y="700" type="curve"/>
      <point x="400" y="11" type="line" smooth="yes"/>
      <point x="399" y="8"/>
      <point x="399" y="5"/>
      <point x="401" y="3" type="curve" smooth="yes"/>
      <point x="402" y="1"/>
      <point x="405" y="0"/>
      <point x="408" y="0" type="curve" smooth="yes"/>
      <point x="423" y="0"/>
      <point x="438" y="0"/>
    </contour>
    <contour>
      <point x="147" y="382" type="line"/>
      <point x="138" y="343" type="line" smooth="yes"/>
      <point x="137" y="340"/>
      <point x="137" y="337"/>
      <point x="139" y="335" type="curve" smooth="yes"/>
      <point x="140" y="333"/>
      <point x="143" y="332"/>
      <point x="146" y="332" type="curve"/>
      <point x="513" y="332" type="line"/>
      <point x="525" y="380"/>
      <point x="520" y="382"/>
      <point x="514" y="382" type="curve" smooth="yes"/>
    </contour>
    <contour>
      <point x="412" y="711" type="move" name="top"/>
    </contour>
  </outline>
</glyph>
<glyph name="I" format="1">
  <advance width="600"/>
  <unicode hex="0049"/>
  <outline>
    <contour>
      <point x="267" y="22" type="curve"/>
      <point x="429" y="667" type="line" smooth="yes"/>
      <point x="430" y="673"/>
      <point x="427" y="678"/>
      <point x="375" y="678" type="curve"/>
      <point x="214" y="33" type="line" smooth="yes"/>
      <point x="212" y="27"/>
      <point x="216" y="22"/>
    </contour>
    <contour>
      <point x="198" y="700" type="line"/>
      <point x="194" y="686"/>
      <point x="192" y="675"/>
      <point x="189" y="661" type="curve"/>
      <point x="188" y="658"/>
      <point x="188" y="655"/>
      <point x="190" y="653" type="curve" smooth="yes"/>
      <point x="191" y="651"/>
      <point x="194" y="650"/>
      <point x="197" y="650" type="curve" smooth="yes"/>
      <point x="608" y="650" type="line"/>
      <point x="611" y="664"/>
      <point x="614" y="675"/>
      <point x="617" y="689" type="curve" smooth="yes"/>
      <point x="619" y="695"/>
      <point x="615" y="700"/>
      <point x="609" y="700" type="curve" smooth="yes"/>
    </contour>
    <contour>
      <point x="35" y="50" type="line"/>
      <point x="32" y="36"/>
      <point x="29" y="25"/>
      <point x="26" y="11" type="curve"/>
      <point x="25" y="8"/>
      <point x="25" y="5"/>
      <point x="27" y="3" type="curve" smooth="yes"/>
      <point x="28" y="1"/>
      <point x="31" y="0"/>
      <point x="34" y="0" type="curve" smooth="yes"/>
      <point x="445" y="0" type="line"/>
      <point x="448" y="14"/>
      <point x="452" y="26"/>
      <point x="455" y="39" type="curve" smooth="yes"/>
      <point x="456" y="45"/>
      <point x="452" y="50"/>
      <point x="446" y="50" type="curve" smooth="yes"/>
    </contour>
    <contour>
      <point x="412" y="711" type="move" name="top"/>
    </contour>
    <contour>
      <point x="445" y="-1" type="move" name="ogonek"/>
    </contour>
    <contour>
      <point x="234" y="-1" type="move" name="bottom"/>
    </contour>
  </outline>
</glyph>
<glyph name="J" format="1">
  <advance width="600"/>
  <unicode hex="004A"/>
  <outline>
    <contour>
      <point x="247" y="700" type="line"/>
      <point x="243" y="686"/>
      <point x="241" y="675"/>
      <point x="238" y="661" type="curve" smooth="yes"/>
      <point x="237" y="658"/>
      <point x="237" y="655"/>
      <point x="239" y="653" type="curve" smooth="yes"/>
      <point x="240" y="651"/>
      <point x="243" y="650"/>
      <point x="246" y="650" type="curve" smooth="yes"/>
      <point x="548" y="650" type="line"/>
      <point x="556" y="685"/>
      <point x="556" y="700"/>
      <point x="546" y="700" type="curve"/>
    </contour>
    <contour>
      <point x="475" y="207" type="curve" smooth="yes"/>
      <point x="596" y="689" type="line" smooth="yes"/>
      <point x="598" y="696"/>
      <point x="596" y="700"/>
      <point x="588" y="700" type="curve" smooth="yes"/>
      <point x="541" y="700" type="line"/>
      <point x="417" y="205" type="line" smooth="yes"/>
      <point x="404" y="155"/>
      <point x="397" y="127"/>
      <point x="389" y="95" type="curve"/>
      <point x="424" y="95"/>
      <point x="460" y="147"/>
    </contour>
    <contour>
      <point x="213" y="32" type="curve" smooth="yes"/>
      <point x="151" y="32"/>
      <point x="114" y="45"/>
      <point x="74" y="77" type="curve"/>
      <point x="61" y="77" type="line"/>
      <point x="58" y="63"/>
      <point x="56" y="53"/>
      <point x="52" y="40" type="curve"/>
      <point x="50" y="32"/>
      <point x="50" y="29"/>
      <point x="53" y="25" type="curve" smooth="yes"/>
      <point x="70" y="3"/>
      <point x="126" y="-20"/>
      <point x="204" y="-20" type="curve" smooth="yes"/>
      <point x="211" y="-20" type="line" smooth="yes"/>
      <point x="353" y="-20"/>
      <point x="435" y="42"/>
      <point x="475" y="207" type="curve"/>
      <point x="478" y="214"/>
      <point x="475" y="221"/>
      <point x="417" y="205" type="curve"/>
      <point x="387" y="87"/>
      <point x="324" y="32"/>
    </contour>
    <contour>
      <point x="411" y="711" type="move" name="top"/>
    </contour>
  </outline>
</glyph>
<glyph name="K" format="1">
  <advance width="600"/>
  <unicode hex="004B"/>
  <outline>
    <contour>
      <point x="198" y="700" type="curve"/>
      <point x="190" y="667"/>
      <point x="182" y="634"/>
      <point x="173" y="601" type="curve" smooth="yes"/>
      <point x="26" y="11" type="line" smooth="yes"/>
      <point x="24" y="5"/>
      <point x="28" y="0"/>
      <point x="34" y="0" type="curve" smooth="yes"/>
      <point x="49" y="0"/>
      <point x="64" y="0"/>
      <point x="79" y="0" type="curve"/>
      <point x="251" y="689" type="line" smooth="yes"/>
      <point x="252" y="694"/>
      <point x="252" y="696"/>
      <point x="250" y="698" type="curve" smooth="yes"/>
      <point x="248" y="700"/>
      <point x="246" y="700"/>
      <point x="243" y="700" type="curve" smooth="yes"/>
      <point x="228" y="700"/>
      <point x="213" y="700"/>
    </contour>
    <contour>
      <point x="633" y="700" type="curve"/>
      <point x="582" y="700" type="line"/>
      <point x="429" y="548"/>
      <point x="250" y="370"/>
      <point x="108" y="228" type="curve"/>
      <point x="98" y="218"/>
      <point x="94" y="209"/>
      <point x="103" y="162" type="curve"/>
      <point x="280" y="335"/>
      <point x="461" y="513"/>
      <point x="578" y="627" type="curve" smooth="yes"/>
      <point x="635" y="683"/>
      <point x="640" y="690"/>
      <point x="640" y="695" type="curve" smooth="yes"/>
      <point x="640" y="698"/>
      <point x="638" y="700"/>
    </contour>
    <contour>
      <point x="290" y="385" type="line"/>
      <point x="252" y="349"/>
      <point x="252" y="339"/>
      <point x="255" y="331" type="curve" smooth="yes"/>
      <point x="373" y="59" type="line" smooth="yes"/>
      <point x="393" y="13"/>
      <point x="416" y="-1"/>
      <point x="462" y="-1" type="curve" smooth="yes"/>
      <point x="483" y="-1" type="line" smooth="yes"/>
      <point x="490" y="-1"/>
      <point x="495" y="3"/>
      <point x="497" y="10" type="curve" smooth="yes"/>
      <point x="501" y="24"/>
      <point x="504" y="39"/>
      <point x="508" y="53" type="curve"/>
      <point x="498" y="53" type="line"/>
      <point x="493" y="53"/>
      <point x="487" y="53"/>
      <point x="470" y="53" type="curve" smooth="yes"/>
      <point x="442" y="53"/>
      <point x="429" y="61"/>
      <point x="417" y="89" type="curve" smooth="yes"/>
    </contour>
    <contour>
      <point x="258" y="-1" type="move" name="bottom"/>
    </contour>
  </outline>
</glyph>
<glyph name="L" format="1">
  <advance width="600"/>
  <unicode hex="004C"/>
  <outline>
    <contour>
      <point x="86" y="29" type="curve"/>
      <point x="251" y="689" type="line" smooth="yes"/>
      <point x="252" y="692"/>
      <point x="252" y="695"/>
      <point x="250" y="697" type="curve" smooth="yes"/>
      <point x="249" y="699"/>
      <point x="246" y="700"/>
      <point x="243" y="700" type="curve" smooth="yes"/>
      <point x="228" y="700"/>
      <point x="213" y="700"/>
      <point x="198" y="700" type="curve"/>
      <point x="190" y="667"/>
      <point x="182" y="634"/>
      <point x="173" y="601" type="curve" smooth="yes"/>
      <point x="35" y="50" type="line" smooth="yes"/>
      <point x="34" y="44"/>
      <point x="35" y="29"/>
    </contour>
    <contour>
      <point x="35" y="50" type="line"/>
      <point x="26" y="11" type="line" smooth="yes"/>
      <point x="24" y="4"/>
      <point x="27" y="0"/>
      <point x="34" y="0" type="curve" smooth="yes"/>
      <point x="464" y="0" type="line"/>
      <point x="468" y="14"/>
      <point x="470" y="25"/>
      <point x="475" y="39" type="curve" smooth="yes"/>
      <point x="476" y="45"/>
      <point x="472" y="50"/>
      <point x="466" y="50" type="curve" smooth="yes"/>
    </contour>
    <contour>
      <point x="464" y="550" type="move" name="caronslovak"/>
    </contour>
    <contour>
      <point x="229" y="711" type="move" name="top"/>
    </contour>
    <contour>
      <point x="407" y="400" type="move" name="dot"/>
    </contour>
    <contour>
      <point x="243" y="-1" type="move" name="bottom"/>
    </contour>
  </outline>
</glyph>
<glyph name="M" format="1">
  <advance width="600"/>
  <unicode hex="004D"/>
  <outline>
    <contour>
      <point x="62" y="0" type="curve"/>
      <point x="76" y="54"/>
      <point x="89" y="108"/>
      <point x="103" y="162" type="curve" smooth="yes"/>
      <point x="144" y="330"/>
      <point x="195" y="541"/>
      <point x="232" y="689" type="curve" smooth="yes"/>
      <point x="233" y="692"/>
      <point x="233" y="695"/>
      <point x="231" y="697" type="curve" smooth="yes"/>
      <point x="230" y="699"/>
      <point x="227" y="700"/>
      <point x="224" y="700" type="curve" smooth="yes"/>
      <point x="210" y="700"/>
      <point x="195" y="700"/>
      <point x="182" y="700" type="curve"/>
      <point x="174" y="667"/>
      <point x="165" y="633"/>
      <point x="157" y="600" type="curve" smooth="yes"/>
      <point x="10" y="11" type="line" smooth="yes"/>
      <point x="9" y="8"/>
      <point x="9" y="5"/>
      <point x="11" y="3" type="curve" smooth="yes"/>
      <point x="12" y="1"/>
      <point x="15" y="0"/>
      <point x="18" y="0" type="curve" smooth="yes"/>
      <point x="32" y="0"/>
      <point x="47" y="0"/>
    </contour>
    <contour>
      <point x="461" y="0" type="curve"/>
      <point x="470" y="34"/>
      <point x="478" y="68"/>
      <point x="487" y="102" type="curve" smooth="yes"/>
      <point x="633" y="689" type="line" smooth="yes"/>
      <point x="634" y="692"/>
      <point x="634" y="695"/>
      <point x="632" y="697" type="curve" smooth="yes"/>
      <point x="631" y="699"/>
      <point x="628" y="700"/>
      <point x="625" y="700" type="curve" smooth="yes"/>
      <point x="583" y="700" type="line"/>
      <point x="583" y="698"/>
      <point x="582" y="696"/>
      <point x="581" y="693" type="curve" smooth="yes"/>
      <point x="565" y="629"/>
      <point x="487" y="326"/>
      <point x="447" y="162" type="curve" smooth="yes"/>
      <point x="434" y="112"/>
      <point x="421" y="61"/>
      <point x="409" y="11" type="curve" smooth="yes"/>
      <point x="408" y="8"/>
      <point x="408" y="5"/>
      <point x="410" y="3" type="curve" smooth="yes"/>
      <point x="411" y="1"/>
      <point x="414" y="0"/>
      <point x="417" y="0" type="curve"/>
      <point x="432" y="0"/>
      <point x="446" y="0"/>
    </contour>
    <contour>
      <point x="194" y="700" type="line"/>
      <point x="217" y="521"/>
      <point x="239" y="344"/>
      <point x="263" y="166" type="curve"/>
      <point x="264" y="162"/>
      <point x="268" y="159"/>
      <point x="272" y="159" type="curve"/>
      <point x="280" y="159"/>
      <point x="290" y="212"/>
      <point x="302" y="262" type="curve"/>
      <point x="282" y="404"/>
      <point x="266" y="544"/>
      <point x="247" y="687" type="curve"/>
      <point x="245" y="697"/>
      <point x="242" y="700"/>
      <point x="234" y="700" type="curve"/>
    </contour>
    <contour>
      <point x="592" y="700" type="curve" smooth="yes"/>
      <point x="585" y="700"/>
      <point x="575" y="700"/>
      <point x="568" y="700" type="curve"/>
      <point x="477" y="555"/>
      <point x="380" y="404"/>
      <point x="289" y="259" type="curve"/>
      <point x="265" y="218"/>
      <point x="266" y="159"/>
      <point x="272" y="159" type="curve"/>
      <point x="283" y="159" type="line"/>
      <point x="389" y="326"/>
      <point x="496" y="494"/>
      <point x="601" y="660" type="curve"/>
      <point x="613" y="681"/>
      <point x="610" y="700"/>
    </contour>
  </outline>
</glyph>
<glyph name="N" format="1">
  <advance width="600"/>
  <unicode hex="004E"/>
  <outline>
    <contour>
      <point x="70" y="0" type="curve"/>
      <point x="235" y="660" type="line"/>
      <point x="236" y="665"/>
      <point x="241" y="695"/>
      <point x="239" y="697" type="curve" smooth="yes"/>
      <point x="238" y="699"/>
      <point x="235" y="700"/>
      <point x="232" y="700" type="curve"/>
      <point x="221" y="700"/>
      <point x="202" y="700"/>
      <point x="190" y="700" type="curve"/>
      <point x="178" y="653"/>
      <point x="167" y="607"/>
      <point x="155" y="560" type="curve" smooth="yes"/>
      <point x="18" y="11" type="line"/>
      <point x="16" y="5"/>
      <point x="20" y="0"/>
      <point x="26" y="0" type="curve"/>
      <point x="40" y="0"/>
      <point x="55" y="0"/>
    </contour>
    <contour>
      <point x="453" y="0" type="line"/>
      <point x="625" y="689" type="line"/>
      <point x="627" y="695"/>
      <point x="623" y="700"/>
      <point x="617" y="700" type="curve"/>
      <point x="573" y="700" type="line"/>
      <point x="407" y="37" type="line"/>
      <point x="406" y="32"/>
      <point x="402" y="5"/>
      <point x="404" y="3" type="curve" smooth="yes"/>
      <point x="405" y="1"/>
      <point x="408" y="0"/>
      <point x="411" y="0" type="curve"/>
    </contour>
    <contour>
      <point x="232" y="700" type="line"/>
      <point x="221" y="691"/>
      <point x="214" y="678"/>
      <point x="217" y="665" type="curve" smooth="yes"/>
      <point x="271" y="445"/>
      <point x="325" y="226"/>
      <point x="378" y="7" type="curve"/>
      <point x="380" y="2"/>
      <point x="383" y="0"/>
      <point x="390" y="0" type="curve" smooth="yes"/>
      <point x="413" y="0"/>
      <point x="404" y="0"/>
      <point x="425" y="0" type="curve"/>
      <point x="427" y="10"/>
      <point x="427" y="32"/>
      <point x="424" y="49" type="curve"/>
      <point x="371" y="262"/>
      <point x="319" y="477"/>
      <point x="268" y="690" type="curve"/>
      <point x="266" y="698"/>
      <point x="262" y="700"/>
      <point x="254" y="700" type="curve"/>
    </contour>
    <contour>
      <point x="412" y="711" type="move" name="top"/>
    </contour>
    <contour>
      <point x="234" y="-1" type="move" name="bottom"/>
    </contour>
  </outline>
</glyph>
<glyph name="O" format="1">
  <advance width="600"/>
  <unicode hex="004F"/>
  <outline>
    <contour>
      <point x="396" y="720" type="curve" smooth="yes"/>
      <point x="251" y="720"/>
      <point x="162" y="648"/>
      <point x="120" y="478" type="curve" smooth="yes"/>
      <point x="55" y="216" type="line" smooth="yes"/>
      <point x="18" y="69"/>
      <point x="109" y="-20"/>
      <point x="246" y="-20" type="curve" smooth="yes"/>
      <point x="247" y="-20"/>
      <point x="261" y="-8"/>
      <point x="257" y="30" type="curve"/>
      <point x="105" y="30"/>
      <point x="87" y="125"/>
      <point x="111" y="222" type="curve" smooth="yes"/>
      <point x="176" y="479" type="line" smooth="yes"/>
      <point x="203" y="590"/>
      <point x="262" y="670"/>
      <point x="385" y="670" type="curve" smooth="yes"/>
      <point x="421" y="670"/>
      <point x="450" y="670"/>
      <point x="472" y="670" type="curve"/>
      <point x="477" y="690"/>
      <point x="445" y="720"/>
    </contour>
    <contour>
      <point x="246" y="-20" type="curve" smooth="yes"/>
      <point x="380" y="-20"/>
      <point x="478" y="39"/>
      <point x="525" y="227" type="curve" smooth="yes"/>
      <point x="591" y="489" type="line" smooth="yes"/>
      <point x="629" y="643"/>
      <point x="531" y="720"/>
      <point x="396" y="720" type="curve" smooth="yes"/>
      <point x="395" y="720"/>
      <point x="380" y="708"/>
      <point x="385" y="670" type="curve"/>
      <point x="533" y="670"/>
      <point x="560" y="586"/>
      <point x="534" y="484" type="curve" smooth="yes"/>
      <point x="470" y="227" type="line" smooth="yes"/>
      <point x="441" y="113"/>
      <point x="384" y="30"/>
      <point x="257" y="30" type="curve" smooth="yes"/>
      <point x="221" y="30"/>
      <point x="196" y="30"/>
      <point x="174" y="30" type="curve"/>
      <point x="166" y="7"/>
      <point x="205" y="-20"/>
    </contour>
    <contour>
      <point x="412" y="711" type="move" name="top"/>
    </contour>
    <contour>
      <point x="334" y="-1" type="move" name="ogonek"/>
    </contour>
    <contour>
      <point x="234" y="-1" type="move" name="bottom"/>
    </contour>
  </outline>
</glyph>
<glyph name="Q" format="1">
  <advance width="600"/>
  <unicode hex="0051"/>
  <outline>
    <contour>
      <point x="396" y="720" type="curve" smooth="yes"/>
      <point x="251" y="720"/>
      <point x="162" y="648"/>
      <point x="120" y="478" type="curve" smooth="yes"/>
      <point x="55" y="216" type="line" smooth="yes"/>
      <point x="18" y="69"/>
      <point x="109" y="-20"/>
      <point x="246" y="-20" type="curve" smooth="yes"/>
      <point x="247" y="-20"/>
      <point x="261" y="-8"/>
      <point x="257" y="30" type="curve"/>
      <point x="105" y="30"/>
      <point x="87" y="125"/>
      <point x="111" y="222" type="curve" smooth="yes"/>
      <point x="176" y="479" type="line" smooth="yes"/>
      <point x="203" y="590"/>
      <point x="262" y="670"/>
      <point x="385" y="670" type="curve" smooth="yes"/>
      <point x="421" y="670"/>
      <point x="450" y="670"/>
      <point x="472" y="670" type="curve"/>
      <point x="477" y="690"/>
      <point x="445" y="720"/>
    </contour>
    <contour>
      <point x="246" y="-20" type="curve" smooth="yes"/>
      <point x="380" y="-20"/>
      <point x="478" y="39"/>
      <point x="525" y="227" type="curve" smooth="yes"/>
      <point x="591" y="489" type="line" smooth="yes"/>
      <point x="629" y="643"/>
      <point x="531" y="720"/>
      <point x="396" y="720" type="curve" smooth="yes"/>
      <point x="395" y="720"/>
      <point x="380" y="708"/>
      <point x="385" y="670" type="curve"/>
      <point x="533" y="670"/>
      <point x="560" y="586"/>
      <point x="534" y="484" type="curve" smooth="yes"/>
      <point x="470" y="227" type="line" smooth="yes"/>
      <point x="441" y="113"/>
      <point x="384" y="30"/>
      <point x="257" y="30" type="curve" smooth="yes"/>
      <point x="221" y="30"/>
      <point x="196" y="30"/>
      <point x="174" y="30" type="curve"/>
      <point x="166" y="7"/>
      <point x="205" y="-20"/>
    </contour>
    <contour>
      <point x="352" y="34" type="line"/>
      <point x="306" y="12"/>
      <point x="305" y="7"/>
      <point x="308" y="-1" type="curve" smooth="yes"/>
      <point x="355" y="-100" type="line" smooth="yes"/>
      <point x="370" y="-134"/>
      <point x="391" y="-148"/>
      <point x="433" y="-148" type="curve" smooth="yes"/>
      <point x="454" y="-148" type="line" smooth="yes"/>
      <point x="461" y="-148"/>
      <point x="466" y="-144"/>
      <point x="468" y="-137" type="curve" smooth="yes"/>
      <point x="471" y="-123"/>
      <point x="475" y="-109"/>
      <point x="478" y="-95" type="curve"/>
      <point x="469" y="-95" type="line"/>
      <point x="464" y="-95"/>
      <point x="458" y="-95"/>
      <point x="449" y="-95" type="curve" smooth="yes"/>
      <point x="425" y="-95"/>
      <point x="412" y="-89"/>
      <point x="401" y="-65" type="curve" smooth="yes"/>
    </contour>
  </outline>
</glyph>
<glyph name="T" format="1">
  <advance width="600"/>
  <unicode hex="0054"/>
  <outline>
    <contour>
      <point x="168" y="700" type="line"/>
      <point x="165" y="686"/>
      <point x="162" y="675"/>
      <point x="159" y="661" type="curve" smooth="yes"/>
      <point x="158" y="658"/>
      <point x="158" y="655"/>
      <point x="160" y="653" type="curve" smooth="yes"/>
      <point x="161" y="651"/>
      <point x="164" y="650"/>
      <point x="167" y="650" type="curve" smooth="yes"/>
      <point x="637" y="650" type="line"/>
      <point x="641" y="664"/>
      <point x="643" y="675"/>
      <point x="646" y="689" type="curve" smooth="yes"/>
      <point x="648" y="695"/>
      <point x="644" y="700"/>
      <point x="638" y="700" type="curve" smooth="yes"/>
    </contour>
    <contour>
      <point x="262" y="0" type="curve"/>
      <point x="270" y="32"/>
      <point x="278" y="65"/>
      <point x="287" y="100" type="curve" smooth="yes"/>
      <point x="429" y="667" type="line" smooth="yes"/>
      <point x="430" y="673"/>
      <point x="427" y="678"/>
      <point x="375" y="678" type="curve"/>
      <point x="209" y="11" type="line" smooth="yes"/>
      <point x="208" y="7"/>
      <point x="208" y="4"/>
      <point x="210" y="2" type="curve" smooth="yes"/>
      <point x="212" y="0"/>
      <point x="214" y="0"/>
      <point x="217" y="0" type="curve" smooth="yes"/>
      <point x="232" y="0"/>
      <point x="247" y="0"/>
    </contour>
    <contour>
      <point x="412" y="711" type="move" name="top"/>
    </contour>
    <contour>
      <point x="234" y="-1" type="move" name="bottom"/>
    </contour>
  </outline>
</glyph>
<glyph name="U" format="1">
  <advance width="600"/>
  <unicode hex="0055"/>
  <outline>
    <contour>
      <point x="185" y="700" type="curve"/>
      <point x="177" y="667"/>
      <point x="168" y="633"/>
      <point x="160" y="600" type="curve" smooth="yes"/>
      <point x="46" y="145" type="line"/>
      <point x="44" y="135"/>
      <point x="53" y="109"/>
      <point x="93" y="109" type="curve"/>
      <point x="99" y="131"/>
      <point x="100" y="136"/>
      <point x="106" y="159" type="curve" smooth="yes"/>
      <point x="238" y="689" type="line"/>
      <point x="240" y="695"/>
      <point x="236" y="700"/>
      <point x="230" y="700" type="curve"/>
      <point x="215" y="700"/>
      <point x="200" y="700"/>
    </contour>
    <contour>
      <point x="181" y="-19" type="curve" smooth="yes"/>
      <point x="275" y="-19"/>
      <point x="352" y="26"/>
      <point x="426" y="102" type="curve" smooth="yes"/>
      <point x="452" y="127"/>
      <point x="459" y="147"/>
      <point x="465" y="182" type="curve"/>
      <point x="343" y="71"/>
      <point x="278" y="32"/>
      <point x="191" y="32" type="curve" smooth="yes"/>
      <point x="126" y="32"/>
      <point x="86" y="80"/>
      <point x="106" y="159" type="curve"/>
      <point x="56" y="157"/>
      <point x="48" y="153"/>
      <point x="46" y="145" type="curve" smooth="yes"/>
      <point x="25" y="62"/>
      <point x="66" y="-19"/>
    </contour>
    <contour>
      <point x="453" y="0" type="curve"/>
      <point x="461" y="33"/>
      <point x="470" y="67"/>
      <point x="478" y="101" type="curve" smooth="yes"/>
      <point x="625" y="689" type="line" smooth="yes"/>
      <point x="627" y="695"/>
      <point x="623" y="700"/>
      <point x="617" y="700" type="curve" smooth="yes"/>
      <point x="602" y="700"/>
      <point x="587" y="700"/>
      <point x="572" y="700" type="curve"/>
      <point x="400" y="11" type="line" smooth="yes"/>
      <point x="399" y="8"/>
      <point x="399" y="4"/>
      <point x="401" y="2" type="curve" smooth="yes"/>
      <point x="403" y="0"/>
      <point x="405" y="0"/>
      <point x="408" y="0" type="curve" smooth="yes"/>
      <point x="423" y="0"/>
      <point x="438" y="0"/>
    </contour>
    <contour>
      <point x="412" y="711" type="move" name="top"/>
    </contour>
    <contour>
      <point x="453" y="-1" type="move" name="ogonek"/>
    </contour>
    <contour>
      <point x="397" y="665" type="move" name="ring"/>
    </contour>
    <contour>
      <point x="184" y="-1" type="move" name="bottom"/>
    </contour>
  </outline>
</glyph>
<glyph name="V" format="1">
  <advance width="600"/>
  <unicode hex="0056"/>
  <outline>
    <contour>
      <point x="195" y="700" type="curve"/>
      <point x="143" y="700" type="line"/>
      <point x="158" y="467"/>
      <point x="171" y="234"/>
      <point x="185" y="2" type="curve" smooth="yes"/>
      <point x="186" y="-6"/>
      <point x="190" y="-9"/>
      <point x="195" y="-9" type="curve" smooth="yes"/>
      <point x="213" y="-9" type="line" smooth="yes"/>
      <point x="229" y="-9"/>
      <point x="251" y="7"/>
      <point x="276" y="41" type="curve"/>
      <point x="263" y="41"/>
      <point x="256" y="41"/>
      <point x="249" y="41" type="curve" smooth="yes"/>
      <point x="241" y="41"/>
      <point x="240" y="42"/>
      <point x="238" y="54" type="curve"/>
      <point x="227" y="266"/>
      <point x="214" y="481"/>
      <point x="202" y="693" type="curve"/>
      <point x="202" y="699"/>
      <point x="199" y="700"/>
    </contour>
    <contour>
      <point x="667" y="700" type="curve"/>
      <point x="617" y="700" type="line"/>
      <point x="493" y="477"/>
      <point x="368" y="254"/>
      <point x="245" y="32" type="curve"/>
      <point x="229" y="5"/>
      <point x="216" y="-4"/>
      <point x="206" y="-9" type="curve"/>
      <point x="278" y="-9" type="line"/>
      <point x="410" y="223"/>
      <point x="539" y="456"/>
      <point x="670" y="689" type="curve"/>
      <point x="674" y="696"/>
      <point x="673" y="700"/>
    </contour>
  </outline>
</glyph>
<glyph name="W" format="1">
  <advance width="600"/>
  <unicode hex="0057"/>
  <outline>
    <contour>
      <point x="138" y="700" type="curve"/>
      <point x="112" y="467"/>
      <point x="87" y="234"/>
      <point x="61" y="2" type="curve"/>
      <point x="59" y="-6"/>
      <point x="66" y="-9"/>
      <point x="71" y="-9" type="curve"/>
      <point x="89" y="-9" type="line" smooth="yes"/>
      <point x="100" y="-9"/>
      <point x="112" y="1"/>
      <point x="114" y="16" type="curve"/>
      <point x="141" y="241"/>
      <point x="168" y="465"/>
      <point x="196" y="690" type="curve"/>
      <point x="196" y="696"/>
      <point x="195" y="698"/>
      <point x="194" y="699" type="curve" smooth="yes"/>
      <point x="193" y="700"/>
      <point x="192" y="700"/>
      <point x="189" y="700" type="curve"/>
      <point x="172" y="700"/>
      <point x="155" y="700"/>
    </contour>
    <contour>
      <point x="617" y="700" type="curve"/>
      <point x="531" y="474"/>
      <point x="445" y="247"/>
      <point x="358" y="21" type="curve"/>
      <point x="350" y="2"/>
      <point x="343" y="-4"/>
      <point x="333" y="-9" type="curve"/>
      <point x="402" y="-9" type="line"/>
      <point x="493" y="222"/>
      <point x="584" y="456"/>
      <point x="674" y="688" type="curve"/>
      <point x="676" y="693"/>
      <point x="677" y="697"/>
      <point x="675" y="699" type="curve" smooth="yes"/>
      <point x="674" y="700"/>
      <point x="673" y="700"/>
      <point x="669" y="700" type="curve"/>
      <point x="653" y="700"/>
      <point x="634" y="700"/>
    </contour>
    <contour>
      <point x="392" y="598" type="curve"/>
      <point x="352" y="598" type="line"/>
      <point x="269" y="406"/>
      <point x="185" y="213"/>
      <point x="101" y="21" type="curve"/>
      <point x="92" y="2"/>
      <point x="84" y="-1"/>
      <point x="71" y="-9" type="curve"/>
      <point x="140" y="-9" type="line"/>
      <point x="226" y="186"/>
      <point x="311" y="383"/>
      <point x="396" y="578" type="curve"/>
      <point x="403" y="593"/>
      <point x="401" y="598"/>
    </contour>
    <contour>
      <point x="406" y="598" type="curve"/>
      <point x="363" y="598" type="line"/>
      <point x="349" y="400"/>
      <point x="335" y="200"/>
      <point x="322" y="2" type="curve"/>
      <point x="322" y="-6"/>
      <point x="327" y="-9"/>
      <point x="332" y="-9" type="curve"/>
      <point x="349" y="-9" type="line"/>
      <point x="358" y="-9"/>
      <point x="371" y="1"/>
      <point x="372" y="16" type="curve"/>
      <point x="386" y="207"/>
      <point x="400" y="398"/>
      <point x="414" y="588" type="curve"/>
      <point x="414" y="596"/>
      <point x="412" y="598"/>
    </contour>
    <contour>
      <point x="410" y="711" type="move" name="top"/>
    </contour>
  </outline>
</glyph>
<glyph name="X" format="1">
  <advance width="600"/>
  <unicode hex="0058"/>
  <outline>
    <contour>
      <point x="446" y="0" type="curve" smooth="yes"/>
      <point x="464" y="0"/>
      <point x="482" y="0"/>
      <point x="500" y="0" type="curve"/>
      <point x="450" y="122"/>
      <point x="398" y="245"/>
      <point x="351" y="359" type="curve" smooth="yes"/>
      <point x="346" y="373"/>
      <point x="343" y="377"/>
      <point x="337" y="387" type="curve" smooth="yes"/>
      <point x="297" y="484"/>
      <point x="257" y="586"/>
      <point x="215" y="687" type="curve" smooth="yes"/>
      <point x="212" y="694"/>
      <point x="206" y="700"/>
      <point x="197" y="700" type="curve" smooth="yes"/>
      <point x="148" y="700" type="line"/>
      <point x="197" y="582"/>
      <point x="248" y="461"/>
      <point x="294" y="347" type="curve" smooth="yes"/>
      <point x="299" y="337"/>
      <point x="303" y="333"/>
      <point x="308" y="319" type="curve" smooth="yes"/>
      <point x="348" y="222"/>
      <point x="390" y="117"/>
      <point x="432" y="13" type="curve" smooth="yes"/>
      <point x="436" y="6"/>
      <point x="436" y="0"/>
    </contour>
    <contour>
      <point x="659" y="700" type="curve"/>
      <point x="608" y="700" type="line"/>
      <point x="508" y="588"/>
      <point x="407" y="478"/>
      <point x="306" y="366" type="curve"/>
      <point x="288" y="347"/>
      <point x="312" y="331"/>
      <point x="343" y="329" type="curve"/>
      <point x="450" y="446"/>
      <point x="557" y="564"/>
      <point x="663" y="681" type="curve"/>
      <point x="669" y="687"/>
      <point x="670" y="693"/>
      <point x="668" y="697" type="curve" smooth="yes"/>
      <point x="667" y="699"/>
      <point x="663" y="700"/>
    </contour>
    <contour>
      <point x="-21" y="0" type="curve" smooth="yes"/>
      <point x="32" y="0" type="line"/>
      <point x="133" y="112"/>
      <point x="232" y="222"/>
      <point x="333" y="334" type="curve"/>
      <point x="352" y="353"/>
      <point x="328" y="369"/>
      <point x="296" y="371" type="curve"/>
      <point x="189" y="254"/>
      <point x="82" y="136"/>
      <point x="-25" y="19" type="curve"/>
      <point x="-31" y="13"/>
      <point x="-32" y="6"/>
      <point x="-29" y="3" type="curve" smooth="yes"/>
      <point x="-28" y="1"/>
      <point x="-25" y="0"/>
    </contour>
  </outline>
</glyph>
<glyph name="Z" format="1">
  <advance width="600"/>
  <unicode hex="005A"/>
  <outline>
    <contour>
      <point x="199" y="700" type="line"/>
      <point x="196" y="686"/>
      <point x="194" y="675"/>
      <point x="190" y="661" type="curve" smooth="yes"/>
      <point x="189" y="658"/>
      <point x="189" y="655"/>
      <point x="191" y="653" type="curve" smooth="yes"/>
      <point x="192" y="651"/>
      <point x="195" y="650"/>
      <point x="198" y="650" type="curve" smooth="yes"/>
      <point x="570" y="650" type="line" smooth="yes"/>
      <point x="581" y="650"/>
      <point x="604" y="650"/>
      <point x="622" y="651" type="curve" smooth="yes"/>
      <point x="629" y="651"/>
      <point x="635" y="651"/>
      <point x="637" y="651" type="curve"/>
      <point x="646" y="689" type="line" smooth="yes"/>
      <point x="648" y="695"/>
      <point x="644" y="700"/>
      <point x="638" y="700" type="curve" smooth="yes"/>
    </contour>
    <contour>
      <point x="593" y="679" type="curve"/>
      <point x="399" y="473"/>
      <point x="200" y="257"/>
      <point x="5" y="49" type="curve"/>
      <point x="44" y="28"/>
      <point x="54" y="27"/>
      <point x="61" y="33" type="curve" smooth="yes"/>
      <point x="297" y="283"/>
      <point x="637" y="650"/>
      <point x="637" y="651" type="curve"/>
      <point x="614" y="683"/>
      <point x="600" y="686"/>
    </contour>
    <contour>
      <point x="475" y="0" type="line"/>
      <point x="478" y="14"/>
      <point x="481" y="23"/>
      <point x="485" y="39" type="curve" smooth="yes"/>
      <point x="486" y="42"/>
      <point x="486" y="46"/>
      <point x="484" y="48" type="curve" smooth="yes"/>
      <point x="482" y="50"/>
      <point x="479" y="50"/>
      <point x="476" y="50" type="curve" smooth="yes"/>
      <point x="74" y="50" type="line" smooth="yes"/>
      <point x="53" y="50"/>
      <point x="29" y="50"/>
      <point x="5" y="49" type="curve"/>
      <point x="-4" y="11" type="line" smooth="yes"/>
      <point x="-6" y="5"/>
      <point x="-2" y="0"/>
      <point x="4" y="0" type="curve" smooth="yes"/>
    </contour>
    <contour>
      <point x="205" y="548" type="curve"/>
      <point x="215" y="589"/>
      <point x="226" y="631"/>
      <point x="236" y="672" type="curve"/>
      <point x="241" y="693"/>
      <point x="233" y="700"/>
      <point x="214" y="700" type="curve" smooth="yes"/>
      <point x="187" y="700" type="line"/>
      <point x="175" y="653"/>
      <point x="164" y="606"/>
      <point x="152" y="559" type="curve"/>
      <point x="151" y="553"/>
      <point x="155" y="548"/>
      <point x="161" y="548" type="curve" smooth="yes"/>
      <point x="175" y="548"/>
      <point x="190" y="548"/>
    </contour>
    <contour>
      <point x="412" y="711" type="move" name="top"/>
    </contour>
  </outline>
</glyph>
<glyph name="bracketleft" format="1">
  <advance width="600"/>
  <unicode hex="005B"/>
  <outline>
    <contour>
      <point x="302" y="652" type="curve" smooth="yes"/>
      <point x="113" y="-105" type="line" smooth="yes"/>
      <point x="110" y="-115"/>
      <point x="122" y="-116"/>
      <point x="166" y="-116" type="curve"/>
      <point x="382" y="748" type="line" smooth="yes"/>
      <point x="384" y="754"/>
      <point x="377" y="759"/>
      <point x="350" y="759" type="curve" smooth="yes"/>
      <point x="342" y="759"/>
      <point x="337" y="759"/>
      <point x="329" y="759" type="curve"/>
      <point x="320" y="723"/>
      <point x="311" y="688"/>
    </contour>
    <contour>
      <point x="630" y="704" type="line"/>
      <point x="634" y="719"/>
      <point x="638" y="734"/>
      <point x="641" y="748" type="curve" smooth="yes"/>
      <point x="642" y="751"/>
      <point x="642" y="754"/>
      <point x="640" y="756" type="curve" smooth="yes"/>
      <point x="639" y="758"/>
      <point x="636" y="759"/>
      <point x="633" y="759" type="curve" smooth="yes"/>
      <point x="350" y="759" type="line"/>
      <point x="338" y="710"/>
      <point x="342" y="704"/>
      <point x="347" y="704" type="curve"/>
    </contour>
    <contour>
      <point x="414" y="-159" type="line"/>
      <point x="418" y="-144"/>
      <point x="421" y="-131"/>
      <point x="425" y="-115" type="curve" smooth="yes"/>
      <point x="427" y="-109"/>
      <point x="423" y="-104"/>
      <point x="417" y="-104" type="curve" smooth="yes"/>
      <point x="113" y="-104" type="line"/>
      <point x="102" y="-148" type="line" smooth="yes"/>
      <point x="101" y="-154"/>
      <point x="104" y="-159"/>
      <point x="110" y="-159" type="curve" smooth="yes"/>
    </contour>
  </outline>
</glyph>
<glyph name="bracketright" format="1">
  <advance width="600"/>
  <unicode hex="005D"/>
  <outline>
    <contour>
      <point x="316" y="-51" type="curve" smooth="yes"/>
      <point x="506" y="706" type="line" smooth="yes"/>
      <point x="508" y="716"/>
      <point x="496" y="717"/>
      <point x="452" y="717" type="curve"/>
      <point x="236" y="-147" type="line" smooth="yes"/>
      <point x="235" y="-153"/>
      <point x="241" y="-158"/>
      <point x="268" y="-158" type="curve" smooth="yes"/>
      <point x="277" y="-158"/>
      <point x="281" y="-158"/>
      <point x="290" y="-158" type="curve"/>
      <point x="299" y="-122"/>
      <point x="307" y="-87"/>
    </contour>
    <contour>
      <point x="-12" y="-103" type="line"/>
      <point x="-15" y="-118"/>
      <point x="-19" y="-133"/>
      <point x="-23" y="-147" type="curve" smooth="yes"/>
      <point x="-23" y="-150"/>
      <point x="-23" y="-153"/>
      <point x="-22" y="-155" type="curve" smooth="yes"/>
      <point x="-20" y="-157"/>
      <point x="-17" y="-158"/>
      <point x="-14" y="-158" type="curve" smooth="yes"/>
      <point x="268" y="-158" type="line"/>
      <point x="281" y="-109"/>
      <point x="276" y="-103"/>
      <point x="271" y="-103" type="curve"/>
    </contour>
    <contour>
      <point x="204" y="760" type="line"/>
      <point x="200" y="745"/>
      <point x="197" y="732"/>
      <point x="193" y="716" type="curve" smooth="yes"/>
      <point x="192" y="710"/>
      <point x="196" y="705"/>
      <point x="202" y="705" type="curve" smooth="yes"/>
      <point x="506" y="705" type="line"/>
      <point x="517" y="749" type="line" smooth="yes"/>
      <point x="518" y="755"/>
      <point x="514" y="760"/>
      <point x="508" y="760" type="curve" smooth="yes"/>
    </contour>
  </outline>
</glyph>
<glyph name="asciicircum" format="1">
  <advance width="600"/>
  <unicode hex="005E"/>
  <outline>
    <contour>
      <point x="142" y="375" type="line"/>
      <point x="248" y="511"/>
      <point x="304" y="583"/>
      <point x="410" y="720" type="curve"/>
      <point x="424" y="738"/>
      <point x="429" y="743"/>
      <point x="440" y="750" type="curve"/>
      <point x="371" y="750" type="line"/>
      <point x="264" y="612"/>
      <point x="132" y="442"/>
      <point x="100" y="401" type="curve" smooth="yes"/>
      <point x="90" y="388"/>
      <point x="88" y="385"/>
      <point x="87" y="381" type="curve" smooth="yes"/>
      <point x="86" y="377"/>
      <point x="88" y="375"/>
      <point x="92" y="375" type="curve"/>
    </contour>
    <contour>
      <point x="564" y="375" type="curve"/>
      <point x="524" y="518"/>
      <point x="502" y="597"/>
      <point x="462" y="739" type="curve" smooth="yes"/>
      <point x="459" y="748"/>
      <point x="456" y="750"/>
      <point x="448" y="750" type="curve" smooth="yes"/>
      <point x="431" y="750" type="line" smooth="yes"/>
      <point x="404" y="750"/>
      <point x="365" y="732"/>
      <point x="352" y="695" type="curve"/>
      <point x="371" y="695"/>
      <point x="388" y="695"/>
      <point x="403" y="695" type="curve" smooth="yes"/>
      <point x="409" y="695"/>
      <point x="411" y="695"/>
      <point x="412" y="689" type="curve" smooth="yes"/>
      <point x="448" y="563"/>
      <point x="464" y="506"/>
      <point x="499" y="383" type="curve" smooth="yes"/>
      <point x="501" y="376"/>
      <point x="504" y="375"/>
      <point x="512" y="375" type="curve" smooth="yes"/>
      <point x="530" y="375"/>
      <point x="546" y="375"/>
    </contour>
  </outline>
</glyph>
<glyph name="underscore" format="1">
  <advance width="600"/>
  <unicode hex="005F"/>
  <outline>
    <contour>
      <point x="-16" y="-97" type="line"/>
      <point x="-19" y="-112"/>
      <point x="-23" y="-126"/>
      <point x="-27" y="-141" type="curve" smooth="yes"/>
      <point x="-27" y="-144"/>
      <point x="-27" y="-147"/>
      <point x="-26" y="-149" type="curve" smooth="yes"/>
      <point x="-24" y="-151"/>
      <point x="-21" y="-152"/>
      <point x="-18" y="-152" type="curve"/>
      <point x="421" y="-152" type="line"/>
      <point x="425" y="-137"/>
      <point x="429" y="-123"/>
      <point x="432" y="-108" type="curve" smooth="yes"/>
      <point x="434" y="-102"/>
      <point x="430" y="-97"/>
      <point x="424" y="-97" type="curve"/>
    </contour>
  </outline>
</glyph>
<glyph name="grave" format="1">
  <advance width="600"/>
  <unicode hex="0060"/>
  <outline>
    <contour>
      <point x="406" y="419" type="curve"/>
      <point x="407" y="520"/>
      <point x="408" y="619"/>
      <point x="409" y="720" type="curve"/>
      <point x="366" y="720"/>
      <point x="345" y="720"/>
      <point x="308" y="720" type="curve" smooth="yes"/>
      <point x="300" y="720"/>
      <point x="294" y="714"/>
      <point x="295" y="706" type="curve" smooth="yes"/>
      <point x="312" y="614"/>
      <point x="330" y="520"/>
      <point x="348" y="427" type="curve" smooth="yes"/>
      <point x="349" y="420"/>
      <point x="354" y="419"/>
      <point x="359" y="419" type="curve" smooth="yes"/>
      <point x="380" y="419"/>
      <point x="393" y="419"/>
    </contour>
  </outline>
</glyph>
<glyph name="a" format="1">
  <advance width="600"/>
  <unicode hex="0061"/>
  <outline>
    <contour>
      <point x="312" y="537" type="curve" smooth="yes"/>
      <point x="203" y="537"/>
      <point x="128" y="484"/>
      <point x="92" y="338" type="curve" smooth="yes"/>
      <point x="60" y="208" type="line" smooth="yes"/>
      <point x="49" y="163"/>
      <point x="58" y="77"/>
      <point x="83" y="77" type="curve" smooth="yes"/>
      <point x="93" y="77"/>
      <point x="100" y="81"/>
      <point x="103" y="86" type="curve"/>
      <point x="100" y="122"/>
      <point x="100" y="149"/>
      <point x="115" y="207" type="curve" smooth="yes"/>
      <point x="145" y="323" type="line" smooth="yes"/>
      <point x="177" y="450"/>
      <point x="234" y="486"/>
      <point x="311" y="486" type="curve" smooth="yes"/>
      <point x="393" y="486"/>
      <point x="436" y="453"/>
      <point x="473" y="390" type="curve"/>
      <point x="490" y="390"/>
      <point x="502" y="413"/>
      <point x="496" y="429" type="curve" smooth="yes"/>
      <point x="480" y="475"/>
      <point x="424" y="537"/>
    </contour>
    <contour>
      <point x="193" y="-10" type="curve" smooth="yes"/>
      <point x="271" y="-10"/>
      <point x="328" y="23"/>
      <point x="392" y="89" type="curve" smooth="yes"/>
      <point x="418" y="115"/>
      <point x="428" y="141"/>
      <point x="431" y="190" type="curve"/>
      <point x="348" y="91"/>
      <point x="277" y="41"/>
      <point x="207" y="41" type="curve" smooth="yes"/>
      <point x="126" y="41"/>
      <point x="90" y="105"/>
      <point x="115" y="207" type="curve"/>
      <point x="68" y="220"/>
      <point x="62" y="213"/>
      <point x="60" y="208" type="curve" smooth="yes"/>
      <point x="29" y="83"/>
      <point x="79" y="-10"/>
    </contour>
    <contour>
      <point x="556" y="527" type="line"/>
      <point x="541" y="527"/>
      <point x="527" y="527"/>
      <point x="512" y="527" type="curve" smooth="yes"/>
      <point x="504" y="527"/>
      <point x="500" y="524"/>
      <point x="498" y="516" type="curve" smooth="yes"/>
      <point x="391" y="90" type="line" smooth="yes"/>
      <point x="383" y="57"/>
      <point x="410" y="34"/>
      <point x="433" y="34" type="curve"/>
      <point x="436" y="47"/>
      <point x="440" y="61"/>
      <point x="449" y="97" type="curve"/>
    </contour>
    <contour>
      <point x="499" y="41" type="line"/>
      <point x="488" y="41" type="line"/>
      <point x="484" y="41"/>
      <point x="481" y="41"/>
      <point x="477" y="41" type="curve" smooth="yes"/>
      <point x="444" y="41"/>
      <point x="438" y="58"/>
      <point x="449" y="99" type="curve"/>
      <point x="405" y="111"/>
      <point x="395" y="104"/>
      <point x="391" y="90" type="curve" smooth="yes"/>
      <point x="374" y="24"/>
      <point x="409" y="-10"/>
      <point x="467" y="-10" type="curve" smooth="yes"/>
      <point x="474" y="-10" type="line" smooth="yes"/>
      <point x="481" y="-10"/>
      <point x="486" y="-7"/>
      <point x="488" y="1" type="curve"/>
    </contour>
  </outline>
</glyph>
<glyph name="b" format="1">
  <advance width="600"/>
  <unicode hex="0062"/>
  <outline>
    <contour>
      <point x="42" y="0" type="line"/>
      <point x="53" y="0"/>
      <point x="64" y="0"/>
      <point x="76" y="0" type="curve" smooth="yes"/>
      <point x="87" y="0"/>
      <point x="112" y="55"/>
      <point x="121" y="88" type="curve" smooth="yes"/>
      <point x="285" y="739" type="line"/>
      <point x="287" y="745"/>
      <point x="283" y="750"/>
      <point x="277" y="750" type="curve" smooth="yes"/>
      <point x="262" y="750"/>
      <point x="247" y="750"/>
      <point x="233" y="750" type="curve"/>
      <point x="224" y="717"/>
      <point x="215" y="682"/>
      <point x="206" y="646" type="curve" smooth="yes"/>
    </contour>
    <contour>
      <point x="404" y="537" type="curve" smooth="yes"/>
      <point x="330" y="537"/>
      <point x="269" y="504"/>
      <point x="210" y="453" type="curve" smooth="yes"/>
      <point x="185" y="431"/>
      <point x="173" y="402"/>
      <point x="171" y="366" type="curve"/>
      <point x="267" y="455"/>
      <point x="328" y="486"/>
      <point x="400" y="486" type="curve" smooth="yes"/>
      <point x="481" y="486"/>
      <point x="514" y="434"/>
      <point x="485" y="319" type="curve"/>
      <point x="520" y="303"/>
      <point x="539" y="316"/>
      <point x="542" y="326" type="curve" smooth="yes"/>
      <point x="575" y="447"/>
      <point x="524" y="537"/>
    </contour>
    <contour>
      <point x="288" y="-10" type="curve" smooth="yes"/>
      <point x="395" y="-10"/>
      <point x="474" y="41"/>
      <point x="513" y="206" type="curve" smooth="yes"/>
      <point x="542" y="326" type="line" smooth="yes"/>
      <point x="554" y="374"/>
      <point x="543" y="461"/>
      <point x="517" y="461" type="curve"/>
      <point x="506" y="461"/>
      <point x="499" y="459"/>
      <point x="496" y="454" type="curve"/>
      <point x="506" y="414"/>
      <point x="502" y="386"/>
      <point x="485" y="319" type="curve" smooth="yes"/>
      <point x="462" y="222" type="line" smooth="yes"/>
      <point x="428" y="83"/>
      <point x="370" y="40"/>
      <point x="289" y="40" type="curve" smooth="yes"/>
      <point x="211" y="40"/>
      <point x="162" y="71"/>
      <point x="127" y="152" type="curve"/>
      <point x="121" y="151"/>
      <point x="101" y="116"/>
      <point x="107" y="102" type="curve" smooth="yes"/>
      <point x="131" y="40"/>
      <point x="185" y="-10"/>
    </contour>
  </outline>
</glyph>
<glyph name="d" format="1">
  <advance width="600"/>
  <unicode hex="0064"/>
  <outline>
    <contour>
      <point x="312" y="537" type="curve" smooth="yes"/>
      <point x="212" y="537"/>
      <point x="133" y="496"/>
      <point x="98" y="358" type="curve" smooth="yes"/>
      <point x="57" y="194" type="line" smooth="yes"/>
      <point x="43" y="142"/>
      <point x="63" y="69"/>
      <point x="90" y="69" type="curve" smooth="yes"/>
      <point x="100" y="69"/>
      <point x="107" y="70"/>
      <point x="109" y="75" type="curve"/>
      <point x="100" y="113"/>
      <point x="100" y="142"/>
      <point x="119" y="217" type="curve" smooth="yes"/>
      <point x="150" y="344" type="line" smooth="yes"/>
      <point x="178" y="454"/>
      <point x="234" y="486"/>
      <point x="315" y="486" type="curve" smooth="yes"/>
      <point x="374" y="486"/>
      <point x="439" y="447"/>
      <point x="471" y="371" type="curve"/>
      <point x="480" y="372"/>
      <point x="498" y="408"/>
      <point x="491" y="422" type="curve" smooth="yes"/>
      <point x="466" y="481"/>
      <point x="399" y="537"/>
    </contour>
    <contour>
      <point x="198" y="-10" type="curve" smooth="yes"/>
      <point x="273" y="-10"/>
      <point x="335" y="21"/>
      <point x="392" y="78" type="curve" smooth="yes"/>
      <point x="417" y="102"/>
      <point x="427" y="131"/>
      <point x="429" y="166" type="curve"/>
      <point x="333" y="73"/>
      <point x="273" y="40"/>
      <point x="215" y="40" type="curve" smooth="yes"/>
      <point x="121" y="40"/>
      <point x="89" y="99"/>
      <point x="119" y="217" type="curve"/>
      <point x="74" y="216"/>
      <point x="59" y="202"/>
      <point x="57" y="194" type="curve" smooth="yes"/>
      <point x="29" y="79"/>
      <point x="83" y="-10"/>
    </contour>
    <contour>
      <point x="560" y="750" type="curve"/>
      <point x="551" y="715"/>
      <point x="542" y="682"/>
      <point x="535" y="650" type="curve" smooth="yes"/>
      <point x="372" y="11" type="line"/>
      <point x="372" y="8"/>
      <point x="372" y="5"/>
      <point x="373" y="3" type="curve" smooth="yes"/>
      <point x="374" y="1"/>
      <point x="377" y="0"/>
      <point x="380" y="0" type="curve" smooth="yes"/>
      <point x="395" y="0"/>
      <point x="410" y="0"/>
      <point x="425" y="0" type="curve"/>
      <point x="432" y="23"/>
      <point x="441" y="58"/>
      <point x="452" y="103" type="curve" smooth="yes"/>
      <point x="613" y="739" type="line"/>
      <point x="614" y="742"/>
      <point x="613" y="745"/>
      <point x="612" y="747" type="curve" smooth="yes"/>
      <point x="611" y="749"/>
      <point x="608" y="750"/>
      <point x="605" y="750" type="curve" smooth="yes"/>
      <point x="590" y="750"/>
      <point x="575" y="750"/>
    </contour>
    <contour>
      <point x="692" y="711" type="move" name="caronslovak"/>
    </contour>
  </outline>
</glyph>
<glyph name="e" format="1">
  <advance width="600"/>
  <unicode hex="0065"/>
  <outline>
    <contour>
      <point x="344" y="487" type="curve" smooth="yes"/>
      <point x="433" y="487"/>
      <point x="486" y="460"/>
      <point x="493" y="389" type="curve"/>
      <point x="503" y="391"/>
      <point x="517" y="398"/>
      <point x="519" y="411" type="curve"/>
      <point x="537" y="481"/>
      <point x="441" y="537"/>
      <point x="354" y="537" type="curve"/>
      <point x="231" y="537"/>
      <point x="142" y="486"/>
      <point x="97" y="313" type="curve" smooth="yes"/>
      <point x="73" y="219" type="line" smooth="yes"/>
      <point x="34" y="69"/>
      <point x="129" y="-10"/>
      <point x="270" y="-10" type="curve" smooth="yes"/>
      <point x="283" y="-10"/>
      <point x="279" y="-1"/>
      <point x="280" y="40" type="curve"/>
      <point x="150" y="40"/>
      <point x="100" y="105"/>
      <point x="127" y="215" type="curve" smooth="yes"/>
      <point x="150" y="306" type="line" smooth="yes"/>
      <point x="182" y="435"/>
      <point x="242" y="487"/>
    </contour>
    <contour>
      <point x="437" y="40" type="curve" smooth="yes"/>
      <point x="441" y="44"/>
      <point x="442" y="46"/>
      <point x="444" y="52" type="curve" smooth="yes"/>
      <point x="448" y="67"/>
      <point x="452" y="79"/>
      <point x="456" y="94" type="curve"/>
      <point x="442" y="94" type="line"/>
      <point x="393" y="63"/>
      <point x="349" y="40"/>
      <point x="280" y="40" type="curve" smooth="yes"/>
      <point x="186" y="40"/>
      <point x="148" y="69"/>
      <point x="108" y="117" type="curve"/>
      <point x="78" y="64"/>
      <point x="149" y="-10"/>
      <point x="270" y="-10" type="curve" smooth="yes"/>
      <point x="361" y="-10"/>
      <point x="409" y="15"/>
    </contour>
    <contour>
      <point x="492" y="236" type="line" smooth="yes"/>
      <point x="499" y="236"/>
      <point x="504" y="240"/>
      <point x="506" y="247" type="curve" smooth="yes"/>
      <point x="525" y="324" type="line" smooth="yes"/>
      <point x="559" y="463"/>
      <point x="488" y="537"/>
      <point x="354" y="537" type="curve" smooth="yes"/>
      <point x="345" y="537"/>
      <point x="342" y="527"/>
      <point x="344" y="487" type="curve"/>
      <point x="453" y="487"/>
      <point x="499" y="438"/>
      <point x="468" y="316" type="curve" smooth="yes"/>
      <point x="460" y="285" type="line" smooth="yes"/>
      <point x="460" y="284"/>
      <point x="459" y="284"/>
      <point x="458" y="284" type="curve" smooth="yes"/>
      <point x="311" y="284"/>
      <point x="241" y="284"/>
      <point x="111" y="284" type="curve"/>
      <point x="104" y="255"/>
      <point x="105" y="249"/>
      <point x="111" y="242" type="curve" smooth="yes"/>
      <point x="114" y="238"/>
      <point x="118" y="236"/>
      <point x="124" y="236" type="curve" smooth="yes"/>
    </contour>
    <contour>
      <point x="375" y="538" type="move" name="top"/>
    </contour>
    <contour>
      <point x="355" y="0" type="move" name="ogonek"/>
    </contour>
    <contour>
      <point x="245" y="-1" type="move" name="bottom"/>
    </contour>
  </outline>
</glyph>
<glyph name="f" format="1">
  <advance width="600"/>
  <unicode hex="0066"/>
  <outline>
    <contour>
      <point x="413" y="680" type="curve"/>
      <point x="457" y="702"/>
      <point x="478" y="710"/>
      <point x="536" y="710" type="curve" smooth="yes"/>
      <point x="587" y="710"/>
      <point x="630" y="699"/>
      <point x="660" y="682" type="curve"/>
      <point x="672" y="682" type="line"/>
      <point x="676" y="695"/>
      <point x="679" y="705"/>
      <point x="682" y="719" type="curve"/>
      <point x="683" y="723"/>
      <point x="683" y="725"/>
      <point x="681" y="727" type="curve" smooth="yes"/>
      <point x="673" y="738"/>
      <point x="609" y="761"/>
      <point x="545" y="761" type="curve" smooth="yes"/>
      <point x="461" y="761"/>
      <point x="408" y="721"/>
    </contour>
    <contour>
      <point x="311" y="559" type="curve"/>
      <point x="150" y="-89" type="line" smooth="yes"/>
      <point x="148" y="-95"/>
      <point x="152" y="-100"/>
      <point x="158" y="-100" type="curve"/>
      <point x="172" y="-100"/>
      <point x="187" y="-100"/>
      <point x="202" y="-100" type="curve"/>
      <point x="210" y="-66"/>
      <point x="219" y="-33"/>
      <point x="227" y="1" type="curve"/>
      <point x="358" y="522" type="line"/>
      <point x="362" y="537"/>
      <point x="365" y="549"/>
      <point x="368" y="562" type="curve"/>
      <point x="393" y="664"/>
      <point x="440" y="710"/>
      <point x="536" y="710" type="curve"/>
      <point x="562" y="752"/>
      <point x="550" y="761"/>
      <point x="545" y="761" type="curve" smooth="yes"/>
      <point x="425" y="761"/>
      <point x="347" y="702"/>
    </contour>
    <contour>
      <point x="155" y="526" type="line"/>
      <point x="150" y="512"/>
      <point x="148" y="501"/>
      <point x="144" y="487" type="curve" smooth="yes"/>
      <point x="143" y="483"/>
      <point x="143" y="480"/>
      <point x="145" y="478" type="curve" smooth="yes"/>
      <point x="147" y="476"/>
      <point x="150" y="476"/>
      <point x="153" y="476" type="curve"/>
      <point x="555" y="476" type="line"/>
      <point x="559" y="490"/>
      <point x="561" y="501"/>
      <point x="564" y="515" type="curve" smooth="yes"/>
      <point x="566" y="523"/>
      <point x="562" y="526"/>
      <point x="556" y="526" type="curve"/>
    </contour>
  </outline>
</glyph>
<glyph name="h" format="1">
  <advance width="600"/>
  <unicode hex="0068"/>
  <outline>
    <contour>
      <point x="98" y="0" type="curve"/>
      <point x="286" y="740" type="line" smooth="yes"/>
      <point x="287" y="744"/>
      <point x="287" y="747"/>
      <point x="285" y="749" type="curve" smooth="yes"/>
      <point x="283" y="751"/>
      <point x="281" y="751"/>
      <point x="278" y="751" type="curve" smooth="yes"/>
      <point x="263" y="751"/>
      <point x="248" y="751"/>
      <point x="233" y="751" type="curve"/>
      <point x="228" y="734"/>
      <point x="220" y="698"/>
      <point x="208" y="651" type="curve" smooth="yes"/>
      <point x="45" y="11" type="line" smooth="yes"/>
      <point x="44" y="5"/>
      <point x="47" y="0"/>
      <point x="53" y="0" type="curve" smooth="yes"/>
      <point x="68" y="0"/>
      <point x="83" y="0"/>
    </contour>
    <contour>
      <point x="413" y="537" type="curve" smooth="yes"/>
      <point x="337" y="537"/>
      <point x="272" y="495"/>
      <point x="204" y="427" type="curve" smooth="yes"/>
      <point x="180" y="404"/>
      <point x="172" y="370"/>
      <point x="169" y="332" type="curve"/>
      <point x="266" y="439"/>
      <point x="338" y="486"/>
      <point x="402" y="486" type="curve" smooth="yes"/>
      <point x="465" y="486"/>
      <point x="494" y="456"/>
      <point x="474" y="374" type="curve"/>
      <point x="518" y="377"/>
      <point x="526" y="376"/>
      <point x="530" y="389" type="curve" smooth="yes"/>
      <point x="549" y="465"/>
      <point x="512" y="537"/>
    </contour>
    <contour>
      <point x="431" y="0" type="curve"/>
      <point x="441" y="36"/>
      <point x="449" y="68"/>
      <point x="457" y="98" type="curve" smooth="yes"/>
      <point x="530" y="389" type="line"/>
      <point x="538" y="417"/>
      <point x="527" y="455"/>
      <point x="485" y="452" type="curve"/>
      <point x="482" y="425"/>
      <point x="483" y="423"/>
      <point x="472" y="376" type="curve" smooth="yes"/>
      <point x="378" y="11" type="line" smooth="yes"/>
      <point x="376" y="5"/>
      <point x="380" y="0"/>
      <point x="386" y="0" type="curve" smooth="yes"/>
      <point x="401" y="0"/>
      <point x="416" y="0"/>
    </contour>
    <contour>
      <point x="258" y="730" type="move" name="top"/>
    </contour>
  </outline>
</glyph>
<glyph name="i" format="1">
  <advance width="600"/>
  <unicode hex="0069"/>
  <outline>
    <contour>
      <point x="144" y="527" type="curve"/>
      <point x="141" y="514"/>
      <point x="138" y="500"/>
      <point x="134" y="487" type="curve" smooth="yes"/>
      <point x="132" y="480"/>
      <point x="136" y="476"/>
      <point x="142" y="476" type="curve" smooth="yes"/>
      <point x="213" y="476"/>
      <point x="298" y="476"/>
      <point x="342" y="476" type="curve"/>
      <point x="353" y="521"/>
      <point x="350" y="527"/>
      <point x="343" y="527" type="curve"/>
      <point x="277" y="527"/>
      <point x="211" y="527"/>
    </contour>
    <contour>
      <point x="395" y="525" type="curve" smooth="yes"/>
      <point x="393" y="527"/>
      <point x="391" y="527"/>
      <point x="388" y="527" type="curve" smooth="yes"/>
      <point x="343" y="527" type="line"/>
      <point x="244" y="130" type="line" smooth="yes"/>
      <point x="236" y="100"/>
      <point x="252" y="52"/>
      <point x="280" y="52" type="curve"/>
      <point x="285" y="75"/>
      <point x="294" y="108"/>
      <point x="299" y="131" type="curve" smooth="yes"/>
      <point x="396" y="516" type="line" smooth="yes"/>
      <point x="397" y="520"/>
      <point x="397" y="523"/>
    </contour>
    <contour>
      <point x="468" y="50" type="curve"/>
      <point x="457" y="50" type="line"/>
      <point x="423" y="50"/>
      <point x="399" y="50"/>
      <point x="364" y="50" type="curve"/>
      <point x="301" y="50"/>
      <point x="284" y="69"/>
      <point x="299" y="131" type="curve"/>
      <point x="256" y="140"/>
      <point x="246" y="138"/>
      <point x="244" y="130" type="curve" smooth="yes"/>
      <point x="224" y="58"/>
      <point x="255" y="0"/>
      <point x="349" y="0" type="curve" smooth="yes"/>
      <point x="445" y="0" type="line" smooth="yes"/>
      <point x="448" y="0"/>
      <point x="452" y="0"/>
      <point x="455" y="3" type="curve" smooth="yes"/>
      <point x="457" y="5"/>
      <point x="458" y="7"/>
      <point x="459" y="11" type="curve"/>
      <point x="462" y="24"/>
      <point x="464" y="38"/>
    </contour>
    <contour>
      <point x="450" y="675" type="curve"/>
      <point x="468" y="747" type="line" smooth="yes"/>
      <point x="470" y="753"/>
      <point x="466" y="758"/>
      <point x="460" y="758" type="curve" smooth="yes"/>
      <point x="435" y="758"/>
      <point x="410" y="758"/>
      <point x="385" y="758" type="curve"/>
      <point x="367" y="686" type="line" smooth="yes"/>
      <point x="365" y="680"/>
      <point x="369" y="675"/>
      <point x="375" y="675" type="curve" smooth="yes"/>
      <point x="400" y="675"/>
      <point x="425" y="675"/>
    </contour>
  </outline>
</glyph>
<glyph name="j" format="1">
  <advance width="600"/>
  <unicode hex="006A"/>
  <outline>
    <contour>
      <point x="148" y="527" type="curve"/>
      <point x="144" y="514"/>
      <point x="141" y="501"/>
      <point x="137" y="489" type="curve" smooth="yes"/>
      <point x="135" y="482"/>
      <point x="138" y="478"/>
      <point x="144" y="478" type="curve" smooth="yes"/>
      <point x="238" y="478"/>
      <point x="349" y="478"/>
      <point x="443" y="478" type="curve"/>
      <point x="450" y="506"/>
      <point x="450" y="527"/>
      <point x="441" y="527" type="curve" smooth="yes"/>
      <point x="349" y="527"/>
      <point x="239" y="527"/>
    </contour>
    <contour>
      <point x="357" y="-9" type="curve" smooth="yes"/>
      <point x="491" y="516" type="line" smooth="yes"/>
      <point x="492" y="519"/>
      <point x="492" y="523"/>
      <point x="490" y="525" type="curve" smooth="yes"/>
      <point x="488" y="527"/>
      <point x="486" y="527"/>
      <point x="483" y="527" type="curve" smooth="yes"/>
      <point x="439" y="527" type="line"/>
      <point x="305" y="-1" type="line" smooth="yes"/>
      <point x="280" y="-97"/>
      <point x="254" y="-145"/>
      <point x="165" y="-202" type="curve"/>
      <point x="231" y="-229"/>
      <point x="327" y="-128"/>
    </contour>
    <contour>
      <point x="82" y="-197" type="curve" smooth="yes"/>
      <point x="29" y="-197"/>
      <point x="-3" y="-187"/>
      <point x="-37" y="-166" type="curve"/>
      <point x="-50" y="-166" type="line"/>
      <point x="-53" y="-180"/>
      <point x="-57" y="-194"/>
      <point x="-61" y="-207" type="curve" smooth="yes"/>
      <point x="-62" y="-211"/>
      <point x="-61" y="-213"/>
      <point x="-59" y="-216" type="curve" smooth="yes"/>
      <point x="-48" y="-231"/>
      <point x="5" y="-250"/>
      <point x="69" y="-250" type="curve" smooth="yes"/>
      <point x="229" y="-250"/>
      <point x="313" y="-177"/>
      <point x="357" y="-9" type="curve" smooth="yes"/>
      <point x="360" y="4"/>
      <point x="341" y="5"/>
      <point x="305" y="-1" type="curve"/>
      <point x="269" y="-141"/>
      <point x="200" y="-197"/>
    </contour>
    <contour>
      <point x="546" y="675" type="curve"/>
      <point x="565" y="747" type="line" smooth="yes"/>
      <point x="566" y="753"/>
      <point x="562" y="758"/>
      <point x="556" y="758" type="curve" smooth="yes"/>
      <point x="532" y="758"/>
      <point x="507" y="758"/>
      <point x="482" y="758" type="curve"/>
      <point x="464" y="686" type="line" smooth="yes"/>
      <point x="462" y="680"/>
      <point x="466" y="675"/>
      <point x="472" y="675" type="curve" smooth="yes"/>
      <point x="497" y="675"/>
      <point x="522" y="675"/>
    </contour>
  </outline>
</glyph>
<glyph name="l" format="1">
  <advance width="600"/>
  <unicode hex="006C"/>
  <outline>
    <contour>
      <point x="200" y="750" type="curve"/>
      <point x="197" y="737"/>
      <point x="193" y="723"/>
      <point x="190" y="711" type="curve" smooth="yes"/>
      <point x="189" y="705"/>
      <point x="192" y="700"/>
      <point x="198" y="700" type="curve" smooth="yes"/>
      <point x="269" y="700"/>
      <point x="354" y="700"/>
      <point x="398" y="700" type="curve"/>
      <point x="409" y="744"/>
      <point x="406" y="750"/>
      <point x="399" y="750" type="curve"/>
      <point x="333" y="750"/>
      <point x="267" y="750"/>
    </contour>
    <contour>
      <point x="451" y="748" type="curve" smooth="yes"/>
      <point x="449" y="750"/>
      <point x="447" y="750"/>
      <point x="444" y="750" type="curve" smooth="yes"/>
      <point x="399" y="750" type="line"/>
      <point x="243" y="130" type="line" smooth="yes"/>
      <point x="235" y="100"/>
      <point x="251" y="52"/>
      <point x="279" y="52" type="curve"/>
      <point x="284" y="75"/>
      <point x="292" y="108"/>
      <point x="298" y="131" type="curve" smooth="yes"/>
      <point x="452" y="739" type="line" smooth="yes"/>
      <point x="453" y="743"/>
      <point x="453" y="746"/>
    </contour>
    <contour>
      <point x="467" y="50" type="curve"/>
      <point x="456" y="50" type="line"/>
      <point x="422" y="50"/>
      <point x="398" y="50"/>
      <point x="363" y="50" type="curve"/>
      <point x="300" y="50"/>
      <point x="283" y="69"/>
      <point x="298" y="131" type="curve"/>
      <point x="255" y="140"/>
      <point x="245" y="138"/>
      <point x="243" y="130" type="curve" smooth="yes"/>
      <point x="223" y="58"/>
      <point x="254" y="0"/>
      <point x="348" y="0" type="curve" smooth="yes"/>
      <point x="444" y="0" type="line" smooth="yes"/>
      <point x="447" y="0"/>
      <point x="451" y="0"/>
      <point x="454" y="3" type="curve" smooth="yes"/>
      <point x="456" y="5"/>
      <point x="457" y="7"/>
      <point x="458" y="11" type="curve"/>
      <point x="461" y="24"/>
      <point x="464" y="38"/>
    </contour>
  </outline>
</glyph>
<glyph name="m" format="1">
  <advance width="600"/>
  <unicode hex="006D"/>
  <outline>
    <contour>
      <point x="47" y="0" type="curve"/>
      <point x="177" y="511" type="line" smooth="yes"/>
      <point x="178" y="517"/>
      <point x="178" y="523"/>
      <point x="176" y="525" type="curve" smooth="yes"/>
      <point x="174" y="527"/>
      <point x="171" y="527"/>
      <point x="168" y="527" type="curve" smooth="yes"/>
      <point x="154" y="527"/>
      <point x="140" y="527"/>
      <point x="126" y="527" type="curve"/>
      <point x="122" y="510"/>
      <point x="113" y="474"/>
      <point x="101" y="427" type="curve" smooth="yes"/>
      <point x="-5" y="11" type="line" smooth="yes"/>
      <point x="-6" y="5"/>
      <point x="-3" y="0"/>
      <point x="3" y="0" type="curve" smooth="yes"/>
      <point x="18" y="0"/>
      <point x="32" y="0"/>
    </contour>
    <contour>
      <point x="306" y="537" type="curve" smooth="yes"/>
      <point x="260" y="537"/>
      <point x="208" y="508"/>
      <point x="156" y="446" type="curve" smooth="yes"/>
      <point x="134" y="421"/>
      <point x="117" y="391"/>
      <point x="125" y="363" type="curve"/>
      <point x="199" y="447"/>
      <point x="248" y="486"/>
      <point x="288" y="486" type="curve" smooth="yes"/>
      <point x="315" y="486"/>
      <point x="325" y="465"/>
      <point x="315" y="421" type="curve"/>
      <point x="364" y="424"/>
      <point x="368" y="425"/>
      <point x="369" y="428" type="curve" smooth="yes"/>
      <point x="386" y="492"/>
      <point x="359" y="537"/>
    </contour>
    <contour>
      <point x="261" y="0" type="curve"/>
      <point x="369" y="428" type="line" smooth="yes"/>
      <point x="376" y="457"/>
      <point x="364" y="498"/>
      <point x="318" y="495" type="curve"/>
      <point x="324" y="469"/>
      <point x="323" y="457"/>
      <point x="311" y="415" type="curve" smooth="yes"/>
      <point x="210" y="11" type="line" smooth="yes"/>
      <point x="209" y="5"/>
      <point x="212" y="0"/>
      <point x="218" y="0" type="curve" smooth="yes"/>
      <point x="232" y="0"/>
      <point x="247" y="0"/>
    </contour>
    <contour>
      <point x="519" y="537" type="curve" smooth="yes"/>
      <point x="473" y="537"/>
      <point x="421" y="508"/>
      <point x="370" y="446" type="curve" smooth="yes"/>
      <point x="349" y="421"/>
      <point x="331" y="391"/>
      <point x="339" y="363" type="curve"/>
      <point x="411" y="447"/>
      <point x="459" y="486"/>
      <point x="500" y="486" type="curve" smooth="yes"/>
      <point x="530" y="486"/>
      <point x="542" y="465"/>
      <point x="529" y="421" type="curve"/>
      <point x="579" y="423"/>
      <point x="583" y="424"/>
      <point x="584" y="427" type="curve" smooth="yes"/>
      <point x="601" y="492"/>
      <point x="577" y="537"/>
    </contour>
    <contour>
      <point x="475" y="0" type="curve"/>
      <point x="485" y="36"/>
      <point x="493" y="68"/>
      <point x="500" y="98" type="curve" smooth="yes"/>
      <point x="584" y="427" type="line" smooth="yes"/>
      <point x="591" y="457"/>
      <point x="580" y="499"/>
      <point x="532" y="496" type="curve"/>
      <point x="538" y="470"/>
      <point x="537" y="457"/>
      <point x="525" y="415" type="curve" smooth="yes"/>
      <point x="424" y="11" type="line" smooth="yes"/>
      <point x="423" y="5"/>
      <point x="426" y="0"/>
      <point x="432" y="0" type="curve" smooth="yes"/>
      <point x="447" y="0"/>
      <point x="461" y="0"/>
    </contour>
  </outline>
</glyph>
<glyph name="n" format="1">
  <advance width="600"/>
  <unicode hex="006E"/>
  <outline>
    <contour>
      <point x="98" y="0" type="curve"/>
      <point x="228" y="516" type="line" smooth="yes"/>
      <point x="229" y="520"/>
      <point x="229" y="523"/>
      <point x="227" y="525" type="curve" smooth="yes"/>
      <point x="225" y="527"/>
      <point x="223" y="527"/>
      <point x="220" y="527" type="curve" smooth="yes"/>
      <point x="205" y="527"/>
      <point x="190" y="527"/>
      <point x="175" y="527" type="curve"/>
      <point x="171" y="510"/>
      <point x="162" y="474"/>
      <point x="150" y="427" type="curve" smooth="yes"/>
      <point x="45" y="11" type="line" smooth="yes"/>
      <point x="43" y="5"/>
      <point x="47" y="0"/>
      <point x="53" y="0" type="curve" smooth="yes"/>
      <point x="68" y="0"/>
      <point x="83" y="0"/>
    </contour>
    <contour>
      <point x="415" y="537" type="curve" smooth="yes"/>
      <point x="336" y="537"/>
      <point x="268" y="493"/>
      <point x="202" y="424" type="curve" smooth="yes"/>
      <point x="178" y="399"/>
      <point x="168" y="363"/>
      <point x="166" y="326" type="curve"/>
      <point x="263" y="437"/>
      <point x="340" y="486"/>
      <point x="404" y="486" type="curve" smooth="yes"/>
      <point x="462" y="486"/>
      <point x="487" y="445"/>
      <point x="468" y="368" type="curve"/>
      <point x="519" y="370"/>
      <point x="525" y="377"/>
      <point x="528" y="386" type="curve" smooth="yes"/>
      <point x="547" y="464"/>
      <point x="510" y="537"/>
    </contour>
    <contour>
      <point x="431" y="0" type="curve"/>
      <point x="440" y="36"/>
      <point x="448" y="68"/>
      <point x="456" y="98" type="curve" smooth="yes"/>
      <point x="528" y="386" type="line"/>
      <point x="534" y="413"/>
      <point x="525" y="454"/>
      <point x="479" y="451" type="curve"/>
      <point x="480" y="426"/>
      <point x="479" y="414"/>
      <point x="468" y="368" type="curve" smooth="yes"/>
      <point x="378" y="11" type="line" smooth="yes"/>
      <point x="376" y="5"/>
      <point x="380" y="0"/>
      <point x="386" y="0" type="curve" smooth="yes"/>
      <point x="401" y="0"/>
      <point x="416" y="0"/>
    </contour>
    <contour>
      <point x="438" y="711" type="move" name="caronslovak"/>
    </contour>
    <contour>
      <point x="372" y="538" type="move" name="top"/>
    </contour>
    <contour>
      <point x="232" y="-1" type="move" name="bottom"/>
    </contour>
  </outline>
</glyph>
<glyph name="o" format="1">
  <advance width="600"/>
  <unicode hex="006F"/>
  <outline>
    <contour>
      <point x="356" y="537" type="curve" smooth="yes"/>
      <point x="215" y="537"/>
      <point x="134" y="464"/>
      <point x="100" y="328" type="curve" smooth="yes"/>
      <point x="68" y="201" type="line" smooth="yes"/>
      <point x="38" y="87"/>
      <point x="106" y="-10"/>
      <point x="245" y="-10" type="curve" smooth="yes"/>
      <point x="259" y="-10"/>
      <point x="269" y="16"/>
      <point x="252" y="41" type="curve"/>
      <point x="110" y="41"/>
      <point x="107" y="144"/>
      <point x="124" y="207" type="curve" smooth="yes"/>
      <point x="156" y="327" type="line" smooth="yes"/>
      <point x="182" y="429"/>
      <point x="246" y="486"/>
      <point x="348" y="486" type="curve" smooth="yes"/>
      <point x="404" y="486"/>
      <point x="440" y="476"/>
      <point x="475" y="447" type="curve"/>
      <point x="508" y="473"/>
      <point x="462" y="537"/>
    </contour>
    <contour>
      <point x="245" y="-10" type="curve" smooth="yes"/>
      <point x="384" y="-10"/>
      <point x="464" y="63"/>
      <point x="499" y="198" type="curve" smooth="yes"/>
      <point x="532" y="325" type="line" smooth="yes"/>
      <point x="561" y="440"/>
      <point x="493" y="537"/>
      <point x="356" y="537" type="curve" smooth="yes"/>
      <point x="339" y="537"/>
      <point x="327" y="512"/>
      <point x="348" y="486" type="curve"/>
      <point x="489" y="486"/>
      <point x="491" y="383"/>
      <point x="475" y="320" type="curve" smooth="yes"/>
      <point x="443" y="200" type="line" smooth="yes"/>
      <point x="417" y="99"/>
      <point x="353" y="41"/>
      <point x="252" y="41" type="curve" smooth="yes"/>
      <point x="195" y="41"/>
      <point x="157" y="51"/>
      <point x="124" y="80" type="curve"/>
      <point x="91" y="54"/>
      <point x="139" y="-10"/>
    </contour>
    <contour>
      <point x="372" y="538" type="move" name="top"/>
    </contour>
    <contour>
      <point x="296" y="-1" type="move" name="ogonek"/>
    </contour>
    <contour>
      <point x="230" y="-1" type="move" name="bottom"/>
    </contour>
  </outline>
</glyph>
<glyph name="p" format="1">
  <advance width="600"/>
  <unicode hex="0070"/>
  <outline>
    <contour>
      <point x="44" y="-219" type="curve"/>
      <point x="229" y="516" type="line" smooth="yes"/>
      <point x="230" y="519"/>
      <point x="230" y="523"/>
      <point x="228" y="525" type="curve" smooth="yes"/>
      <point x="227" y="527"/>
      <point x="224" y="527"/>
      <point x="221" y="527" type="curve"/>
      <point x="207" y="527"/>
      <point x="192" y="527"/>
      <point x="177" y="527" type="curve"/>
      <point x="168" y="492"/>
      <point x="160" y="458"/>
      <point x="152" y="427" type="curve" smooth="yes"/>
      <point x="-10" y="-207" type="line" smooth="yes"/>
      <point x="-12" y="-215"/>
      <point x="-7" y="-219"/>
      <point x="-1" y="-219" type="curve"/>
      <point x="14" y="-219"/>
      <point x="29" y="-219"/>
    </contour>
    <contour>
      <point x="401" y="537" type="curve" smooth="yes"/>
      <point x="324" y="537"/>
      <point x="269" y="502"/>
      <point x="211" y="453" type="curve" smooth="yes"/>
      <point x="187" y="431"/>
      <point x="174" y="401"/>
      <point x="172" y="366" type="curve"/>
      <point x="267" y="453"/>
      <point x="323" y="486"/>
      <point x="391" y="486" type="curve" smooth="yes"/>
      <point x="480" y="486"/>
      <point x="512" y="421"/>
      <point x="485" y="314" type="curve"/>
      <point x="530" y="309"/>
      <point x="543" y="318"/>
      <point x="544" y="325" type="curve" smooth="yes"/>
      <point x="572" y="440"/>
      <point x="519" y="537"/>
    </contour>
    <contour>
      <point x="286" y="-11" type="curve" smooth="yes"/>
      <point x="394" y="-11"/>
      <point x="474" y="45"/>
      <point x="515" y="209" type="curve" smooth="yes"/>
      <point x="544" y="326" type="line" smooth="yes"/>
      <point x="557" y="377"/>
      <point x="538" y="461"/>
      <point x="511" y="461" type="curve" smooth="yes"/>
      <point x="501" y="461"/>
      <point x="494" y="459"/>
      <point x="491" y="454" type="curve"/>
      <point x="502" y="417"/>
      <point x="502" y="385"/>
      <point x="485" y="314" type="curve" smooth="yes"/>
      <point x="462" y="224" type="line" smooth="yes"/>
      <point x="427" y="84"/>
      <point x="366" y="39"/>
      <point x="291" y="39" type="curve" smooth="yes"/>
      <point x="210" y="39"/>
      <point x="169" y="63"/>
      <point x="113" y="143" type="curve"/>
      <point x="97" y="121"/>
      <point x="92" y="105"/>
      <point x="99" y="92" type="curve" smooth="yes"/>
      <point x="134" y="34"/>
      <point x="186" y="-11"/>
    </contour>
  </outline>
</glyph>
<glyph name="r" format="1">
  <advance width="600"/>
  <unicode hex="0072"/>
  <outline>
    <contour>
      <point x="136" y="527" type="curve"/>
      <point x="132" y="512"/>
      <point x="129" y="500"/>
      <point x="126" y="485" type="curve" smooth="yes"/>
      <point x="124" y="479"/>
      <point x="128" y="474"/>
      <point x="134" y="474" type="curve" smooth="yes"/>
      <point x="193" y="474"/>
      <point x="253" y="474"/>
      <point x="313" y="474" type="curve"/>
      <point x="321" y="508"/>
      <point x="320" y="527"/>
      <point x="315" y="527" type="curve" smooth="yes"/>
      <point x="252" y="527"/>
      <point x="199" y="527"/>
    </contour>
    <contour>
      <point x="200" y="0" type="curve"/>
      <point x="211" y="40"/>
      <point x="219" y="72"/>
      <point x="226" y="100" type="curve" smooth="yes"/>
      <point x="329" y="504" type="line" smooth="yes"/>
      <point x="331" y="514"/>
      <point x="326" y="527"/>
      <point x="315" y="527" type="curve" smooth="yes"/>
      <point x="306" y="527"/>
      <point x="292" y="526"/>
      <point x="278" y="523" type="curve"/>
      <point x="148" y="11" type="line" smooth="yes"/>
      <point x="147" y="5"/>
      <point x="150" y="0"/>
      <point x="156" y="0" type="curve" smooth="yes"/>
      <point x="171" y="0"/>
      <point x="186" y="0"/>
    </contour>
    <contour>
      <point x="264" y="330" type="curve"/>
      <point x="391" y="454"/>
      <point x="450" y="476"/>
      <point x="516" y="476" type="curve" smooth="yes"/>
      <point x="537" y="476"/>
      <point x="558" y="476"/>
      <point x="578" y="476" type="curve"/>
      <point x="584" y="476" type="line"/>
      <point x="589" y="490"/>
      <point x="593" y="508"/>
      <point x="596" y="521" type="curve"/>
      <point x="599" y="528"/>
      <point x="595" y="532"/>
      <point x="588" y="532" type="curve" smooth="yes"/>
      <point x="538" y="532" type="line" smooth="yes"/>
      <point x="445" y="532"/>
      <point x="376" y="498"/>
      <point x="301" y="419" type="curve" smooth="yes"/>
      <point x="278" y="395"/>
      <point x="269" y="366"/>
    </contour>
  </outline>
</glyph>
<glyph name="s" format="1">
  <advance width="600"/>
  <unicode hex="0073"/>
  <outline>
    <contour>
      <point x="369" y="535" type="curve" smooth="yes"/>
      <point x="364" y="535" type="line" smooth="yes"/>
      <point x="235" y="535"/>
      <point x="163" y="491"/>
      <point x="139" y="405" type="curve" smooth="yes"/>
      <point x="128" y="366"/>
      <point x="161" y="358"/>
      <point x="181" y="358" type="curve"/>
      <point x="186" y="376"/>
      <point x="190" y="389"/>
      <point x="193" y="401" type="curve" smooth="yes"/>
      <point x="207" y="456"/>
      <point x="268" y="485"/>
      <point x="360" y="485" type="curve" smooth="yes"/>
      <point x="427" y="485"/>
      <point x="474" y="473"/>
      <point x="517" y="450" type="curve"/>
      <point x="529" y="450" type="line"/>
      <point x="532" y="463"/>
      <point x="535" y="472"/>
      <point x="539" y="486" type="curve"/>
      <point x="540" y="490"/>
      <point x="540" y="493"/>
      <point x="537" y="496" type="curve" smooth="yes"/>
      <point x="528" y="505"/>
      <point x="459" y="535"/>
    </contour>
    <contour>
      <point x="361" y="284" type="curve" smooth="yes"/>
      <point x="275" y="306" type="line" smooth="yes"/>
      <point x="194" y="328"/>
      <point x="181" y="354"/>
      <point x="193" y="401" type="curve" smooth="yes"/>
      <point x="195" y="412"/>
      <point x="200" y="430"/>
      <point x="205" y="449" type="curve"/>
      <point x="175" y="449"/>
      <point x="145" y="428"/>
      <point x="139" y="405" type="curve"/>
      <point x="121" y="335"/>
      <point x="155" y="283"/>
      <point x="249" y="260" type="curve" smooth="yes"/>
      <point x="333" y="238" type="line" smooth="yes"/>
      <point x="416" y="216"/>
      <point x="434" y="187"/>
      <point x="420" y="133" type="curve" smooth="yes"/>
      <point x="416" y="117"/>
      <point x="409" y="95"/>
      <point x="405" y="82" type="curve"/>
      <point x="444" y="82"/>
      <point x="470" y="112"/>
      <point x="473" y="126" type="curve" smooth="yes"/>
      <point x="492" y="201"/>
      <point x="463" y="260"/>
    </contour>
    <contour>
      <point x="251" y="42" type="curve" smooth="yes"/>
      <point x="160" y="42"/>
      <point x="106" y="66"/>
      <point x="57" y="106" type="curve"/>
      <point x="45" y="106" type="line"/>
      <point x="43" y="96"/>
      <point x="39" y="85"/>
      <point x="35" y="66" type="curve" smooth="yes"/>
      <point x="34" y="61"/>
      <point x="35" y="58"/>
      <point x="37" y="56" type="curve" smooth="yes"/>
      <point x="63" y="30"/>
      <point x="124" y="-8"/>
      <point x="240" y="-8" type="curve" smooth="yes"/>
      <point x="246" y="-8" type="line" smooth="yes"/>
      <point x="378" y="-8"/>
      <point x="449" y="39"/>
      <point x="473" y="126" type="curve" smooth="yes"/>
      <point x="479" y="148"/>
      <point x="464" y="178"/>
      <point x="433" y="178" type="curve"/>
      <point x="428" y="160"/>
      <point x="426" y="151"/>
      <point x="420" y="133" type="curve" smooth="yes"/>
      <point x="405" y="80"/>
      <point x="350" y="42"/>
    </contour>
    <contour>
      <point x="384" y="538" type="move" name="top"/>
    </contour>
    <contour>
      <point x="240" y="-1" type="move" name="bottom"/>
    </contour>
  </outline>
</glyph>
<glyph name="t" format="1">
  <advance width="600"/>
  <unicode hex="0074"/>
  <outline>
    <contour>
      <point x="326" y="700" type="curve"/>
      <point x="199" y="189" type="line" smooth="yes"/>
      <point x="175" y="91"/>
      <point x="206" y="52"/>
      <point x="241" y="54" type="curve"/>
      <point x="234" y="100"/>
      <point x="235" y="110"/>
      <point x="256" y="198" type="curve" smooth="yes"/>
      <point x="379" y="689" type="line" smooth="yes"/>
      <point x="381" y="695"/>
      <point x="377" y="700"/>
      <point x="371" y="700" type="curve" smooth="yes"/>
      <point x="356" y="700"/>
      <point x="341" y="700"/>
    </contour>
    <contour>
      <point x="446" y="50" type="curve"/>
      <point x="436" y="50" type="line"/>
      <point x="411" y="50"/>
      <point x="385" y="50"/>
      <point x="353" y="50" type="curve" smooth="yes"/>
      <point x="250" y="50"/>
      <point x="228" y="85"/>
      <point x="256" y="198" type="curve"/>
      <point x="219" y="212"/>
      <point x="202" y="204"/>
      <point x="199" y="189" type="curve" smooth="yes"/>
      <point x="161" y="37"/>
      <point x="239" y="0"/>
      <point x="344" y="0" type="curve" smooth="yes"/>
      <point x="423" y="0" type="line" smooth="yes"/>
      <point x="427" y="0"/>
      <point x="430" y="0"/>
      <point x="433" y="3" type="curve" smooth="yes"/>
      <point x="435" y="5"/>
      <point x="436" y="7"/>
      <point x="437" y="11" type="curve" smooth="yes"/>
      <point x="440" y="25"/>
      <point x="443" y="37"/>
    </contour>
    <contour>
      <point x="149" y="527" type="line"/>
      <point x="146" y="513"/>
      <point x="143" y="502"/>
      <point x="139" y="488" type="curve" smooth="yes"/>
      <point x="138" y="485"/>
      <point x="138" y="482"/>
      <point x="140" y="480" type="curve" smooth="yes"/>
      <point x="142" y="478"/>
      <point x="145" y="477"/>
      <point x="148" y="477" type="curve" smooth="yes"/>
      <point x="554" y="477" type="line"/>
      <point x="557" y="491"/>
      <point x="560" y="502"/>
      <point x="563" y="516" type="curve" smooth="yes"/>
      <point x="564" y="522"/>
      <point x="561" y="527"/>
      <point x="555" y="527" type="curve" smooth="yes"/>
    </contour>
    <contour>
      <point x="540" y="700" type="move" name="caronslovak"/>
    </contour>
    <contour>
      <point x="304" y="-1" type="move" name="bottom"/>
    </contour>
  </outline>
</glyph>
<glyph name="u" format="1">
  <advance width="600"/>
  <unicode hex="0075"/>
  <outline>
    <contour>
      <point x="508" y="527" type="curve"/>
      <point x="377" y="11" type="line" smooth="yes"/>
      <point x="376" y="7"/>
      <point x="376" y="4"/>
      <point x="378" y="2" type="curve" smooth="yes"/>
      <point x="379" y="1"/>
      <point x="381" y="0"/>
      <point x="386" y="0" type="curve" smooth="yes"/>
      <point x="400" y="0"/>
      <point x="415" y="0"/>
      <point x="430" y="0" type="curve"/>
      <point x="434" y="17"/>
      <point x="443" y="53"/>
      <point x="455" y="100" type="curve" smooth="yes"/>
      <point x="561" y="516" type="line" smooth="yes"/>
      <point x="562" y="522"/>
      <point x="559" y="527"/>
      <point x="553" y="527" type="curve" smooth="yes"/>
      <point x="538" y="527"/>
      <point x="523" y="527"/>
    </contour>
    <contour>
      <point x="190" y="-10" type="curve" smooth="yes"/>
      <point x="268" y="-10"/>
      <point x="337" y="35"/>
      <point x="403" y="104" type="curve" smooth="yes"/>
      <point x="427" y="129"/>
      <point x="438" y="164"/>
      <point x="439" y="201" type="curve"/>
      <point x="342" y="90"/>
      <point x="265" y="41"/>
      <point x="201" y="41" type="curve" smooth="yes"/>
      <point x="140" y="41"/>
      <point x="113" y="71"/>
      <point x="137" y="160" type="curve"/>
      <point x="89" y="158"/>
      <point x="80" y="156"/>
      <point x="77" y="143" type="curve" smooth="yes"/>
      <point x="58" y="61"/>
      <point x="94" y="-10"/>
    </contour>
    <contour>
      <point x="175" y="527" type="curve"/>
      <point x="165" y="491"/>
      <point x="157" y="459"/>
      <point x="149" y="429" type="curve" smooth="yes"/>
      <point x="77" y="143" type="line"/>
      <point x="70" y="116"/>
      <point x="79" y="73"/>
      <point x="126" y="76" type="curve"/>
      <point x="124" y="102"/>
      <point x="125" y="113"/>
      <point x="137" y="160" type="curve" smooth="yes"/>
      <point x="228" y="516" type="line" smooth="yes"/>
      <point x="229" y="522"/>
      <point x="226" y="527"/>
      <point x="220" y="527" type="curve" smooth="yes"/>
      <point x="205" y="527"/>
      <point x="190" y="527"/>
    </contour>
    <contour>
      <point x="368" y="538" type="move" name="top"/>
    </contour>
    <contour>
      <point x="430" y="-1" type="move" name="ogonek"/>
    </contour>
    <contour>
      <point x="197" y="-1" type="move" name="bottom"/>
    </contour>
  </outline>
</glyph>
<glyph name="v" format="1">
  <advance width="600"/>
  <unicode hex="0076"/>
  <outline>
    <contour>
      <point x="603" y="527" type="curve" smooth="yes"/>
      <point x="554" y="527" type="line"/>
      <point x="449" y="361"/>
      <point x="344" y="196"/>
      <point x="238" y="30" type="curve"/>
      <point x="228" y="12"/>
      <point x="223" y="7"/>
      <point x="208" y="0" type="curve"/>
      <point x="279" y="0" type="line"/>
      <point x="389" y="172"/>
      <point x="498" y="343"/>
      <point x="608" y="515" type="curve"/>
      <point x="612" y="522"/>
      <point x="608" y="527"/>
    </contour>
    <contour>
      <point x="168" y="527" type="curve" smooth="yes"/>
      <point x="118" y="527" type="line"/>
      <point x="141" y="355"/>
      <point x="163" y="183"/>
      <point x="186" y="11" type="curve"/>
      <point x="187" y="3"/>
      <point x="191" y="0"/>
      <point x="199" y="0" type="curve" smooth="yes"/>
      <point x="213" y="0" type="line" smooth="yes"/>
      <point x="238" y="0"/>
      <point x="286" y="16"/>
      <point x="298" y="50" type="curve"/>
      <point x="280" y="50"/>
      <point x="263" y="50"/>
      <point x="245" y="50" type="curve" smooth="yes"/>
      <point x="240" y="50"/>
      <point x="239" y="52"/>
      <point x="238" y="58" type="curve"/>
      <point x="218" y="213"/>
      <point x="199" y="359"/>
      <point x="180" y="514" type="curve"/>
      <point x="179" y="523"/>
      <point x="175" y="527"/>
    </contour>
  </outline>
</glyph>
<glyph name="w" format="1">
  <advance width="600"/>
  <unicode hex="0077"/>
  <outline>
    <contour>
      <point x="114" y="527" type="curve"/>
      <point x="97" y="356"/>
      <point x="79" y="183"/>
      <point x="61" y="11" type="curve" smooth="yes"/>
      <point x="60" y="3"/>
      <point x="65" y="0"/>
      <point x="72" y="0" type="curve" smooth="yes"/>
      <point x="90" y="0" type="line" smooth="yes"/>
      <point x="100" y="0"/>
      <point x="109" y="10"/>
      <point x="112" y="26" type="curve" smooth="yes"/>
      <point x="130" y="189"/>
      <point x="149" y="353"/>
      <point x="166" y="514" type="curve"/>
      <point x="168" y="522"/>
      <point x="167" y="524"/>
      <point x="166" y="525" type="curve" smooth="yes"/>
      <point x="165" y="526"/>
      <point x="162" y="527"/>
      <point x="159" y="527" type="curve"/>
      <point x="144" y="527"/>
      <point x="129" y="527"/>
    </contour>
    <contour>
      <point x="349" y="426" type="curve" smooth="yes"/>
      <point x="310" y="426" type="line"/>
      <point x="242" y="295"/>
      <point x="172" y="163"/>
      <point x="102" y="30" type="curve"/>
      <point x="92" y="11"/>
      <point x="89" y="6"/>
      <point x="81" y="0" type="curve"/>
      <point x="140" y="0" type="line"/>
      <point x="210" y="136"/>
      <point x="281" y="271"/>
      <point x="351" y="406" type="curve" smooth="yes"/>
      <point x="358" y="421"/>
      <point x="356" y="426"/>
    </contour>
    <contour>
      <point x="361" y="426" type="curve" smooth="yes"/>
      <point x="321" y="426" type="line"/>
      <point x="321" y="289"/>
      <point x="322" y="150"/>
      <point x="323" y="11" type="curve" smooth="yes"/>
      <point x="323" y="3"/>
      <point x="328" y="0"/>
      <point x="333" y="0" type="curve" smooth="yes"/>
      <point x="350" y="0" type="line" smooth="yes"/>
      <point x="359" y="0"/>
      <point x="370" y="10"/>
      <point x="371" y="25" type="curve" smooth="yes"/>
      <point x="370" y="157"/>
      <point x="368" y="286"/>
      <point x="368" y="416" type="curve" smooth="yes"/>
      <point x="368" y="425"/>
      <point x="365" y="426"/>
    </contour>
    <contour>
      <point x="558" y="527" type="curve"/>
      <point x="494" y="362"/>
      <point x="428" y="195"/>
      <point x="362" y="30" type="curve"/>
      <point x="353" y="12"/>
      <point x="351" y="6"/>
      <point x="343" y="0" type="curve"/>
      <point x="402" y="0" type="line"/>
      <point x="473" y="170"/>
      <point x="543" y="344"/>
      <point x="612" y="515" type="curve"/>
      <point x="615" y="522"/>
      <point x="615" y="524"/>
      <point x="613" y="526" type="curve" smooth="yes"/>
      <point x="612" y="527"/>
      <point x="610" y="527"/>
      <point x="607" y="527" type="curve"/>
      <point x="591" y="527"/>
      <point x="574" y="527"/>
    </contour>
    <contour>
      <point x="366" y="538" type="move" name="top"/>
    </contour>
  </outline>
</glyph>
<glyph name="x" format="1">
  <advance width="600"/>
  <unicode hex="0078"/>
  <outline>
    <contour>
      <point x="404" y="0" type="curve" smooth="yes"/>
      <point x="422" y="0"/>
      <point x="434" y="0"/>
      <point x="453" y="0" type="curve"/>
      <point x="411" y="92"/>
      <point x="368" y="182"/>
      <point x="325" y="274" type="curve" smooth="yes"/>
      <point x="322" y="281"/>
      <point x="318" y="288"/>
      <point x="315" y="296" type="curve" smooth="yes"/>
      <point x="281" y="368"/>
      <point x="248" y="441"/>
      <point x="214" y="514" type="curve" smooth="yes"/>
      <point x="210" y="523"/>
      <point x="205" y="527"/>
      <point x="196" y="527" type="curve" smooth="yes"/>
      <point x="177" y="527"/>
      <point x="165" y="527"/>
      <point x="146" y="527" type="curve"/>
      <point x="188" y="437"/>
      <point x="228" y="349"/>
      <point x="270" y="259" type="curve" smooth="yes"/>
      <point x="273" y="251"/>
      <point x="277" y="246"/>
      <point x="280" y="239" type="curve" smooth="yes"/>
      <point x="314" y="164"/>
      <point x="350" y="88"/>
      <point x="385" y="13" type="curve" smooth="yes"/>
      <point x="388" y="6"/>
      <point x="394" y="0"/>
    </contour>
    <contour>
      <point x="565" y="527" type="curve" smooth="yes"/>
      <point x="511" y="527" type="line"/>
      <point x="439" y="449"/>
      <point x="368" y="373"/>
      <point x="296" y="295" type="curve" smooth="yes"/>
      <point x="289" y="287"/>
      <point x="280" y="293"/>
      <point x="272" y="285" type="curve" smooth="yes"/>
      <point x="190" y="199"/>
      <point x="110" y="113"/>
      <point x="28" y="27" type="curve" smooth="yes"/>
      <point x="17" y="15"/>
      <point x="15" y="12"/>
      <point x="15" y="7" type="curve" smooth="yes"/>
      <point x="15" y="2"/>
      <point x="18" y="0"/>
      <point x="26" y="0" type="curve" smooth="yes"/>
      <point x="78" y="0" type="line"/>
      <point x="152" y="80"/>
      <point x="226" y="160"/>
      <point x="300" y="239" type="curve" smooth="yes"/>
      <point x="307" y="247"/>
      <point x="318" y="243"/>
      <point x="325" y="250" type="curve" smooth="yes"/>
      <point x="406" y="336"/>
      <point x="488" y="422"/>
      <point x="568" y="507" type="curve" smooth="yes"/>
      <point x="572" y="511"/>
      <point x="575" y="515"/>
      <point x="575" y="520" type="curve" smooth="yes"/>
      <point x="575" y="525"/>
      <point x="571" y="527"/>
    </contour>
  </outline>
</glyph>
<glyph name="y" format="1">
  <advance width="600"/>
  <unicode hex="0079"/>
  <outline>
    <contour>
      <point x="175" y="527" type="curve"/>
      <point x="165" y="491"/>
      <point x="157" y="459"/>
      <point x="149" y="429" type="curve" smooth="yes"/>
      <point x="77" y="144" type="line"/>
      <point x="71" y="117"/>
      <point x="80" y="74"/>
      <point x="126" y="77" type="curve"/>
      <point x="124" y="103"/>
      <point x="126" y="114"/>
      <point x="137" y="161" type="curve" smooth="yes"/>
      <point x="228" y="516" type="line" smooth="yes"/>
      <point x="229" y="522"/>
      <point x="226" y="527"/>
      <point x="220" y="527" type="curve" smooth="yes"/>
      <point x="205" y="527"/>
      <point x="190" y="527"/>
    </contour>
    <contour>
      <point x="191" y="-9" type="curve" smooth="yes"/>
      <point x="269" y="-9"/>
      <point x="338" y="35"/>
      <point x="403" y="105" type="curve" smooth="yes"/>
      <point x="428" y="129"/>
      <point x="438" y="165"/>
      <point x="439" y="201" type="curve"/>
      <point x="342" y="91"/>
      <point x="266" y="42"/>
      <point x="201" y="42" type="curve" smooth="yes"/>
      <point x="140" y="42"/>
      <point x="113" y="72"/>
      <point x="137" y="161" type="curve"/>
      <point x="89" y="159"/>
      <point x="80" y="156"/>
      <point x="77" y="144" type="curve" smooth="yes"/>
      <point x="58" y="62"/>
      <point x="94" y="-9"/>
    </contour>
    <contour>
      <point x="431" y="-9" type="curve" smooth="yes"/>
      <point x="566" y="516" type="line" smooth="yes"/>
      <point x="568" y="522"/>
      <point x="564" y="527"/>
      <point x="558" y="527" type="curve" smooth="yes"/>
      <point x="542" y="527"/>
      <point x="527" y="527"/>
      <point x="511" y="527" type="curve"/>
      <point x="376" y="-7" type="line" smooth="yes"/>
      <point x="351" y="-104"/>
      <point x="314" y="-152"/>
      <point x="234" y="-204" type="curve"/>
      <point x="296" y="-226"/>
      <point x="402" y="-126"/>
    </contour>
    <contour>
      <point x="150" y="-197" type="curve" smooth="yes"/>
      <point x="77" y="-197"/>
      <point x="42" y="-181"/>
      <point x="11" y="-164" type="curve"/>
      <point x="-1" y="-164" type="line"/>
      <point x="-6" y="-179"/>
      <point x="-9" y="-189"/>
      <point x="-12" y="-201" type="curve" smooth="yes"/>
      <point x="-14" y="-207"/>
      <point x="-13" y="-209"/>
      <point x="-11" y="-212" type="curve" smooth="yes"/>
      <point x="0" y="-227"/>
      <point x="55" y="-250"/>
      <point x="135" y="-250" type="curve" smooth="yes"/>
      <point x="291" y="-250"/>
      <point x="383" y="-193"/>
      <point x="431" y="-9" type="curve" smooth="yes"/>
      <point x="434" y="4"/>
      <point x="416" y="5"/>
      <point x="376" y="-7" type="curve"/>
      <point x="338" y="-155"/>
      <point x="251" y="-197"/>
    </contour>
  </outline>
</glyph>
<glyph name="z" format="1">
  <advance width="600"/>
  <unicode hex="007A"/>
  <outline>
    <contour>
      <point x="149" y="527" type="line"/>
      <point x="146" y="513"/>
      <point x="143" y="501"/>
      <point x="139" y="488" type="curve" smooth="yes"/>
      <point x="138" y="484"/>
      <point x="138" y="481"/>
      <point x="140" y="479" type="curve" smooth="yes"/>
      <point x="142" y="477"/>
      <point x="145" y="477"/>
      <point x="148" y="477" type="curve" smooth="yes"/>
      <point x="511" y="477" type="line" smooth="yes"/>
      <point x="526" y="477"/>
      <point x="569" y="477"/>
      <point x="578" y="477" type="curve"/>
      <point x="587" y="516" type="line" smooth="yes"/>
      <point x="588" y="520"/>
      <point x="588" y="523"/>
      <point x="586" y="525" type="curve" smooth="yes"/>
      <point x="585" y="527"/>
      <point x="582" y="527"/>
      <point x="579" y="527" type="curve" smooth="yes"/>
    </contour>
    <contour>
      <point x="532" y="505" type="curve"/>
      <point x="360" y="350"/>
      <point x="197" y="203"/>
      <point x="28" y="49" type="curve"/>
      <point x="20" y="16"/>
      <point x="65" y="15"/>
      <point x="88" y="34" type="curve" smooth="yes"/>
      <point x="257" y="188"/>
      <point x="577" y="476"/>
      <point x="578" y="477" type="curve"/>
      <point x="583" y="498"/>
      <point x="568" y="505"/>
    </contour>
    <contour>
      <point x="456" y="0" type="line"/>
      <point x="460" y="14"/>
      <point x="463" y="26"/>
      <point x="467" y="39" type="curve"/>
      <point x="469" y="46"/>
      <point x="466" y="50"/>
      <point x="459" y="50" type="curve" smooth="yes"/>
      <point x="95" y="50" type="line" smooth="yes"/>
      <point x="74" y="50"/>
      <point x="52" y="50"/>
      <point x="28" y="49" type="curve"/>
      <point x="18" y="11" type="line" smooth="yes"/>
      <point x="17" y="7"/>
      <point x="17" y="4"/>
      <point x="19" y="2" type="curve" smooth="yes"/>
      <point x="21" y="0"/>
      <point x="24" y="0"/>
      <point x="27" y="0" type="curve" smooth="yes"/>
    </contour>
    <contour>
      <point x="368" y="538" type="move" name="top"/>
    </contour>
  </outline>
</glyph>
<glyph name="braceleft" format="1">
  <advance width="600"/>
  <unicode hex="007B"/>
  <outline>
    <contour>
      <point x="448" y="705" type="curve" smooth="yes"/>
      <point x="501" y="705"/>
      <point x="549" y="705"/>
      <point x="601" y="705" type="curve"/>
      <point x="621" y="705" type="line"/>
      <point x="625" y="720"/>
      <point x="628" y="734"/>
      <point x="632" y="749" type="curve"/>
      <point x="634" y="756"/>
      <point x="631" y="760"/>
      <point x="624" y="760" type="curve" smooth="yes"/>
      <point x="456" y="760" type="line" smooth="yes"/>
      <point x="379" y="760"/>
      <point x="338" y="702"/>
      <point x="329" y="666" type="curve" smooth="yes"/>
      <point x="328" y="662" type="line" smooth="yes"/>
      <point x="326" y="653"/>
      <point x="334" y="651"/>
      <point x="376" y="649" type="curve"/>
      <point x="393" y="688"/>
      <point x="413" y="705"/>
    </contour>
    <contour>
      <point x="410" y="449" type="curve" smooth="yes"/>
      <point x="431" y="536"/>
      <point x="360" y="569"/>
      <point x="374" y="623" type="curve" smooth="yes"/>
      <point x="379" y="643"/>
      <point x="385" y="668"/>
      <point x="390" y="689" type="curve"/>
      <point x="336" y="676"/>
      <point x="331" y="672"/>
      <point x="329" y="666" type="curve" smooth="yes"/>
      <point x="316" y="613" type="line" smooth="yes"/>
      <point x="298" y="543"/>
      <point x="371" y="516"/>
      <point x="353" y="446" type="curve" smooth="yes"/>
      <point x="335" y="373"/>
      <point x="242" y="328"/>
      <point x="115" y="328" type="curve" smooth="yes"/>
      <point x="83" y="328" type="line"/>
      <point x="74" y="292" type="line" smooth="yes"/>
      <point x="72" y="283"/>
      <point x="79" y="276"/>
      <point x="88" y="276" type="curve" smooth="yes"/>
      <point x="102" y="276" type="line" smooth="yes"/>
      <point x="259" y="276"/>
      <point x="384" y="346"/>
    </contour>
    <contour>
      <point x="335" y="149" type="curve" smooth="yes"/>
      <point x="361" y="252"/>
      <point x="275" y="324"/>
      <point x="114" y="324" type="curve" smooth="yes"/>
      <point x="103" y="324"/>
      <point x="93" y="324"/>
      <point x="82" y="324" type="curve"/>
      <point x="72" y="283" type="line" smooth="yes"/>
      <point x="70" y="276"/>
      <point x="73" y="272"/>
      <point x="80" y="272" type="curve" smooth="yes"/>
      <point x="101" y="272" type="line" smooth="yes"/>
      <point x="228" y="272"/>
      <point x="298" y="225"/>
      <point x="280" y="152" type="curve" smooth="yes"/>
      <point x="262" y="82"/>
      <point x="177" y="56"/>
      <point x="159" y="-14" type="curve" smooth="yes"/>
      <point x="146" y="-67" type="line" smooth="yes"/>
      <point x="144" y="-73"/>
      <point x="149" y="-77"/>
      <point x="197" y="-86" type="curve"/>
      <point x="202" y="-66"/>
      <point x="207" y="-44"/>
      <point x="212" y="-24" type="curve" smooth="yes"/>
      <point x="226" y="31"/>
      <point x="313" y="63"/>
    </contour>
    <contour>
      <point x="245" y="-106" type="curve" smooth="yes"/>
      <point x="210" y="-106"/>
      <point x="199" y="-89"/>
      <point x="202" y="-50" type="curve"/>
      <point x="159" y="-52"/>
      <point x="149" y="-54"/>
      <point x="147" y="-63" type="curve" smooth="yes"/>
      <point x="146" y="-67" type="line" smooth="yes"/>
      <point x="137" y="-103"/>
      <point x="148" y="-161"/>
      <point x="226" y="-161" type="curve" smooth="yes"/>
      <point x="393" y="-161" type="line" smooth="yes"/>
      <point x="400" y="-161"/>
      <point x="405" y="-157"/>
      <point x="407" y="-150" type="curve"/>
      <point x="418" y="-106" type="line"/>
      <point x="398" y="-106" type="line"/>
      <point x="346" y="-106"/>
      <point x="298" y="-106"/>
    </contour>
  </outline>
</glyph>
<glyph name="bar" format="1">
  <advance width="600"/>
  <unicode hex="007C"/>
  <outline>
    <contour>
      <point x="396" y="760" type="curve"/>
      <point x="388" y="727"/>
      <point x="380" y="694"/>
      <point x="371" y="661" type="curve" smooth="yes"/>
      <point x="169" y="-150" type="line" smooth="yes"/>
      <point x="167" y="-156"/>
      <point x="171" y="-161"/>
      <point x="177" y="-161" type="curve" smooth="yes"/>
      <point x="192" y="-161"/>
      <point x="207" y="-161"/>
      <point x="222" y="-161" type="curve"/>
      <point x="449" y="749" type="line" smooth="yes"/>
      <point x="450" y="752"/>
      <point x="450" y="755"/>
      <point x="448" y="757" type="curve" smooth="yes"/>
      <point x="447" y="759"/>
      <point x="444" y="760"/>
      <point x="441" y="760" type="curve" smooth="yes"/>
      <point x="426" y="760"/>
      <point x="411" y="760"/>
    </contour>
  </outline>
</glyph>
<glyph name="braceright" format="1">
  <advance width="600"/>
  <unicode hex="007D"/>
  <outline>
    <contour>
      <point x="170" y="-106" type="curve" smooth="yes"/>
      <point x="117" y="-106"/>
      <point x="69" y="-106"/>
      <point x="17" y="-106" type="curve"/>
      <point x="-3" y="-106" type="line"/>
      <point x="-7" y="-121"/>
      <point x="-10" y="-135"/>
      <point x="-14" y="-150" type="curve"/>
      <point x="-16" y="-157"/>
      <point x="-13" y="-161"/>
      <point x="-6" y="-161" type="curve" smooth="yes"/>
      <point x="162" y="-161" type="line" smooth="yes"/>
      <point x="239" y="-161"/>
      <point x="280" y="-103"/>
      <point x="289" y="-67" type="curve" smooth="yes"/>
      <point x="290" y="-63" type="line" smooth="yes"/>
      <point x="292" y="-54"/>
      <point x="284" y="-52"/>
      <point x="242" y="-50" type="curve"/>
      <point x="225" y="-89"/>
      <point x="205" y="-106"/>
    </contour>
    <contour>
      <point x="208" y="150" type="curve" smooth="yes"/>
      <point x="187" y="63"/>
      <point x="258" y="30"/>
      <point x="244" y="-24" type="curve" smooth="yes"/>
      <point x="239" y="-44"/>
      <point x="233" y="-69"/>
      <point x="228" y="-90" type="curve"/>
      <point x="282" y="-77"/>
      <point x="287" y="-73"/>
      <point x="289" y="-67" type="curve" smooth="yes"/>
      <point x="302" y="-14" type="line" smooth="yes"/>
      <point x="320" y="56"/>
      <point x="247" y="83"/>
      <point x="265" y="153" type="curve" smooth="yes"/>
      <point x="283" y="226"/>
      <point x="377" y="271"/>
      <point x="503" y="271" type="curve" smooth="yes"/>
      <point x="535" y="271" type="line"/>
      <point x="544" y="307" type="line" smooth="yes"/>
      <point x="546" y="316"/>
      <point x="539" y="323"/>
      <point x="530" y="323" type="curve" smooth="yes"/>
      <point x="516" y="323" type="line" smooth="yes"/>
      <point x="360" y="323"/>
      <point x="234" y="253"/>
    </contour>
    <contour>
      <point x="283" y="450" type="curve" smooth="yes"/>
      <point x="258" y="347"/>
      <point x="343" y="275"/>
      <point x="504" y="275" type="curve" smooth="yes"/>
      <point x="515" y="275"/>
      <point x="525" y="275"/>
      <point x="536" y="275" type="curve"/>
      <point x="546" y="316" type="line" smooth="yes"/>
      <point x="548" y="323"/>
      <point x="545" y="327"/>
      <point x="538" y="327" type="curve" smooth="yes"/>
      <point x="517" y="327" type="line" smooth="yes"/>
      <point x="390" y="327"/>
      <point x="320" y="374"/>
      <point x="338" y="447" type="curve" smooth="yes"/>
      <point x="356" y="517"/>
      <point x="441" y="543"/>
      <point x="459" y="613" type="curve" smooth="yes"/>
      <point x="472" y="666" type="line" smooth="yes"/>
      <point x="474" y="672"/>
      <point x="469" y="676"/>
      <point x="421" y="685" type="curve"/>
      <point x="416" y="665"/>
      <point x="411" y="643"/>
      <point x="406" y="623" type="curve" smooth="yes"/>
      <point x="392" y="568"/>
      <point x="305" y="536"/>
    </contour>
    <contour>
      <point x="373" y="705" type="curve" smooth="yes"/>
      <point x="408" y="705"/>
      <point x="419" y="688"/>
      <point x="416" y="649" type="curve"/>
      <point x="460" y="651"/>
      <point x="469" y="653"/>
      <point x="471" y="662" type="curve" smooth="yes"/>
      <point x="472" y="666" type="line" smooth="yes"/>
      <point x="481" y="702"/>
      <point x="470" y="760"/>
      <point x="392" y="760" type="curve" smooth="yes"/>
      <point x="225" y="760" type="line" smooth="yes"/>
      <point x="218" y="760"/>
      <point x="213" y="756"/>
      <point x="211" y="749" type="curve"/>
      <point x="200" y="705" type="line"/>
      <point x="220" y="705" type="line"/>
      <point x="272" y="705"/>
      <point x="320" y="705"/>
    </contour>
  </outline>
</glyph>
<glyph name="asciitilde" format="1">
  <advance width="600"/>
  <unicode hex="007E"/>
  <outline>
    <contour>
      <point x="428" y="278" type="curve" smooth="yes"/>
      <point x="347" y="278"/>
      <point x="301" y="378"/>
      <point x="204" y="378" type="curve" smooth="yes"/>
      <point x="151" y="378"/>
      <point x="114" y="360"/>
      <point x="83" y="334" type="curve" smooth="yes"/>
      <point x="73" y="326"/>
      <point x="71" y="321"/>
      <point x="70" y="316" type="curve" smooth="yes"/>
      <point x="66" y="301"/>
      <point x="62" y="285"/>
      <point x="59" y="272" type="curve"/>
      <point x="72" y="272" type="line"/>
      <point x="116" y="310"/>
      <point x="146" y="325"/>
      <point x="191" y="325" type="curve" smooth="yes"/>
      <point x="272" y="325"/>
      <point x="318" y="225"/>
      <point x="415" y="225" type="curve" smooth="yes"/>
      <point x="468" y="225"/>
      <point x="505" y="243"/>
      <point x="536" y="269" type="curve" smooth="yes"/>
      <point x="546" y="277"/>
      <point x="548" y="282"/>
      <point x="549" y="287" type="curve" smooth="yes"/>
      <point x="553" y="302"/>
      <point x="557" y="317"/>
      <point x="560" y="331" type="curve"/>
      <point x="548" y="331" type="line"/>
      <point x="503" y="292"/>
      <point x="473" y="278"/>
    </contour>
  </outline>
</glyph>
<glyph name="exclamdown" format="1">
  <advance width="600"/>
  <unicode hex="00A1"/>
  <outline>
    <contour>
      <point x="280" y="284" type="line"/>
      <point x="254" y="198"/>
      <point x="228" y="111"/>
      <point x="202" y="25" type="curve"/>
      <point x="156" y="-162" type="line" smooth="yes"/>
      <point x="154" y="-169"/>
      <point x="158" y="-173"/>
      <point x="164" y="-173" type="curve" smooth="yes"/>
      <point x="187" y="-173"/>
      <point x="208" y="-173"/>
      <point x="229" y="-173" type="curve"/>
      <point x="238" y="-135"/>
      <point x="247" y="-100"/>
      <point x="256" y="-63" type="curve" smooth="yes"/>
      <point x="278" y="25" type="line"/>
      <point x="328" y="270"/>
      <point x="329" y="277"/>
      <point x="326" y="281" type="curve" smooth="yes"/>
      <point x="325" y="283"/>
      <point x="323" y="284"/>
      <point x="319" y="284" type="curve"/>
    </contour>
    <contour>
      <point x="303" y="532" type="curve"/>
      <point x="275" y="419" type="line" smooth="yes"/>
      <point x="273" y="413"/>
      <point x="277" y="408"/>
      <point x="283" y="408" type="curve" smooth="yes"/>
      <point x="315" y="408"/>
      <point x="368" y="408"/>
      <point x="400" y="408" type="curve"/>
      <point x="429" y="521" type="line" smooth="yes"/>
      <point x="430" y="527"/>
      <point x="426" y="532"/>
      <point x="420" y="532" type="curve" smooth="yes"/>
      <point x="388" y="532"/>
      <point x="335" y="532"/>
    </contour>
  </outline>
</glyph>
<glyph name="cent" format="1">
  <advance width="600"/>
  <unicode hex="00A2"/>
  <outline>
    <contour>
      <point x="387" y="403" type="line"/>
      <point x="502" y="755" type="line" smooth="yes"/>
      <point x="506" y="764"/>
      <point x="502" y="768"/>
      <point x="496" y="768" type="curve" smooth="yes"/>
      <point x="471" y="768"/>
      <point x="461" y="768"/>
      <point x="437" y="768" type="curve"/>
      <point x="430" y="739"/>
      <point x="423" y="711"/>
      <point x="416" y="683" type="curve"/>
      <point x="351" y="423" type="line" smooth="yes"/>
      <point x="349" y="415"/>
      <point x="352" y="411"/>
      <point x="358" y="409" type="curve" smooth="yes"/>
    </contour>
    <contour>
      <point x="320" y="299" type="line"/>
      <point x="204" y="-53" type="line" smooth="yes"/>
      <point x="201" y="-62"/>
      <point x="205" y="-66"/>
      <point x="211" y="-66" type="curve" smooth="yes"/>
      <point x="236" y="-66"/>
      <point x="246" y="-66"/>
      <point x="269" y="-66" type="curve"/>
      <point x="276" y="-38"/>
      <point x="284" y="-9"/>
      <point x="291" y="19" type="curve"/>
      <point x="356" y="279" type="line" smooth="yes"/>
      <point x="358" y="287"/>
      <point x="355" y="291"/>
      <point x="349" y="292" type="curve" smooth="yes"/>
    </contour>
    <contour>
      <point x="428" y="625" type="curve" smooth="yes"/>
      <point x="292" y="625"/>
      <point x="170" y="550"/>
      <point x="131" y="394" type="curve" smooth="yes"/>
      <point x="108" y="304" type="line" smooth="yes"/>
      <point x="72" y="158"/>
      <point x="136" y="78"/>
      <point x="287" y="78" type="curve" smooth="yes"/>
      <point x="291" y="78"/>
      <point x="309" y="98"/>
      <point x="300" y="131" type="curve"/>
      <point x="181" y="131"/>
      <point x="136" y="192"/>
      <point x="166" y="311" type="curve" smooth="yes"/>
      <point x="185" y="387" type="line" smooth="yes"/>
      <point x="215" y="509"/>
      <point x="290" y="573"/>
      <point x="415" y="573" type="curve" smooth="yes"/>
      <point x="480" y="573"/>
      <point x="517" y="555"/>
      <point x="553" y="527" type="curve"/>
      <point x="565" y="527" type="line"/>
      <point x="568" y="538"/>
      <point x="571" y="551"/>
      <point x="576" y="569" type="curve" smooth="yes"/>
      <point x="577" y="574"/>
      <point x="577" y="577"/>
      <point x="573" y="582" type="curve" smooth="yes"/>
      <point x="562" y="597"/>
      <point x="513" y="625"/>
    </contour>
    <contour>
      <point x="133" y="221" type="curve"/>
      <point x="98" y="153"/>
      <point x="161" y="78"/>
      <point x="287" y="78" type="curve" smooth="yes"/>
      <point x="362" y="78"/>
      <point x="432" y="101"/>
      <point x="462" y="125" type="curve" smooth="yes"/>
      <point x="464" y="127"/>
      <point x="466" y="130"/>
      <point x="467" y="133" type="curve"/>
      <point x="470" y="148"/>
      <point x="474" y="161"/>
      <point x="477" y="176" type="curve"/>
      <point x="465" y="176" type="line"/>
      <point x="411" y="148"/>
      <point x="368" y="131"/>
      <point x="300" y="131" type="curve" smooth="yes"/>
      <point x="206" y="131"/>
      <point x="171" y="161"/>
    </contour>
  </outline>
</glyph>
<glyph name="sterling" format="1">
  <advance width="600"/>
  <unicode hex="00A3"/>
  <outline>
    <contour>
      <point x="456" y="667" type="curve" smooth="yes"/>
      <point x="520" y="667"/>
      <point x="552" y="649"/>
      <point x="590" y="610" type="curve"/>
      <point x="602" y="610" type="line"/>
      <point x="604" y="620"/>
      <point x="608" y="636"/>
      <point x="614" y="659" type="curve" smooth="yes"/>
      <point x="615" y="663"/>
      <point x="614" y="665"/>
      <point x="613" y="667" type="curve" smooth="yes"/>
      <point x="592" y="696"/>
      <point x="542" y="720"/>
      <point x="469" y="720" type="curve" smooth="yes"/>
      <point x="345" y="720"/>
      <point x="261" y="636"/>
      <point x="239" y="548" type="curve" smooth="yes"/>
      <point x="235" y="532" type="line" smooth="yes"/>
      <point x="231" y="515"/>
      <point x="245" y="516"/>
      <point x="293" y="543" type="curve"/>
      <point x="313" y="622"/>
      <point x="371" y="667"/>
    </contour>
    <contour>
      <point x="235" y="532" type="curve" smooth="yes"/>
      <point x="203" y="402"/>
      <point x="177" y="297"/>
      <point x="142" y="160" type="curve" smooth="yes"/>
      <point x="124" y="89"/>
      <point x="70" y="48"/>
      <point x="9" y="48" type="curve" smooth="yes"/>
      <point x="6" y="48"/>
      <point x="3" y="48"/>
      <point x="0" y="48" type="curve"/>
      <point x="-4" y="48" type="line"/>
      <point x="-8" y="36"/>
      <point x="-10" y="26"/>
      <point x="-14" y="11" type="curve" smooth="yes"/>
      <point x="-16" y="3"/>
      <point x="-12" y="0"/>
      <point x="-5" y="0" type="curve" smooth="yes"/>
      <point x="0" y="0" type="line" smooth="yes"/>
      <point x="85" y="0"/>
      <point x="171" y="52"/>
      <point x="200" y="170" type="curve" smooth="yes"/>
      <point x="233" y="303"/>
      <point x="263" y="420"/>
      <point x="293" y="543" type="curve" smooth="yes"/>
      <point x="298" y="562"/>
      <point x="303" y="580"/>
      <point x="308" y="599" type="curve"/>
      <point x="276" y="599"/>
      <point x="246" y="574"/>
    </contour>
    <contour>
      <point x="0" y="0" type="curve"/>
      <point x="170" y="0"/>
      <point x="271" y="0"/>
      <point x="399" y="0" type="curve" smooth="yes"/>
      <point x="464" y="0" type="line" smooth="yes"/>
      <point x="472" y="0"/>
      <point x="475" y="3"/>
      <point x="477" y="11" type="curve"/>
      <point x="481" y="24"/>
      <point x="484" y="36"/>
      <point x="487" y="48" type="curve"/>
      <point x="467" y="48" type="line"/>
      <point x="444" y="48"/>
      <point x="426" y="48"/>
      <point x="397" y="48" type="curve" smooth="yes"/>
      <point x="297" y="48"/>
      <point x="227" y="48"/>
      <point x="78" y="48" type="curve"/>
      <point x="-1" y="5"/>
      <point x="-4" y="0"/>
    </contour>
    <contour>
      <point x="97" y="372" type="line"/>
      <point x="93" y="359"/>
      <point x="91" y="349"/>
      <point x="88" y="337" type="curve" smooth="yes"/>
      <point x="87" y="334"/>
      <point x="87" y="331"/>
      <point x="89" y="329" type="curve" smooth="yes"/>
      <point x="90" y="327"/>
      <point x="93" y="326"/>
      <point x="96" y="326" type="curve" smooth="yes"/>
      <point x="466" y="326" type="line"/>
      <point x="469" y="338"/>
      <point x="471" y="348"/>
      <point x="474" y="361" type="curve" smooth="yes"/>
      <point x="476" y="367"/>
      <point x="472" y="372"/>
      <point x="466" y="372" type="curve" smooth="yes"/>
    </contour>
  </outline>
</glyph>
<glyph name="brokenbar" format="1">
  <advance width="600"/>
  <unicode hex="00A6"/>
  <outline>
    <contour>
      <point x="396" y="760" type="curve"/>
      <point x="388" y="727"/>
      <point x="380" y="694"/>
      <point x="371" y="661" type="curve" smooth="yes"/>
      <point x="301" y="380" type="line" smooth="yes"/>
      <point x="300" y="374"/>
      <point x="303" y="369"/>
      <point x="309" y="369" type="curve" smooth="yes"/>
      <point x="324" y="369"/>
      <point x="339" y="369"/>
      <point x="354" y="369" type="curve"/>
      <point x="449" y="749" type="line" smooth="yes"/>
      <point x="450" y="752"/>
      <point x="450" y="755"/>
      <point x="448" y="757" type="curve" smooth="yes"/>
      <point x="447" y="759"/>
      <point x="444" y="760"/>
      <point x="441" y="760" type="curve" smooth="yes"/>
      <point x="426" y="760"/>
      <point x="411" y="760"/>
    </contour>
    <contour>
      <point x="264" y="231" type="curve"/>
      <point x="169" y="-149" type="line"/>
      <point x="167" y="-155"/>
      <point x="171" y="-160"/>
      <point x="177" y="-160" type="curve" smooth="yes"/>
      <point x="192" y="-160"/>
      <point x="207" y="-160"/>
      <point x="222" y="-160" type="curve"/>
      <point x="317" y="220" type="line" smooth="yes"/>
      <point x="319" y="227"/>
      <point x="316" y="231"/>
      <point x="309" y="231" type="curve" smooth="yes"/>
      <point x="294" y="231"/>
      <point x="279" y="231"/>
    </contour>
  </outline>
</glyph>
<glyph name="copyright" format="1">
  <advance width="600"/>
  <unicode hex="00A9"/>
  <outline>
    <contour>
      <point x="413" y="715" type="curve" smooth="yes"/>
      <point x="237" y="715"/>
      <point x="110" y="614"/>
      <point x="66" y="438" type="curve" smooth="yes"/>
      <point x="24" y="271" type="line" smooth="yes"/>
      <point x="-22" y="86"/>
      <point x="52" y="-15"/>
      <point x="230" y="-15" type="curve" smooth="yes"/>
      <point x="240" y="4"/>
      <point x="246" y="24"/>
      <point x="242" y="33" type="curve"/>
      <point x="96" y="33"/>
      <point x="34" y="112"/>
      <point x="69" y="255" type="curve" smooth="yes"/>
      <point x="117" y="446" type="line" smooth="yes"/>
      <point x="153" y="588"/>
      <point x="255" y="667"/>
      <point x="401" y="667" type="curve" smooth="yes"/>
      <point x="442" y="667"/>
      <point x="470" y="667"/>
      <point x="501" y="665" type="curve"/>
      <point x="511" y="696"/>
      <point x="477" y="715"/>
    </contour>
    <contour>
      <point x="230" y="-15" type="curve" smooth="yes"/>
      <point x="406" y="-15"/>
      <point x="533" y="86"/>
      <point x="577" y="262" type="curve" smooth="yes"/>
      <point x="619" y="429" type="line" smooth="yes"/>
      <point x="665" y="614"/>
      <point x="592" y="715"/>
      <point x="413" y="715" type="curve" smooth="yes"/>
      <point x="403" y="696"/>
      <point x="397" y="676"/>
      <point x="401" y="667" type="curve"/>
      <point x="547" y="667"/>
      <point x="610" y="588"/>
      <point x="574" y="445" type="curve" smooth="yes"/>
      <point x="526" y="254" type="line" smooth="yes"/>
      <point x="491" y="112"/>
      <point x="388" y="33"/>
      <point x="242" y="33" type="curve" smooth="yes"/>
      <point x="202" y="33"/>
      <point x="173" y="33"/>
      <point x="142" y="35" type="curve"/>
      <point x="133" y="4"/>
      <point x="166" y="-15"/>
    </contour>
    <contour>
      <point x="372" y="518" type="curve" smooth="yes"/>
      <point x="419" y="518"/>
      <point x="434" y="501"/>
      <point x="447" y="471" type="curve"/>
      <point x="473" y="499"/>
      <point x="479" y="504"/>
      <point x="481" y="511" type="curve" smooth="yes"/>
      <point x="482" y="516"/>
      <point x="482" y="518"/>
      <point x="479" y="522" type="curve" smooth="yes"/>
      <point x="462" y="549"/>
      <point x="432" y="566"/>
      <point x="384" y="566" type="curve" smooth="yes"/>
      <point x="298" y="566"/>
      <point x="236" y="519"/>
      <point x="214" y="431" type="curve" smooth="yes"/>
      <point x="174" y="273" type="line" smooth="yes"/>
      <point x="167" y="244"/>
      <point x="179" y="211"/>
      <point x="209" y="211" type="curve"/>
      <point x="215" y="234"/>
      <point x="219" y="249"/>
      <point x="225" y="274" type="curve" smooth="yes"/>
      <point x="264" y="432" type="line" smooth="yes"/>
      <point x="279" y="490"/>
      <point x="314" y="518"/>
    </contour>
    <contour>
      <point x="274" y="134" type="curve" smooth="yes"/>
      <point x="320" y="134"/>
      <point x="368" y="147"/>
      <point x="392" y="171" type="curve"/>
      <point x="398" y="177"/>
      <point x="400" y="178"/>
      <point x="403" y="190" type="curve" smooth="yes"/>
      <point x="406" y="203"/>
      <point x="409" y="216"/>
      <point x="413" y="232" type="curve"/>
      <point x="404" y="232" type="line"/>
      <point x="367" y="195"/>
      <point x="333" y="182"/>
      <point x="286" y="182" type="curve" smooth="yes"/>
      <point x="223" y="182"/>
      <point x="208" y="208"/>
      <point x="225" y="274" type="curve"/>
      <point x="185" y="281"/>
      <point x="175" y="277"/>
      <point x="174" y="273" type="curve" smooth="yes"/>
      <point x="152" y="185"/>
      <point x="181" y="134"/>
    </contour>
    <contour>
      <point x="460" y="428" type="curve"/>
      <point x="481" y="511" type="line" smooth="yes"/>
      <point x="483" y="519"/>
      <point x="472" y="522"/>
      <point x="435" y="522" type="curve"/>
      <point x="433" y="515"/>
      <point x="432" y="511"/>
      <point x="431" y="506" type="curve" smooth="yes"/>
      <point x="414" y="439" type="line" smooth="yes"/>
      <point x="412" y="432"/>
      <point x="415" y="428"/>
      <point x="422" y="428" type="curve" smooth="yes"/>
      <point x="435" y="428"/>
      <point x="446" y="428"/>
    </contour>
  </outline>
</glyph>
